SplineFontDB: 3.2
FontName: aliconnecticon
FullName: Aliconnect Icon
FamilyName: Aliconnect Icon
Weight: Book
Copyright: (c) 2018 Alicon Systems BV. All Rights Reserved.
Version: 1.29
ItalicAngle: 0
UnderlinePosition: -355
UnderlineWidth: 119
Ascent: 2048
Descent: 0
InvalidEm: 0
sfntRevision: 0x00014a3d
woffMajor: 1
woffMinor: 29
LayerCount: 2
Layer: 0 1 "Back" 1
Layer: 1 1 "Fore" 0
XUID: [1021 212 1677120463 18918]
StyleMap: 0x0040
FSType: 8
OS2Version: 3
OS2_WeightWidthSlopeOnly: 0
OS2_UseTypoMetrics: 0
CreationTime: 1138233600
ModificationTime: 1614427305
PfmFamily: 81
TTFWeight: 400
TTFWidth: 5
LineGap: 0
VLineGap: 0
Panose: 5 10 1 2 1 1 1 1 1 1
OS2TypoAscent: 2048
OS2TypoAOffset: 0
OS2TypoDescent: 0
OS2TypoDOffset: 0
OS2TypoLinegap: 0
OS2WinAscent: 2048
OS2WinAOffset: 0
OS2WinDescent: 0
OS2WinDOffset: 0
HheadAscent: 2048
HheadAOffset: 0
HheadDescent: 0
HheadDOffset: 0
OS2SubXSize: 1434
OS2SubYSize: 1331
OS2SubXOff: 0
OS2SubYOff: 283
OS2SupXSize: 1434
OS2SupYSize: 1331
OS2SupXOff: 0
OS2SupYOff: 977
OS2StrikeYSize: 102
OS2StrikeYPos: 530
OS2FamilyClass: 2053
OS2Vendor: 'MS  '
OS2CodePages: 00000001.00000000
OS2UnicodeRanges: 00000000.10000000.00000000.00000000
MarkAttachClasses: 1
DEI: 91125
TtTable: prep
PUSHB_1
 0
CALL
SVTCA[y-axis]
PUSHB_3
 1
 6
 2
CALL
SVTCA[x-axis]
PUSHB_3
 7
 6
 2
CALL
SVTCA[x-axis]
PUSHB_8
 7
 133
 109
 85
 61
 37
 0
 8
CALL
PUSHB_8
 8
 101
 83
 64
 46
 28
 0
 8
CALL
PUSHB_8
 9
 88
 72
 56
 40
 24
 0
 8
CALL
PUSHB_8
 10
 67
 55
 43
 31
 19
 0
 8
CALL
PUSHB_8
 11
 44
 36
 28
 20
 12
 0
 8
CALL
PUSHB_8
 12
 30
 24
 19
 14
 8
 0
 8
CALL
SVTCA[y-axis]
PUSHB_8
 1
 133
 109
 85
 61
 37
 0
 8
CALL
PUSHB_8
 2
 101
 83
 64
 46
 28
 0
 8
CALL
PUSHB_8
 3
 88
 72
 56
 40
 24
 0
 8
CALL
PUSHB_8
 4
 67
 55
 43
 31
 19
 0
 8
CALL
PUSHB_8
 5
 44
 36
 28
 20
 12
 0
 8
CALL
PUSHB_8
 6
 30
 24
 19
 14
 8
 0
 8
CALL
SVTCA[y-axis]
PUSHB_3
 13
 1
 7
CALL
PUSHB_1
 0
DUP
RCVT
RDTG
ROUND[Black]
RTG
WCVTP
EndTTInstrs
TtTable: fpgm
NPUSHB
 10
 9
 8
 7
 6
 5
 4
 3

StartChar: uniF000
Encoding: 61440 61440 2
Width: 2048
Flags: W
LayerCount: 2
Fore
SplineSet
612 1023 m 128,-1,1
 612 1194 612 1194 732 1314 c 128,-1,2
 852 1434 852 1434 1022.5 1434 c 2,3,-1
 1737 1433 l 1,4,5
 1690 1518 1690 1518 1604 1604 c 0,6,7
 1494 1714 1494 1714 1342 1779 c 128,-1,8
 1190 1844 1190 1844 1023 1844 c 128,-1,9
 856 1844 856 1844 704 1779 c 128,-1,10
 552 1714 552 1714 442 1604 c 128,-1,11
 332 1494 332 1494 267 1342 c 128,-1,12
 202 1190 202 1190 202 1023 c 128,-1,13
 202 856 202 856 267 704 c 128,-1,14
 332 552 332 552 442 442 c 128,-1,15
 552 332 552 332 704 267 c 128,-1,16
 856 202 856 202 1023 202 c 128,-1,17
 1190 202 1190 202 1342 267 c 128,-1,18
 1494 332 1494 332 1604 442 c 0,19,20
 1682 520 1682 520 1737.78321078 619.852142295 c 1,21,-1
 1023.5 612 l 2,22,23
 854 610 854 610 732 732 c 0,24,0
 612 852 612 852 612 1023 c 128,-1,1
1638 1024 m 1029,25,-1
819 1022 m 128,-1,27
 820 1108 820 1108 879 1168 c 128,-1,28
 938 1228 938 1228 1023 1228.5 c 0,29,30
 1030.11032225 1228.45817457 1030.11032225 1228.45817457 1037.04570788 1228 c 2,31,-1
 1616.46976104 1228 l 2,32,33
 1627.02654719 1229 1627.02654719 1229 1638 1229 c 0,34,35
 1723 1229 1723 1229 1783 1169 c 128,-1,36
 1843 1109 1843 1109 1843 1024 c 128,-1,37
 1843 939 1843 939 1783 879 c 128,-1,38
 1723 819 1723 819 1638 819 c 1,39,-1
 1638 818 l 1,40,-1
 1023 818 l 2,41,42
 936 819 936 819 878 876.5 c 0,43,26
 818 936 818 936 819 1022 c 128,-1,27
EndSplineSet
EndChar

StartChar: uniF001
Encoding: 61441 61441 3
Width: 2048
Flags: W
LayerCount: 2
Fore
SplineSet
2048 1280 m 1,0,-1
 1416 794 l 1,1,-1
 1664 0 l 1,2,-1
 1024 492 l 1,3,-1
 384 0 l 1,4,-1
 632 794 l 1,5,-1
 0 1280 l 1,6,-1
 784 1280 l 1,7,-1
 1024 2048 l 1,8,-1
 1264 1280 l 1,9,-1
 2048 1280 l 1,10,-1
 2048 1280 l 1,0,-1
EndSplineSet
EndChar

StartChar: uniF002
Encoding: 61442 61442 4
Width: 2048
Flags: W
LayerCount: 2
Fore
SplineSet
1416 794 m 1,0,-1
 1664 0 l 1,1,-1
 1024 492 l 1,2,-1
 384 0 l 1,3,-1
 632 794 l 1,4,-1
 0 1280 l 1,5,-1
 784 1280 l 1,6,-1
 1024 2048 l 1,7,-1
 1264 1280 l 1,8,-1
 2048 1280 l 1,9,-1
 1416 794 l 1,0,-1
1421 348 m 1,10,11
 1383 472 1383 472 1345 594.5 c 128,-1,12
 1307 717 1307 717 1267 841 c 1,13,14
 1370 918 1370 918 1470 996 c 128,-1,15
 1570 1074 1570 1074 1672 1152 c 1,16,-1
 1170 1152 l 1,17,-1
 1024 1619 l 1,18,-1
 878 1152 l 1,19,-1
 376 1152 l 1,20,21
 478 1074 478 1074 578 996 c 128,-1,22
 678 918 678 918 781 841 c 1,23,24
 741 717 741 717 703 594.5 c 128,-1,25
 665 472 665 472 627 348 c 1,26,-1
 1024 654 l 1,27,-1
 1421 348 l 1,10,11
EndSplineSet
EndChar

StartChar: uniF003
Encoding: 61443 61443 5
Width: 2048
Flags: W
LayerCount: 2
Fore
SplineSet
784 1280 m 1,0,-1
 1024 2048 l 1,1,-1
 1024 492 l 1,2,-1
 384 0 l 1,3,-1
 632 794 l 1,4,-1
 0 1280 l 1,5,-1
 784 1280 l 1,6,-1
 784 1280 l 1,0,-1
EndSplineSet
EndChar

StartChar: uniF004
Encoding: 61444 61444 6
Width: 2048
Flags: W
LayerCount: 2
Fore
SplineSet
2048 1280 m 1,0,-1
 1416 794 l 1,1,-1
 1664 0 l 1,2,-1
 1024 492 l 1,3,-1
 1024 2048 l 1,4,-1
 1264 1280 l 1,5,-1
 2048 1280 l 1,6,-1
 2048 1280 l 1,0,-1
EndSplineSet
EndChar

StartChar: uniF005
Encoding: 61445 61445 7
Width: 2048
Flags: W
LayerCount: 2
Fore
SplineSet
1609 1056 m 0,0,1
 1484 1056 1484 1056 1374.5 1012 c 128,-1,2
 1265 968 1265 968 1182.5 889.5 c 128,-1,3
 1100 811 1100 811 1050 703.5 c 128,-1,4
 1000 596 1000 596 994 469 c 1,5,-1
 384 0 l 1,6,-1
 632 794 l 1,7,-1
 0 1280 l 1,8,-1
 784 1280 l 1,9,-1
 1024 2048 l 1,10,-1
 1264 1280 l 1,11,-1
 2048 1280 l 1,12,-1
 1735 1040 l 1,13,14
 1704 1047 1704 1047 1672.5 1051.5 c 128,-1,15
 1641 1056 1641 1056 1609 1056 c 0,0,1
1600 896 m 256,16,17
 1693 896 1693 896 1774.5 860.5 c 128,-1,18
 1856 825 1856 825 1916.5 764.5 c 128,-1,19
 1977 704 1977 704 2012.5 622.5 c 128,-1,20
 2048 541 2048 541 2048 448 c 256,21,22
 2048 355 2048 355 2012.5 273.5 c 128,-1,23
 1977 192 1977 192 1916.5 131.5 c 128,-1,24
 1856 71 1856 71 1774.5 35.5 c 128,-1,25
 1693 0 1693 0 1600 0 c 256,26,27
 1507 0 1507 0 1425.5 35.5 c 128,-1,28
 1344 71 1344 71 1283.5 131.5 c 128,-1,29
 1223 192 1223 192 1187.5 273.5 c 128,-1,30
 1152 355 1152 355 1152 448 c 256,31,32
 1152 541 1152 541 1187.5 622.5 c 128,-1,33
 1223 704 1223 704 1283.5 764.5 c 128,-1,34
 1344 825 1344 825 1425.5 860.5 c 128,-1,35
 1507 896 1507 896 1600 896 c 256,16,17
1280 448 m 0,36,37
 1280 382 1280 382 1305.5 324 c 128,-1,38
 1331 266 1331 266 1374.5 222.5 c 128,-1,39
 1418 179 1418 179 1476 153.5 c 128,-1,40
 1534 128 1534 128 1600 128 c 0,41,42
 1647 128 1647 128 1692 141.5 c 128,-1,43
 1737 155 1737 155 1776 181 c 1,44,-1
 1333 624 l 1,45,46
 1307 585 1307 585 1293.5 540 c 128,-1,47
 1280 495 1280 495 1280 448 c 0,36,37
1867 272 m 1,48,49
 1893 311 1893 311 1906.5 356 c 128,-1,50
 1920 401 1920 401 1920 448 c 0,51,52
 1920 514 1920 514 1894.5 572 c 128,-1,53
 1869 630 1869 630 1825.5 673.5 c 128,-1,54
 1782 717 1782 717 1724 742.5 c 128,-1,55
 1666 768 1666 768 1600 768 c 0,56,57
 1553 768 1553 768 1508 754.5 c 128,-1,58
 1463 741 1463 741 1424 715 c 1,59,-1
 1867 272 l 1,48,49
EndSplineSet
EndChar

StartChar: uniF006
Encoding: 61446 61446 8
Width: 2048
Flags: W
LayerCount: 2
Fore
SplineSet
1504 1920 m 0,0,1
 1617 1920 1617 1920 1716 1877 c 128,-1,2
 1815 1834 1815 1834 1889 1760.5 c 128,-1,3
 1963 1687 1963 1687 2005.5 1587.5 c 128,-1,4
 2048 1488 2048 1488 2048 1376 c 0,5,6
 2048 1267 2048 1267 2006.5 1167 c 128,-1,7
 1965 1067 1965 1067 1889 991 c 2,8,-1
 1024 127 l 1,9,-1
 159 991 l 2,10,11
 83 1067 83 1067 41.5 1167 c 128,-1,12
 0 1267 0 1267 0 1376 c 0,13,14
 0 1488 0 1488 42.5 1587.5 c 128,-1,15
 85 1687 85 1687 159 1760.5 c 128,-1,16
 233 1834 233 1834 332 1877 c 128,-1,17
 431 1920 431 1920 544 1920 c 0,18,19
 627 1920 627 1920 692 1901 c 128,-1,20
 757 1882 757 1882 812.5 1848.5 c 128,-1,21
 868 1815 868 1815 918.5 1768 c 128,-1,22
 969 1721 969 1721 1024 1665 c 1,23,24
 1079 1721 1079 1721 1129.5 1768 c 128,-1,25
 1180 1815 1180 1815 1235.5 1848.5 c 128,-1,26
 1291 1882 1291 1882 1356 1901 c 128,-1,27
 1421 1920 1421 1920 1504 1920 c 0,0,1
1798 1082 m 2,28,29
 1857 1141 1857 1141 1888 1217 c 128,-1,30
 1919 1293 1919 1293 1919 1376 c 0,31,32
 1919 1463 1919 1463 1887 1538.5 c 128,-1,33
 1855 1614 1855 1614 1798.5 1669.5 c 128,-1,34
 1742 1725 1742 1725 1666.5 1756.5 c 128,-1,35
 1591 1788 1591 1788 1504 1788 c 0,36,37
 1420 1788 1420 1788 1355 1761.5 c 128,-1,38
 1290 1735 1290 1735 1235 1692 c 128,-1,39
 1180 1649 1180 1649 1129.5 1594.5 c 128,-1,40
 1079 1540 1079 1540 1024 1484 c 1,41,42
 970 1538 970 1538 919 1593 c 128,-1,43
 868 1648 868 1648 812.5 1692 c 128,-1,44
 757 1736 757 1736 691.5 1764 c 128,-1,45
 626 1792 626 1792 544 1792 c 0,46,47
 458 1792 458 1792 382 1759.5 c 128,-1,48
 306 1727 306 1727 249.5 1670.5 c 128,-1,49
 193 1614 193 1614 160.5 1538 c 128,-1,50
 128 1462 128 1462 128 1376 c 0,51,52
 128 1293 128 1293 159.5 1217 c 128,-1,53
 191 1141 191 1141 250 1082 c 2,54,-1
 1024 308 l 1,55,-1
 1798 1082 l 2,28,29
EndSplineSet
EndChar

StartChar: uniF007
Encoding: 61447 61447 9
Width: 2048
Flags: W
LayerCount: 2
Fore
SplineSet
1504 1921 m 0,0,1
 1617 1921 1617 1921 1716 1878.5 c 128,-1,2
 1815 1836 1815 1836 1889 1762 c 128,-1,3
 1963 1688 1963 1688 2005.5 1589 c 128,-1,4
 2048 1490 2048 1490 2048 1377 c 0,5,6
 2048 1268 2048 1268 2006.5 1168.5 c 128,-1,7
 1965 1069 1965 1069 1889 993 c 2,8,-1
 1024 128 l 1,9,-1
 159 993 l 2,10,11
 83 1069 83 1069 41.5 1168.5 c 128,-1,12
 0 1268 0 1268 0 1377 c 0,13,14
 0 1490 0 1490 42.5 1589 c 128,-1,15
 85 1688 85 1688 159 1762 c 128,-1,16
 233 1836 233 1836 332 1878.5 c 128,-1,17
 431 1921 431 1921 544 1921 c 0,18,19
 655 1921 655 1921 752.5 1880.5 c 128,-1,20
 850 1840 850 1840 929 1762 c 0,21,22
 953 1739 953 1739 976.5 1715 c 128,-1,23
 1000 1691 1000 1691 1024 1667 c 1,24,25
 1048 1691 1048 1691 1071.5 1715 c 128,-1,26
 1095 1739 1095 1739 1119 1762 c 0,27,28
 1198 1840 1198 1840 1295.5 1880.5 c 128,-1,29
 1393 1921 1393 1921 1504 1921 c 0,0,1
1798 1083 m 2,30,31
 1857 1142 1857 1142 1888 1218 c 128,-1,32
 1919 1294 1919 1294 1919 1377 c 0,33,34
 1919 1464 1919 1464 1886.5 1539.5 c 128,-1,35
 1854 1615 1854 1615 1798 1671.5 c 128,-1,36
 1742 1728 1742 1728 1666.5 1760.5 c 128,-1,37
 1591 1793 1591 1793 1504 1793 c 0,38,39
 1420 1793 1420 1793 1345 1762 c 128,-1,40
 1270 1731 1270 1731 1210 1672 c 0,41,42
 1144 1607 1144 1607 1081.5 1541 c 128,-1,43
 1019 1475 1019 1475 955 1409 c 1,44,-1
 1339 1025 l 1,45,-1
 1037 724 l 1,46,-1
 947 814 l 1,47,-1
 1158 1025 l 1,48,-1
 774 1409 l 1,49,-1
 937 1573 l 1,50,51
 911 1596 911 1596 887 1622 c 128,-1,52
 863 1648 863 1648 838 1672 c 0,53,54
 778 1731 778 1731 703.5 1762 c 128,-1,55
 629 1793 629 1793 544 1793 c 0,56,57
 457 1793 457 1793 381.5 1760.5 c 128,-1,58
 306 1728 306 1728 249.5 1671.5 c 128,-1,59
 193 1615 193 1615 160.5 1539.5 c 128,-1,60
 128 1464 128 1464 128 1377 c 0,61,62
 128 1295 128 1295 160 1218 c 128,-1,63
 192 1141 192 1141 250 1083 c 2,64,-1
 1024 309 l 1,65,-1
 1798 1083 l 2,30,31
EndSplineSet
EndChar

StartChar: uniF008
Encoding: 61448 61448 10
Width: 2048
Flags: W
LayerCount: 2
Fore
SplineSet
1889 1761 m 0,0,1
 1942 1708 1942 1708 1977.5 1645 c 128,-1,2
 2013 1582 2013 1582 2030.5 1514 c 128,-1,3
 2048 1446 2048 1446 2048 1375.5 c 128,-1,4
 2048 1305 2048 1305 2030.5 1237.5 c 128,-1,5
 2013 1170 2013 1170 1977.5 1107 c 128,-1,6
 1942 1044 1942 1044 1889 991 c 2,7,-1
 1024 127 l 1,8,-1
 159 991 l 2,9,10
 106 1044 106 1044 70.5 1107 c 128,-1,11
 35 1170 35 1170 17.5 1237.5 c 128,-1,12
 0 1305 0 1305 0 1375.5 c 128,-1,13
 0 1446 0 1446 17.5 1514 c 128,-1,14
 35 1582 35 1582 70.5 1645 c 128,-1,15
 106 1708 106 1708 159 1761 c 0,16,17
 237 1838 237 1838 336 1879 c 128,-1,18
 435 1920 435 1920 544 1920 c 256,19,20
 653 1920 653 1920 752 1879 c 128,-1,21
 851 1838 851 1838 929 1761 c 2,22,-1
 1024 1665 l 1,23,-1
 1119 1761 l 2,24,25
 1197 1838 1197 1838 1296 1879 c 128,-1,26
 1395 1920 1395 1920 1504 1920 c 256,27,28
 1613 1920 1613 1920 1712 1879 c 128,-1,29
 1811 1838 1811 1838 1889 1761 c 0,0,1
EndSplineSet
EndChar

StartChar: uniF009
Encoding: 61449 61449 11
Width: 2048
Flags: W
LayerCount: 2
Fore
SplineSet
1505 1920 m 0,0,1
 1580 1920 1580 1920 1649.5 1900.5 c 128,-1,2
 1719 1881 1719 1881 1779 1846 c 128,-1,3
 1839 1811 1839 1811 1889 1761 c 128,-1,4
 1939 1711 1939 1711 1974 1651 c 128,-1,5
 2009 1591 2009 1591 2028.5 1521.5 c 128,-1,6
 2048 1452 2048 1452 2048 1377 c 0,7,8
 2048 1269 2048 1269 2006.5 1169 c 128,-1,9
 1965 1069 1965 1069 1889 993 c 2,10,-1
 1024 128 l 1,11,-1
 159 993 l 2,12,13
 83 1069 83 1069 41.5 1169 c 128,-1,14
 0 1269 0 1269 0 1377 c 0,15,16
 0 1452 0 1452 19.5 1521.5 c 128,-1,17
 39 1591 39 1591 74 1651 c 128,-1,18
 109 1711 109 1711 159 1761 c 128,-1,19
 209 1811 209 1811 269 1846 c 128,-1,20
 329 1881 329 1881 398.5 1900.5 c 128,-1,21
 468 1920 468 1920 543 1920 c 0,22,23
 652 1920 652 1920 754.5 1877 c 128,-1,24
 857 1834 857 1834 933 1755 c 1,25,-1
 651 1472 l 1,26,-1
 1099 1024 l 1,27,-1
 805 731 l 1,28,-1
 896 640 l 1,29,-1
 1280 1024 l 1,30,-1
 832 1472 l 1,31,32
 881 1521 881 1521 929 1573.5 c 128,-1,33
 977 1626 977 1626 1026 1675.5 c 128,-1,34
 1075 1725 1075 1725 1128 1769.5 c 128,-1,35
 1181 1814 1181 1814 1239 1847.5 c 128,-1,36
 1297 1881 1297 1881 1363 1900.5 c 128,-1,37
 1429 1920 1429 1920 1505 1920 c 0,0,1
EndSplineSet
EndChar

StartChar: uniF00A
Encoding: 61450 61450 12
Width: 2048
Flags: W
LayerCount: 2
Fore
SplineSet
347 1024 m 1,0,-1
 308 1024 l 1,1,-1
 1024 308 l 1,2,-1
 1612 896 l 1,3,-1
 1793 896 l 1,4,-1
 1024 127 l 1,5,-1
 159 991 l 2,6,7
 124 1026 124 1026 97 1066.5 c 128,-1,8
 70 1107 70 1107 50 1152 c 1,9,-1
 293 1152 l 1,10,-1
 576 1434 l 1,11,-1
 1024 987 l 1,12,-1
 1344 1306 l 1,13,-1
 1499 1152 l 1,14,-1
 1854 1152 l 1,15,16
 1886 1203 1886 1203 1903 1260 c 128,-1,17
 1920 1317 1920 1317 1920 1377 c 0,18,19
 1920 1464 1920 1464 1887.5 1539 c 128,-1,20
 1855 1614 1855 1614 1798.5 1669.5 c 128,-1,21
 1742 1725 1742 1725 1666.5 1756.5 c 128,-1,22
 1591 1788 1591 1788 1504 1788 c 0,23,24
 1420 1788 1420 1788 1355 1761.5 c 128,-1,25
 1290 1735 1290 1735 1235 1692 c 128,-1,26
 1180 1649 1180 1649 1129.5 1594.5 c 128,-1,27
 1079 1540 1079 1540 1024 1484 c 1,28,29
 970 1538 970 1538 919 1593 c 128,-1,30
 868 1648 868 1648 812.5 1692 c 128,-1,31
 757 1736 757 1736 691.5 1764 c 128,-1,32
 626 1792 626 1792 544 1792 c 0,33,34
 458 1792 458 1792 382.5 1759.5 c 128,-1,35
 307 1727 307 1727 250.5 1670.5 c 128,-1,36
 194 1614 194 1614 161.5 1538.5 c 128,-1,37
 129 1463 129 1463 129 1377 c 0,38,39
 129 1330 129 1330 140 1280 c 1,40,-1
 9 1280 l 1,41,42
 4 1304 4 1304 2.5 1328 c 128,-1,43
 1 1352 1 1352 1 1376 c 0,44,45
 1 1489 1 1489 43.5 1588 c 128,-1,46
 86 1687 86 1687 159.5 1761 c 128,-1,47
 233 1835 233 1835 332 1877.5 c 128,-1,48
 431 1920 431 1920 544 1920 c 0,49,50
 627 1920 627 1920 692 1901 c 128,-1,51
 757 1882 757 1882 812.5 1848.5 c 128,-1,52
 868 1815 868 1815 918.5 1768 c 128,-1,53
 969 1721 969 1721 1024 1665 c 1,54,55
 1079 1721 1079 1721 1129.5 1768 c 128,-1,56
 1180 1815 1180 1815 1235.5 1848.5 c 128,-1,57
 1291 1882 1291 1882 1356 1901 c 128,-1,58
 1421 1920 1421 1920 1504 1920 c 0,59,60
 1616 1920 1616 1920 1715 1877.5 c 128,-1,61
 1814 1835 1814 1835 1887.5 1762 c 128,-1,62
 1961 1689 1961 1689 2003.5 1590 c 128,-1,63
 2046 1491 2046 1491 2046 1379 c 0,64,65
 2046 1282 2046 1282 2012 1190.5 c 128,-1,66
 1978 1099 1978 1099 1915 1024 c 1,67,-1
 1445 1024 l 1,68,-1
 1344 1126 l 1,69,-1
 1024 805 l 1,70,-1
 576 1254 l 1,71,-1
 347 1024 l 1,0,-1
EndSplineSet
EndChar

StartChar: uniF00B
Encoding: 61451 61451 13
Width: 2048
Flags: W
LayerCount: 2
Fore
SplineSet
2048 1713 m 0,0,1
 2048 1647 2048 1647 2023 1585 c 128,-1,2
 1998 1523 1998 1523 1950 1475 c 2,3,-1
 633 158 l 1,4,-1
 0 0 l 1,5,-1
 158 633 l 1,6,-1
 1475 1950 l 2,7,8
 1523 1998 1523 1998 1585 2023 c 128,-1,9
 1647 2048 1647 2048 1713 2048 c 0,10,11
 1782 2048 1782 2048 1843 2021.5 c 128,-1,12
 1904 1995 1904 1995 1949.5 1949.5 c 128,-1,13
 1995 1904 1995 1904 2021.5 1843 c 128,-1,14
 2048 1782 2048 1782 2048 1713 c 0,0,1
326 620 m 1,15,16
 432 585 432 585 508.5 508.5 c 128,-1,17
 585 432 585 432 620 326 c 1,18,-1
 1701 1408 l 1,19,-1
 1408 1701 l 1,20,-1
 326 620 l 1,15,16
176 176 m 1,21,-1
 505 258 l 1,22,23
 495 304 495 304 472.5 345 c 128,-1,24
 450 386 450 386 418 418 c 128,-1,25
 386 450 386 450 345 472.5 c 128,-1,26
 304 495 304 495 258 505 c 1,27,-1
 176 176 l 1,21,-1
1792 1499 m 1,28,29
 1817 1524 1817 1524 1840 1546 c 128,-1,30
 1863 1568 1863 1568 1881 1592.5 c 128,-1,31
 1899 1617 1899 1617 1909.5 1645.5 c 128,-1,32
 1920 1674 1920 1674 1920 1712 c 0,33,34
 1920 1755 1920 1755 1903.5 1792.5 c 128,-1,35
 1887 1830 1887 1830 1858.5 1858.5 c 128,-1,36
 1830 1887 1830 1887 1792.5 1903.5 c 128,-1,37
 1755 1920 1755 1920 1712 1920 c 0,38,39
 1674 1920 1674 1920 1645.5 1909.5 c 128,-1,40
 1617 1899 1617 1899 1592.5 1881 c 128,-1,41
 1568 1863 1568 1863 1546 1840 c 128,-1,42
 1524 1817 1524 1817 1499 1792 c 1,43,-1
 1792 1499 l 1,28,29
EndSplineSet
EndChar

StartChar: uniF00C
Encoding: 61452 61452 14
Width: 2048
Flags: W
LayerCount: 2
Fore
SplineSet
1792 1920 m 2,0,1
 1819 1920 1819 1920 1842 1910 c 128,-1,2
 1865 1900 1865 1900 1882.5 1882.5 c 128,-1,3
 1900 1865 1900 1865 1910 1842 c 128,-1,4
 1920 1819 1920 1819 1920 1792 c 2,5,-1
 1920 128 l 1,6,-1
 357 128 l 1,7,-1
 128 358 l 1,8,-1
 128 1792 l 2,9,10
 128 1819 128 1819 138 1842 c 128,-1,11
 148 1865 148 1865 165.5 1882.5 c 128,-1,12
 183 1900 183 1900 206 1910 c 128,-1,13
 229 1920 229 1920 256 1920 c 2,14,-1
 1792 1920 l 2,0,1
512 1152 m 1,15,-1
 1536 1152 l 1,16,-1
 1536 1792 l 1,17,-1
 512 1792 l 1,18,-1
 512 1152 l 1,15,-1
1280 640 m 1,19,-1
 640 640 l 1,20,-1
 640 256 l 1,21,-1
 768 256 l 1,22,-1
 768 512 l 1,23,-1
 896 512 l 1,24,-1
 896 256 l 1,25,-1
 1280 256 l 1,26,-1
 1280 640 l 1,19,-1
1792 1792 m 1,27,-1
 1664 1792 l 1,28,-1
 1664 1024 l 1,29,-1
 384 1024 l 1,30,-1
 384 1792 l 1,31,-1
 256 1792 l 1,32,-1
 256 411 l 1,33,-1
 410 256 l 1,34,-1
 512 256 l 1,35,-1
 512 768 l 1,36,-1
 1408 768 l 1,37,-1
 1408 256 l 1,38,-1
 1792 256 l 1,39,-1
 1792 1792 l 1,27,-1
EndSplineSet
EndChar

StartChar: uniF00D
Encoding: 61453 61453 15
Width: 2048
Flags: W
LayerCount: 2
Fore
SplineSet
1792 1664 m 1,0,-1
 1664 1664 l 1,1,-1
 1664 192 l 2,2,3
 1664 152 1664 152 1649 117 c 128,-1,4
 1634 82 1634 82 1608 56 c 128,-1,5
 1582 30 1582 30 1547 15 c 128,-1,6
 1512 0 1512 0 1472 0 c 2,7,-1
 448 0 l 2,8,9
 408 0 408 0 373 15 c 128,-1,10
 338 30 338 30 312 56 c 128,-1,11
 286 82 286 82 271 117 c 128,-1,12
 256 152 256 152 256 192 c 2,13,-1
 256 1664 l 1,14,-1
 128 1664 l 1,15,-1
 128 1792 l 1,16,-1
 640 1792 l 1,17,-1
 640 1920 l 2,18,19
 640 1947 640 1947 650 1970 c 128,-1,20
 660 1993 660 1993 677.5 2010.5 c 128,-1,21
 695 2028 695 2028 718 2038 c 128,-1,22
 741 2048 741 2048 768 2048 c 2,23,-1
 1152 2048 l 2,24,25
 1179 2048 1179 2048 1202 2038 c 128,-1,26
 1225 2028 1225 2028 1242.5 2010.5 c 128,-1,27
 1260 1993 1260 1993 1270 1970 c 128,-1,28
 1280 1947 1280 1947 1280 1920 c 2,29,-1
 1280 1792 l 1,30,-1
 1792 1792 l 1,31,-1
 1792 1664 l 1,0,-1
768 1792 m 1,32,-1
 1152 1792 l 1,33,-1
 1152 1920 l 1,34,-1
 768 1920 l 1,35,-1
 768 1792 l 1,32,-1
1536 1664 m 1,36,-1
 384 1664 l 1,37,-1
 384 192 l 2,38,39
 384 166 384 166 403 147 c 128,-1,40
 422 128 422 128 448 128 c 2,41,-1
 1472 128 l 2,42,43
 1498 128 1498 128 1517 147 c 128,-1,44
 1536 166 1536 166 1536 192 c 2,45,-1
 1536 1664 l 1,36,-1
768 384 m 1,46,-1
 640 384 l 1,47,-1
 640 1408 l 1,48,-1
 768 1408 l 1,49,-1
 768 384 l 1,46,-1
1024 384 m 1,50,-1
 896 384 l 1,51,-1
 896 1408 l 1,52,-1
 1024 1408 l 1,53,-1
 1024 384 l 1,50,-1
1280 384 m 1,54,-1
 1152 384 l 1,55,-1
 1152 1408 l 1,56,-1
 1280 1408 l 1,57,-1
 1280 384 l 1,54,-1
EndSplineSet
EndChar

StartChar: uniF00E
Encoding: 61454 61454 16
Width: 2048
Flags: W
LayerCount: 2
Fore
SplineSet
1371 1664 m 1,0,-1
 1920 1115 l 1,1,-1
 1920 0 l 1,2,-1
 640 0 l 1,3,-1
 640 384 l 1,4,-1
 128 384 l 1,5,-1
 128 2048 l 1,6,-1
 859 2048 l 1,7,-1
 1243 1664 l 1,8,-1
 1371 1664 l 1,0,-1
1408 1445 m 1,9,-1
 1408 1152 l 1,10,-1
 1701 1152 l 1,11,-1
 1408 1445 l 1,9,-1
256 512 m 1,12,-1
 640 512 l 1,13,-1
 640 1664 l 1,14,-1
 1061 1664 l 1,15,-1
 805 1920 l 1,16,-1
 256 1920 l 1,17,-1
 256 512 l 1,12,-1
768 128 m 1,18,-1
 1792 128 l 1,19,-1
 1792 1024 l 1,20,-1
 1280 1024 l 1,21,-1
 1280 1536 l 1,22,-1
 768 1536 l 1,23,-1
 768 128 l 1,18,-1
EndSplineSet
EndChar

StartChar: uniF00F
Encoding: 61455 61455 17
Width: 2048
Flags: W
LayerCount: 2
Fore
SplineSet
1416 512 m 1,0,1
 1467 510 1467 510 1512.5 489.5 c 128,-1,2
 1558 469 1558 469 1591.5 434 c 128,-1,3
 1625 399 1625 399 1644.5 353 c 128,-1,4
 1664 307 1664 307 1664 256 c 0,5,6
 1664 203 1664 203 1643.5 156.5 c 128,-1,7
 1623 110 1623 110 1588.5 75.5 c 128,-1,8
 1554 41 1554 41 1507 20.5 c 128,-1,9
 1460 0 1460 0 1408 0 c 0,10,11
 1355 0 1355 0 1308.5 20.5 c 128,-1,12
 1262 41 1262 41 1227.5 75.5 c 128,-1,13
 1193 110 1193 110 1172.5 156.5 c 128,-1,14
 1152 203 1152 203 1152 256 c 0,15,16
 1152 327 1152 327 1188.5 388 c 128,-1,17
 1225 449 1225 449 1288 482 c 1,18,-1
 1022 1013 l 1,19,-1
 757 484 l 1,20,21
 789 467 789 467 814.5 443 c 128,-1,22
 840 419 840 419 858 389 c 128,-1,23
 876 359 876 359 886 325.5 c 128,-1,24
 896 292 896 292 896 256 c 0,25,26
 896 203 896 203 875.5 156.5 c 128,-1,27
 855 110 855 110 820.5 75.5 c 128,-1,28
 786 41 786 41 739 20.5 c 128,-1,29
 692 0 692 0 640 0 c 0,30,31
 587 0 587 0 540.5 20.5 c 128,-1,32
 494 41 494 41 459.5 75.5 c 128,-1,33
 425 110 425 110 404.5 156.5 c 128,-1,34
 384 203 384 203 384 256 c 0,35,36
 384 307 384 307 403 352.5 c 128,-1,37
 422 398 422 398 455 432.5 c 128,-1,38
 488 467 488 467 532.5 488 c 128,-1,39
 577 509 577 509 628 512 c 1,40,-1
 950 1158 l 1,41,-1
 611 1836 l 1,42,-1
 669 2011 l 1,43,-1
 1022 1303 l 1,44,-1
 1375 2011 l 1,45,-1
 1433 1836 l 1,46,-1
 1094 1158 l 1,47,-1
 1416 512 l 1,0,1
640 128 m 256,48,49
 667 128 667 128 690 138 c 128,-1,50
 713 148 713 148 730.5 165.5 c 128,-1,51
 748 183 748 183 758 206 c 128,-1,52
 768 229 768 229 768 256 c 256,53,54
 768 283 768 283 758 306 c 128,-1,55
 748 329 748 329 730.5 346.5 c 128,-1,56
 713 364 713 364 690 374 c 128,-1,57
 667 384 667 384 640 384 c 256,58,59
 613 384 613 384 590 374 c 128,-1,60
 567 364 567 364 549.5 346.5 c 128,-1,61
 532 329 532 329 522 306 c 128,-1,62
 512 283 512 283 512 256 c 256,63,64
 512 229 512 229 522 206 c 128,-1,65
 532 183 532 183 549.5 165.5 c 128,-1,66
 567 148 567 148 590 138 c 128,-1,67
 613 128 613 128 640 128 c 256,48,49
1408 128 m 256,68,69
 1435 128 1435 128 1458 138 c 128,-1,70
 1481 148 1481 148 1498.5 165.5 c 128,-1,71
 1516 183 1516 183 1526 206 c 128,-1,72
 1536 229 1536 229 1536 256 c 256,73,74
 1536 283 1536 283 1526 306 c 128,-1,75
 1516 329 1516 329 1498.5 346.5 c 128,-1,76
 1481 364 1481 364 1458 374 c 128,-1,77
 1435 384 1435 384 1408 384 c 256,78,79
 1381 384 1381 384 1358 374 c 128,-1,80
 1335 364 1335 364 1317.5 346.5 c 128,-1,81
 1300 329 1300 329 1290 306 c 128,-1,82
 1280 283 1280 283 1280 256 c 256,83,84
 1280 229 1280 229 1290 206 c 128,-1,85
 1300 183 1300 183 1317.5 165.5 c 128,-1,86
 1335 148 1335 148 1358 138 c 128,-1,87
 1381 128 1381 128 1408 128 c 256,68,69
EndSplineSet
EndChar

StartChar: uniF010
Encoding: 61456 61456 18
Width: 2048
Flags: W
LayerCount: 2
Fore
SplineSet
1783 126 m 5,0,-1
 1476 126 l 5,1,-1
 1176 127 l 5,2,-1
 1015 128 l 5,3,-1
 247 128 l 5,4,-1
 247 1792 l 5,5,-1
 759 1792 l 5,6,7
 759 1844 759 1844 779.5 1891 c 132,-1,8
 800 1938 800 1938 834.5 1972.5 c 132,-1,9
 869 2007 869 2007 915.5 2027.5 c 132,-1,10
 962 2048 962 2048 1015 2048 c 4,11,12
 1067 2048 1067 2048 1114 2027.5 c 132,-1,13
 1161 2007 1161 2007 1195.5 1972.5 c 132,-1,14
 1230 1938 1230 1938 1250.5 1891 c 132,-1,15
 1271 1844 1271 1844 1271 1792 c 5,16,-1
 1783 1792 l 5,17,-1
 1783 1280 l 5,18,-1
 1783 126 l 5,0,-1
631 1664 m 5,19,-1
 631 1536 l 5,20,-1
 1399 1536 l 5,21,-1
 1399 1664 l 5,22,-1
 1143 1664 l 5,23,24
 1143 1689 1143 1689 1144 1717.5 c 132,-1,25
 1145 1746 1145 1746 1143 1774.5 c 132,-1,26
 1141 1803 1141 1803 1134.5 1829.5 c 132,-1,27
 1128 1856 1128 1856 1114 1876 c 132,-1,28
 1100 1896 1100 1896 1076 1908 c 132,-1,29
 1052 1920 1052 1920 1015 1920 c 4,30,31
 959 1920 959 1920 932.5 1894 c 132,-1,32
 906 1868 906 1868 895.5 1829.5 c 132,-1,33
 885 1791 885 1791 886 1746 c 132,-1,34
 887 1701 887 1701 887 1664 c 5,35,-1
 631 1664 l 5,19,-1
1015 256 m 5,36,-1
 1657 255 l 5,37,-1
 1655 1280 l 5,38,-1
 1655 1664 l 5,39,-1
 1527 1664 l 5,40,-1
 1527 1408 l 5,41,-1
 503 1408 l 5,42,-1
 503 1664 l 5,43,-1
 375 1664 l 5,44,-1
 375 256 l 5,45,-1
 1015 256 l 5,36,-1
EndSplineSet
EndChar

StartChar: uniF011
Encoding: 61457 61457 19
Width: 2048
Flags: W
LayerCount: 2
Fore
SplineSet
1920 1280 m 1,0,-1
 1920 0 l 1,1,-1
 896 0 l 1,2,-1
 896 128 l 1,3,-1
 128 128 l 1,4,-1
 128 1792 l 1,5,-1
 640 1792 l 1,6,7
 640 1844 640 1844 660.5 1891 c 128,-1,8
 681 1938 681 1938 715.5 1972.5 c 128,-1,9
 750 2007 750 2007 796.5 2027.5 c 128,-1,10
 843 2048 843 2048 896 2048 c 0,11,12
 948 2048 948 2048 995 2027.5 c 128,-1,13
 1042 2007 1042 2007 1076.5 1972.5 c 128,-1,14
 1111 1938 1111 1938 1131.5 1891 c 128,-1,15
 1152 1844 1152 1844 1152 1792 c 1,16,-1
 1664 1792 l 1,17,-1
 1664 1280 l 1,18,-1
 1920 1280 l 1,0,-1
512 1664 m 1,19,-1
 512 1536 l 1,20,-1
 1280 1536 l 1,21,-1
 1280 1664 l 1,22,-1
 1024 1664 l 1,23,24
 1024 1689 1024 1689 1025 1717.5 c 128,-1,25
 1026 1746 1026 1746 1024 1774.5 c 128,-1,26
 1022 1803 1022 1803 1015.5 1829.5 c 128,-1,27
 1009 1856 1009 1856 995 1876 c 128,-1,28
 981 1896 981 1896 957 1908 c 128,-1,29
 933 1920 933 1920 896 1920 c 0,30,31
 840 1920 840 1920 813.5 1894 c 128,-1,32
 787 1868 787 1868 776.5 1829.5 c 128,-1,33
 766 1791 766 1791 767 1746 c 128,-1,34
 768 1701 768 1701 768 1664 c 1,35,-1
 512 1664 l 1,19,-1
896 256 m 1,36,-1
 896 1280 l 1,37,-1
 1536 1280 l 1,38,-1
 1536 1664 l 1,39,-1
 1408 1664 l 1,40,-1
 1408 1408 l 1,41,-1
 384 1408 l 1,42,-1
 384 1664 l 1,43,-1
 256 1664 l 1,44,-1
 256 256 l 1,45,-1
 896 256 l 1,36,-1
1792 1152 m 1,46,-1
 1024 1152 l 1,47,-1
 1024 128 l 1,48,-1
 1792 128 l 1,49,-1
 1792 1152 l 1,46,-1
EndSplineSet
EndChar

StartChar: uniF012
Encoding: 61458 61458 20
Width: 2048
Flags: W
LayerCount: 2
Fore
SplineSet
0 1920 m 1,0,-1
 2048 1920 l 1,1,-1
 2048 1701 l 1,2,-1
 1280 933 l 1,3,-1
 1280 128 l 1,4,-1
 768 128 l 1,5,-1
 768 933 l 1,6,-1
 0 1701 l 1,7,-1
 0 1920 l 1,0,-1
1920 1755 m 1,8,-1
 1920 1792 l 1,9,-1
 128 1792 l 1,10,-1
 128 1755 l 1,11,-1
 896 987 l 1,12,-1
 896 256 l 1,13,-1
 1152 256 l 1,14,-1
 1152 987 l 1,15,-1
 1920 1755 l 1,8,-1
EndSplineSet
EndChar

StartChar: uniF013
Encoding: 61459 61459 21
Width: 2048
Flags: W
LayerCount: 2
Fore
SplineSet
1536 1664 m 1,0,-1
 1536 448 l 2,1,2
 1536 355 1536 355 1500.5 273.5 c 128,-1,3
 1465 192 1465 192 1404.5 131.5 c 128,-1,4
 1344 71 1344 71 1262.5 35.5 c 128,-1,5
 1181 0 1181 0 1088 0 c 256,6,7
 995 0 995 0 913.5 35.5 c 128,-1,8
 832 71 832 71 771.5 131.5 c 128,-1,9
 711 192 711 192 675.5 273.5 c 128,-1,10
 640 355 640 355 640 448 c 2,11,-1
 640 1728 l 2,12,13
 640 1794 640 1794 665.5 1852 c 128,-1,14
 691 1910 691 1910 734.5 1953.5 c 128,-1,15
 778 1997 778 1997 836 2022.5 c 128,-1,16
 894 2048 894 2048 960 2048 c 256,17,18
 1026 2048 1026 2048 1084 2022.5 c 128,-1,19
 1142 1997 1142 1997 1185.5 1953.5 c 128,-1,20
 1229 1910 1229 1910 1254.5 1852 c 128,-1,21
 1280 1794 1280 1794 1280 1728 c 2,22,-1
 1280 448 l 2,23,24
 1280 408 1280 408 1265 373 c 128,-1,25
 1250 338 1250 338 1224 312 c 128,-1,26
 1198 286 1198 286 1163 271 c 128,-1,27
 1128 256 1128 256 1088 256 c 256,28,29
 1048 256 1048 256 1013 271 c 128,-1,30
 978 286 978 286 952 312 c 128,-1,31
 926 338 926 338 911 373 c 128,-1,32
 896 408 896 408 896 448 c 2,33,-1
 896 1536 l 1,34,-1
 1024 1536 l 1,35,-1
 1024 448 l 2,36,37
 1024 422 1024 422 1043 403 c 128,-1,38
 1062 384 1062 384 1088 384 c 256,39,40
 1114 384 1114 384 1133 403 c 128,-1,41
 1152 422 1152 422 1152 448 c 2,42,-1
 1152 1728 l 2,43,44
 1152 1768 1152 1768 1137 1803 c 128,-1,45
 1122 1838 1122 1838 1096 1864 c 128,-1,46
 1070 1890 1070 1890 1035 1905 c 128,-1,47
 1000 1920 1000 1920 960 1920 c 256,48,49
 920 1920 920 1920 885 1905 c 128,-1,50
 850 1890 850 1890 824 1864 c 128,-1,51
 798 1838 798 1838 783 1803 c 128,-1,52
 768 1768 768 1768 768 1728 c 2,53,-1
 768 448 l 2,54,55
 768 382 768 382 793.5 324 c 128,-1,56
 819 266 819 266 862.5 222.5 c 128,-1,57
 906 179 906 179 964 153.5 c 128,-1,58
 1022 128 1022 128 1088 128 c 256,59,60
 1154 128 1154 128 1212 153.5 c 128,-1,61
 1270 179 1270 179 1313.5 222.5 c 128,-1,62
 1357 266 1357 266 1382.5 324 c 128,-1,63
 1408 382 1408 382 1408 448 c 2,64,-1
 1408 1664 l 1,65,-1
 1536 1664 l 1,0,-1
EndSplineSet
EndChar

StartChar: uniF014
Encoding: 61460 61460 22
Width: 2048
Flags: W
LayerCount: 2
Fore
SplineSet
2048 1792 m 1,0,-1
 2048 256 l 1,1,-1
 0 256 l 1,2,-1
 0 1792 l 1,3,-1
 2048 1792 l 1,0,-1
128 1664 m 1,4,-1
 128 987 l 1,5,-1
 576 1434 l 1,6,-1
 1216 794 l 1,7,-1
 1472 1050 l 1,8,-1
 1920 603 l 1,9,-1
 1920 1664 l 1,10,-1
 128 1664 l 1,4,-1
128 384 m 1,11,-1
 1445 384 l 1,12,-1
 576 1254 l 1,13,-1
 128 805 l 1,14,-1
 128 384 l 1,11,-1
1920 384 m 1,15,-1
 1920 421 l 1,16,-1
 1472 870 l 1,17,-1
 1306 704 l 1,18,-1
 1627 384 l 1,19,-1
 1920 384 l 1,15,-1
1600 1280 m 256,20,21
 1574 1280 1574 1280 1555 1299 c 128,-1,22
 1536 1318 1536 1318 1536 1344 c 256,23,24
 1536 1370 1536 1370 1555 1389 c 128,-1,25
 1574 1408 1574 1408 1600 1408 c 256,26,27
 1626 1408 1626 1408 1645 1389 c 128,-1,28
 1664 1370 1664 1370 1664 1344 c 256,29,30
 1664 1318 1664 1318 1645 1299 c 128,-1,31
 1626 1280 1626 1280 1600 1280 c 256,20,21
EndSplineSet
EndChar

StartChar: uniF015
Encoding: 61461 61461 23
Width: 2048
Flags: W
LayerCount: 2
Fore
SplineSet
1536 1280 m 1,0,-1
 1536 1152 l 1,1,2
 1612 1152 1612 1152 1681.5 1134.5 c 128,-1,3
 1751 1117 1751 1117 1804 1078.5 c 128,-1,4
 1857 1040 1857 1040 1888.5 979.5 c 128,-1,5
 1920 919 1920 919 1920 832 c 0,6,7
 1920 766 1920 766 1894.5 708 c 128,-1,8
 1869 650 1869 650 1825.5 606.5 c 128,-1,9
 1782 563 1782 563 1724 537.5 c 128,-1,10
 1666 512 1666 512 1600 512 c 2,11,-1
 1088 512 l 2,12,13
 1022 512 1022 512 964 537.5 c 128,-1,14
 906 563 906 563 862.5 606.5 c 128,-1,15
 819 650 819 650 793.5 708 c 128,-1,16
 768 766 768 766 768 832 c 0,17,18
 768 919 768 919 799.5 979.5 c 128,-1,19
 831 1040 831 1040 884 1078.5 c 128,-1,20
 937 1117 937 1117 1006.5 1134.5 c 128,-1,21
 1076 1152 1076 1152 1152 1152 c 1,22,-1
 1152 1280 l 1,23,-1
 1088 1280 l 2,24,25
 995 1280 995 1280 913.5 1244.5 c 128,-1,26
 832 1209 832 1209 771.5 1148.5 c 128,-1,27
 711 1088 711 1088 675.5 1006.5 c 128,-1,28
 640 925 640 925 640 832 c 256,29,30
 640 739 640 739 675.5 657.5 c 128,-1,31
 711 576 711 576 771.5 515.5 c 128,-1,32
 832 455 832 455 913.5 419.5 c 128,-1,33
 995 384 995 384 1088 384 c 2,34,-1
 1600 384 l 2,35,36
 1693 384 1693 384 1774.5 419.5 c 128,-1,37
 1856 455 1856 455 1916.5 515.5 c 128,-1,38
 1977 576 1977 576 2012.5 657.5 c 128,-1,39
 2048 739 2048 739 2048 832 c 256,40,41
 2048 925 2048 925 2012.5 1006.5 c 128,-1,42
 1977 1088 1977 1088 1916.5 1148.5 c 128,-1,43
 1856 1209 1856 1209 1774.5 1244.5 c 128,-1,44
 1693 1280 1693 1280 1600 1280 c 2,45,-1
 1536 1280 l 1,0,-1
896 768 m 1,46,-1
 896 896 l 1,47,48
 972 896 972 896 1041.5 913.5 c 128,-1,49
 1111 931 1111 931 1164 969.5 c 128,-1,50
 1217 1008 1217 1008 1248.5 1068.5 c 128,-1,51
 1280 1129 1280 1129 1280 1216 c 0,52,53
 1280 1282 1280 1282 1254.5 1340 c 128,-1,54
 1229 1398 1229 1398 1185.5 1441.5 c 128,-1,55
 1142 1485 1142 1485 1084 1510.5 c 128,-1,56
 1026 1536 1026 1536 960 1536 c 2,57,-1
 448 1536 l 2,58,59
 382 1536 382 1536 324 1510.5 c 128,-1,60
 266 1485 266 1485 222.5 1441.5 c 128,-1,61
 179 1398 179 1398 153.5 1340 c 128,-1,62
 128 1282 128 1282 128 1216 c 0,63,64
 128 1129 128 1129 159.5 1068.5 c 128,-1,65
 191 1008 191 1008 244 969.5 c 128,-1,66
 297 931 297 931 366.5 913.5 c 128,-1,67
 436 896 436 896 512 896 c 1,68,-1
 512 768 l 1,69,-1
 448 768 l 2,70,71
 355 768 355 768 273.5 803.5 c 128,-1,72
 192 839 192 839 131.5 899.5 c 128,-1,73
 71 960 71 960 35.5 1041.5 c 128,-1,74
 0 1123 0 1123 0 1216 c 256,75,76
 0 1309 0 1309 35.5 1390.5 c 128,-1,77
 71 1472 71 1472 131.5 1532.5 c 128,-1,78
 192 1593 192 1593 273.5 1628.5 c 128,-1,79
 355 1664 355 1664 448 1664 c 2,80,-1
 960 1664 l 2,81,82
 1053 1664 1053 1664 1134.5 1628.5 c 128,-1,83
 1216 1593 1216 1593 1276.5 1532.5 c 128,-1,84
 1337 1472 1337 1472 1372.5 1390.5 c 128,-1,85
 1408 1309 1408 1309 1408 1216 c 256,86,87
 1408 1123 1408 1123 1372.5 1041.5 c 128,-1,88
 1337 960 1337 960 1276.5 899.5 c 128,-1,89
 1216 839 1216 839 1134.5 803.5 c 128,-1,90
 1053 768 1053 768 960 768 c 2,91,-1
 896 768 l 1,46,-1
EndSplineSet
EndChar

StartChar: uniF016
Encoding: 61462 61462 24
Width: 2048
Flags: W
LayerCount: 2
Fore
SplineSet
1024 1882 m 1,0,-1
 1965 941 l 1,1,-1
 1875 851 l 1,2,-1
 1792 933 l 1,3,-1
 1792 128 l 1,4,-1
 1280 128 l 1,5,-1
 1280 768 l 1,6,-1
 768 768 l 1,7,-1
 768 128 l 1,8,-1
 256 128 l 1,9,-1
 256 933 l 1,10,-1
 173 851 l 1,11,-1
 83 941 l 1,12,-1
 1024 1882 l 1,13,-1
 1024 1882 l 1,0,-1
EndSplineSet
EndChar

StartChar: uniF017
Encoding: 61463 61463 25
Width: 2048
Flags: W
LayerCount: 2
Fore
SplineSet
1024 1883 m 1,0,-1
 1965 941 l 1,1,-1
 1875 851 l 1,2,-1
 1792 933 l 1,3,-1
 1792 128 l 1,4,-1
 1152 128 l 1,5,-1
 1152 768 l 1,6,-1
 896 768 l 1,7,-1
 896 128 l 1,8,-1
 256 128 l 1,9,-1
 256 933 l 1,10,-1
 173 851 l 1,11,-1
 83 941 l 1,12,-1
 1024 1883 l 1,0,-1
1664 256 m 1,13,-1
 1664 1061 l 1,14,-1
 1024 1701 l 1,15,-1
 384 1061 l 1,16,-1
 384 256 l 1,17,-1
 768 256 l 1,18,-1
 768 896 l 1,19,-1
 1280 896 l 1,20,-1
 1280 256 l 1,21,-1
 1664 256 l 1,13,-1
EndSplineSet
EndChar

StartChar: uniF018
Encoding: 61464 61464 26
Width: 2048
Flags: W
LayerCount: 2
Fore
SplineSet
1344 2048 m 256,0,1
 1441 2048 1441 2048 1531 2023 c 128,-1,2
 1621 1998 1621 1998 1699 1952 c 128,-1,3
 1777 1906 1777 1906 1841.5 1841.5 c 128,-1,4
 1906 1777 1906 1777 1952 1699 c 128,-1,5
 1998 1621 1998 1621 2023 1531 c 128,-1,6
 2048 1441 2048 1441 2048 1344 c 256,7,8
 2048 1247 2048 1247 2023 1157 c 128,-1,9
 1998 1067 1998 1067 1952 989 c 128,-1,10
 1906 911 1906 911 1841.5 846.5 c 128,-1,11
 1777 782 1777 782 1699 736 c 128,-1,12
 1621 690 1621 690 1531 665 c 128,-1,13
 1441 640 1441 640 1344 640 c 0,14,15
 1219 640 1219 640 1104.5 682 c 128,-1,16
 990 724 990 724 894 803 c 1,17,-1
 109 19 l 2,18,19
 90 0 90 0 64 0 c 256,20,21
 38 0 38 0 19 19 c 128,-1,22
 0 38 0 38 0 64 c 256,23,24
 0 90 0 90 19 109 c 2,25,-1
 803 894 l 1,26,27
 724 990 724 990 682 1104.5 c 128,-1,28
 640 1219 640 1219 640 1344 c 0,29,30
 640 1441 640 1441 665 1531 c 128,-1,31
 690 1621 690 1621 736 1699 c 128,-1,32
 782 1777 782 1777 846.5 1841.5 c 128,-1,33
 911 1906 911 1906 989 1952 c 128,-1,34
 1067 1998 1067 1998 1157 2023 c 128,-1,35
 1247 2048 1247 2048 1344 2048 c 256,0,1
1344 768 m 256,36,37
 1463 768 1463 768 1568 813.5 c 128,-1,38
 1673 859 1673 859 1751 937 c 128,-1,39
 1829 1015 1829 1015 1874.5 1120 c 128,-1,40
 1920 1225 1920 1225 1920 1344 c 256,41,42
 1920 1463 1920 1463 1874.5 1568 c 128,-1,43
 1829 1673 1829 1673 1751 1751 c 128,-1,44
 1673 1829 1673 1829 1568 1874.5 c 128,-1,45
 1463 1920 1463 1920 1344 1920 c 256,46,47
 1225 1920 1225 1920 1120 1874.5 c 128,-1,48
 1015 1829 1015 1829 937 1751 c 128,-1,49
 859 1673 859 1673 813.5 1568 c 128,-1,50
 768 1463 768 1463 768 1344 c 256,51,52
 768 1225 768 1225 813.5 1120 c 128,-1,53
 859 1015 859 1015 937 937 c 128,-1,54
 1015 859 1015 859 1120 813.5 c 128,-1,55
 1225 768 1225 768 1344 768 c 256,36,37
EndSplineSet
EndChar

StartChar: uniF019
Encoding: 61465 61465 27
Width: 2048
Flags: W
LayerCount: 2
Fore
SplineSet
1783 1060 m 1,0,1
 1783 1051 1783 1051 1783.5 1042 c 128,-1,2
 1784 1033 1784 1033 1784 1024 c 256,3,4
 1784 1015 1784 1015 1783.5 1006 c 128,-1,5
 1783 997 1783 997 1783 988 c 1,6,-1
 2042 827 l 1,7,-1
 1883 444 l 1,8,-1
 1586 512 l 1,9,10
 1562 486 1562 486 1536 462 c 1,11,-1
 1604 165 l 1,12,-1
 1221 6 l 1,13,-1
 1060 265 l 1,14,15
 1051 265 1051 265 1042 264.5 c 128,-1,16
 1033 264 1033 264 1024 264 c 256,17,18
 1015 264 1015 264 1006 264.5 c 128,-1,19
 997 265 997 265 988 265 c 1,20,-1
 827 6 l 1,21,-1
 444 165 l 1,22,-1
 512 462 l 1,23,24
 486 486 486 486 462 512 c 1,25,-1
 165 444 l 1,26,-1
 6 827 l 1,27,-1
 265 988 l 1,28,29
 265 997 265 997 264.5 1006 c 128,-1,30
 264 1015 264 1015 264 1024 c 256,31,32
 264 1033 264 1033 264.5 1042 c 128,-1,33
 265 1051 265 1051 265 1060 c 1,34,-1
 6 1221 l 1,35,-1
 165 1604 l 1,36,-1
 462 1536 l 1,37,38
 486 1562 486 1562 512 1586 c 1,39,-1
 444 1883 l 1,40,-1
 827 2042 l 1,41,-1
 988 1783 l 1,42,43
 997 1783 997 1783 1006 1783.5 c 128,-1,44
 1015 1784 1015 1784 1024 1784 c 256,45,46
 1033 1784 1033 1784 1042 1783.5 c 128,-1,47
 1051 1783 1051 1783 1060 1783 c 1,48,-1
 1221 2042 l 1,49,-1
 1604 1883 l 1,50,-1
 1536 1586 l 1,51,52
 1562 1562 1562 1562 1586 1536 c 1,53,-1
 1883 1604 l 1,54,-1
 2042 1221 l 1,55,-1
 1783 1060 l 1,0,1
1666 930 m 1,56,57
 1668 954 1668 954 1670 977.5 c 128,-1,58
 1672 1001 1672 1001 1672 1025 c 0,59,60
 1672 1048 1672 1048 1670 1072 c 128,-1,61
 1668 1096 1668 1096 1666 1119 c 1,62,-1
 1902 1266 l 1,63,-1
 1816 1474 l 1,64,-1
 1545 1411 l 1,65,66
 1514 1449 1514 1449 1481.5 1481 c 128,-1,67
 1449 1513 1449 1513 1411 1545 c 1,68,-1
 1474 1816 l 1,69,-1
 1266 1902 l 1,70,-1
 1118 1666 l 1,71,72
 1095 1668 1095 1668 1071 1670 c 128,-1,73
 1047 1672 1047 1672 1024 1672 c 0,74,75
 1000 1672 1000 1672 976.5 1670 c 128,-1,76
 953 1668 953 1668 929 1666 c 1,77,-1
 782 1902 l 1,78,-1
 574 1816 l 1,79,-1
 637 1545 l 1,80,81
 599 1514 599 1514 567 1481.5 c 128,-1,82
 535 1449 535 1449 503 1411 c 1,83,-1
 232 1474 l 1,84,-1
 146 1266 l 1,85,-1
 382 1118 l 1,86,87
 380 1094 380 1094 378 1070.5 c 128,-1,88
 376 1047 376 1047 376 1023 c 0,89,90
 376 1000 376 1000 378 976 c 128,-1,91
 380 952 380 952 382 929 c 1,92,-1
 146 782 l 1,93,-1
 232 574 l 1,94,-1
 503 637 l 1,95,96
 534 599 534 599 566.5 567 c 128,-1,97
 599 535 599 535 637 503 c 1,98,-1
 574 232 l 1,99,-1
 782 146 l 1,100,-1
 930 382 l 1,101,102
 953 380 953 380 977 378 c 128,-1,103
 1001 376 1001 376 1024 376 c 0,104,105
 1048 376 1048 376 1071.5 378 c 128,-1,106
 1095 380 1095 380 1119 382 c 1,107,-1
 1266 146 l 1,108,-1
 1474 232 l 1,109,-1
 1411 503 l 1,110,111
 1449 534 1449 534 1481 566.5 c 128,-1,112
 1513 599 1513 599 1545 637 c 1,113,-1
 1816 574 l 1,114,-1
 1902 782 l 1,115,-1
 1666 930 l 1,56,57
1024 1400 m 256,116,117
 1102 1400 1102 1400 1170.5 1370.5 c 128,-1,118
 1239 1341 1239 1341 1290 1290 c 128,-1,119
 1341 1239 1341 1239 1370.5 1170.5 c 128,-1,120
 1400 1102 1400 1102 1400 1024 c 256,121,122
 1400 946 1400 946 1370.5 877.5 c 128,-1,123
 1341 809 1341 809 1290 758 c 128,-1,124
 1239 707 1239 707 1170.5 677.5 c 128,-1,125
 1102 648 1102 648 1024 648 c 256,126,127
 946 648 946 648 877.5 677.5 c 128,-1,128
 809 707 809 707 758 758 c 128,-1,129
 707 809 707 809 677.5 877.5 c 128,-1,130
 648 946 648 946 648 1024 c 256,131,132
 648 1102 648 1102 677.5 1170.5 c 128,-1,133
 707 1239 707 1239 758 1290 c 128,-1,134
 809 1341 809 1341 877.5 1370.5 c 128,-1,135
 946 1400 946 1400 1024 1400 c 256,116,117
1024 760 m 256,136,137
 1079 760 1079 760 1127 780.5 c 128,-1,138
 1175 801 1175 801 1211 837 c 128,-1,139
 1247 873 1247 873 1267.5 921 c 128,-1,140
 1288 969 1288 969 1288 1024 c 256,141,142
 1288 1079 1288 1079 1267.5 1127 c 128,-1,143
 1247 1175 1247 1175 1211 1211 c 128,-1,144
 1175 1247 1175 1247 1127 1267.5 c 128,-1,145
 1079 1288 1079 1288 1024 1288 c 256,146,147
 969 1288 969 1288 921 1267.5 c 128,-1,148
 873 1247 873 1247 837 1211 c 128,-1,149
 801 1175 801 1175 780.5 1127 c 128,-1,150
 760 1079 760 1079 760 1024 c 256,151,152
 760 969 760 969 780.5 921 c 128,-1,153
 801 873 801 873 837 837 c 128,-1,154
 873 801 873 801 921 780.5 c 128,-1,155
 969 760 969 760 1024 760 c 256,136,137
EndSplineSet
EndChar

StartChar: uniF01A
Encoding: 61466 61466 28
Width: 2048
Flags: W
LayerCount: 2
Fore
SplineSet
1930 1828 m 1,0,1
 1956 1783 1956 1783 1977.5 1742 c 128,-1,2
 1999 1701 1999 1701 2015 1659 c 128,-1,3
 2031 1617 2031 1617 2039.5 1571.5 c 128,-1,4
 2048 1526 2048 1526 2048 1472 c 0,5,6
 2048 1393 2048 1393 2027.5 1319.5 c 128,-1,7
 2007 1246 2007 1246 1969.5 1182 c 128,-1,8
 1932 1118 1932 1118 1879 1065 c 128,-1,9
 1826 1012 1826 1012 1762 974.5 c 128,-1,10
 1698 937 1698 937 1624.5 916.5 c 128,-1,11
 1551 896 1551 896 1472 896 c 0,12,13
 1449 896 1449 896 1425.5 898 c 128,-1,14
 1402 900 1402 900 1379 904 c 1,15,-1
 573 98 l 2,16,17
 525 50 525 50 463.5 25 c 128,-1,18
 402 0 402 0 335 0 c 0,19,20
 266 0 266 0 205 26.5 c 128,-1,21
 144 53 144 53 98.5 98.5 c 128,-1,22
 53 144 53 144 26.5 205 c 128,-1,23
 0 266 0 266 0 335 c 0,24,25
 0 402 0 402 25 463.5 c 128,-1,26
 50 525 50 525 98 573 c 2,27,-1
 904 1379 l 1,28,29
 900 1402 900 1402 898 1425.5 c 128,-1,30
 896 1449 896 1449 896 1472 c 0,31,32
 896 1551 896 1551 916.5 1624.5 c 128,-1,33
 937 1698 937 1698 974.5 1762 c 128,-1,34
 1012 1826 1012 1826 1065 1879 c 128,-1,35
 1118 1932 1118 1932 1182 1969.5 c 128,-1,36
 1246 2007 1246 2007 1319.5 2027.5 c 128,-1,37
 1393 2048 1393 2048 1472 2048 c 0,38,39
 1526 2048 1526 2048 1571.5 2039.5 c 128,-1,40
 1617 2031 1617 2031 1659 2015 c 128,-1,41
 1701 1999 1701 1999 1742 1977.5 c 128,-1,42
 1783 1956 1783 1956 1828 1930 c 1,43,-1
 1434 1536 l 1,44,-1
 1536 1434 l 1,45,-1
 1930 1828 l 1,0,1
1472 1024 m 0,46,47
 1565 1024 1565 1024 1646.5 1059.5 c 128,-1,48
 1728 1095 1728 1095 1788.5 1155.5 c 128,-1,49
 1849 1216 1849 1216 1884.5 1297.5 c 128,-1,50
 1920 1379 1920 1379 1920 1472 c 0,51,52
 1920 1545 1920 1545 1896 1613 c 1,53,-1
 1536 1254 l 1,54,-1
 1254 1536 l 1,55,-1
 1613 1896 l 1,56,57
 1545 1920 1545 1920 1472 1920 c 0,58,59
 1379 1920 1379 1920 1297.5 1884.5 c 128,-1,60
 1216 1849 1216 1849 1155.5 1788.5 c 128,-1,61
 1095 1728 1095 1728 1059.5 1646.5 c 128,-1,62
 1024 1565 1024 1565 1024 1472 c 0,63,64
 1024 1437 1024 1437 1030 1404 c 128,-1,65
 1036 1371 1036 1371 1044 1338 c 1,66,-1
 189 482 l 2,67,68
 160 453 160 453 144 415 c 128,-1,69
 128 377 128 377 128 335 c 256,70,71
 128 293 128 293 144.5 255 c 128,-1,72
 161 217 161 217 189 189 c 128,-1,73
 217 161 217 161 255 144.5 c 128,-1,74
 293 128 293 128 335 128 c 256,75,76
 377 128 377 128 415 144 c 128,-1,77
 453 160 453 160 482 189 c 2,78,-1
 1338 1044 l 1,79,80
 1371 1036 1371 1036 1404 1030 c 128,-1,81
 1437 1024 1437 1024 1472 1024 c 0,46,47
EndSplineSet
EndChar

StartChar: uniF01B
Encoding: 61467 61467 29
Width: 2048
Flags: W
LayerCount: 2
Fore
SplineSet
256 1152 m 256,0,1
 283 1152 283 1152 306 1142 c 128,-1,2
 329 1132 329 1132 346.5 1114.5 c 128,-1,3
 364 1097 364 1097 374 1074 c 128,-1,4
 384 1051 384 1051 384 1024 c 256,5,6
 384 997 384 997 374 974 c 128,-1,7
 364 951 364 951 346.5 933.5 c 128,-1,8
 329 916 329 916 306 906 c 128,-1,9
 283 896 283 896 256 896 c 256,10,11
 229 896 229 896 206 906 c 128,-1,12
 183 916 183 916 165.5 933.5 c 128,-1,13
 148 951 148 951 138 974 c 128,-1,14
 128 997 128 997 128 1024 c 256,15,16
 128 1051 128 1051 138 1074 c 128,-1,17
 148 1097 148 1097 165.5 1114.5 c 128,-1,18
 183 1132 183 1132 206 1142 c 128,-1,19
 229 1152 229 1152 256 1152 c 256,0,1
1024 1152 m 256,20,21
 1051 1152 1051 1152 1074 1142 c 128,-1,22
 1097 1132 1097 1132 1114.5 1114.5 c 128,-1,23
 1132 1097 1132 1097 1142 1074 c 128,-1,24
 1152 1051 1152 1051 1152 1024 c 256,25,26
 1152 997 1152 997 1142 974 c 128,-1,27
 1132 951 1132 951 1114.5 933.5 c 128,-1,28
 1097 916 1097 916 1074 906 c 128,-1,29
 1051 896 1051 896 1024 896 c 256,30,31
 997 896 997 896 974 906 c 128,-1,32
 951 916 951 916 933.5 933.5 c 128,-1,33
 916 951 916 951 906 974 c 128,-1,34
 896 997 896 997 896 1024 c 256,35,36
 896 1051 896 1051 906 1074 c 128,-1,37
 916 1097 916 1097 933.5 1114.5 c 128,-1,38
 951 1132 951 1132 974 1142 c 128,-1,39
 997 1152 997 1152 1024 1152 c 256,20,21
1792 1152 m 256,40,41
 1819 1152 1819 1152 1842 1142 c 128,-1,42
 1865 1132 1865 1132 1882.5 1114.5 c 128,-1,43
 1900 1097 1900 1097 1910 1074 c 128,-1,44
 1920 1051 1920 1051 1920 1024 c 256,45,46
 1920 997 1920 997 1910 974 c 128,-1,47
 1900 951 1900 951 1882.5 933.5 c 128,-1,48
 1865 916 1865 916 1842 906 c 128,-1,49
 1819 896 1819 896 1792 896 c 256,50,51
 1765 896 1765 896 1742 906 c 128,-1,52
 1719 916 1719 916 1701.5 933.5 c 128,-1,53
 1684 951 1684 951 1674 974 c 128,-1,54
 1664 997 1664 997 1664 1024 c 256,55,56
 1664 1051 1664 1051 1674 1074 c 128,-1,57
 1684 1097 1684 1097 1701.5 1114.5 c 128,-1,58
 1719 1132 1719 1132 1742 1142 c 128,-1,59
 1765 1152 1765 1152 1792 1152 c 256,40,41
EndSplineSet
EndChar

StartChar: uniF01C
Encoding: 61468 61468 30
Width: 2048
Flags: W
LayerCount: 2
Fore
SplineSet
1955 515 m 1,0,-1
 1024 1445 l 1,1,-1
 93 515 l 1,2,-1
 3 605 l 1,3,-1
 1024 1627 l 1,4,-1
 2045 605 l 1,5,-1
 1955 515 l 1,6,-1
 1955 515 l 1,0,-1
EndSplineSet
EndChar

StartChar: uniF01D
Encoding: 61469 61469 31
Width: 2048
Flags: W
LayerCount: 2
Fore
SplineSet
1024 666 m 1,0,-1
 1939 1581 l 1,1,-1
 2029 1491 l 1,2,-1
 1024 486 l 1,3,-1
 19 1491 l 1,4,-1
 109 1581 l 1,5,-1
 1024 666 l 1,6,-1
 1024 666 l 1,0,-1
EndSplineSet
EndChar

StartChar: uniF01E
Encoding: 61470 61470 32
Width: 2048
Flags: W
LayerCount: 2
Fore
SplineSet
1533 93 m 1,0,-1
 1443 3 l 1,1,-1
 421 1024 l 1,2,-1
 1443 2045 l 1,3,-1
 1533 1955 l 1,4,-1
 603 1024 l 1,5,-1
 1533 93 l 1,6,-1
 1533 93 l 1,0,-1
EndSplineSet
EndChar

StartChar: uniF01F
Encoding: 61471 61471 33
Width: 2048
Flags: W
LayerCount: 2
Fore
SplineSet
515 93 m 1,0,-1
 1445 1024 l 1,1,-1
 515 1955 l 1,2,-1
 605 2045 l 1,3,-1
 1627 1024 l 1,4,-1
 605 3 l 1,5,-1
 515 93 l 1,6,-1
 515 93 l 1,0,-1
EndSplineSet
EndChar

StartChar: uniF020
Encoding: 61472 61472 34
Width: 2048
Flags: W
LayerCount: 2
Fore
SplineSet
2048 1920 m 1,0,-1
 2048 896 l 1,1,-1
 282 896 l 1,2,-1
 877 301 l 1,3,-1
 787 211 l 1,4,-1
 37 960 l 1,5,-1
 787 1709 l 1,6,-1
 877 1619 l 1,7,-1
 282 1024 l 1,8,-1
 1920 1024 l 1,9,-1
 1920 1920 l 1,10,-1
 2048 1920 l 1,11,-1
 2048 1920 l 1,0,-1
EndSplineSet
EndChar

StartChar: uniF021
Encoding: 61473 61473 35
Width: 2048
Flags: W
LayerCount: 2
Fore
SplineSet
1115 1024 m 1,0,-1
 2029 109 l 1,1,-1
 1939 19 l 1,2,-1
 1024 933 l 1,3,-1
 109 19 l 1,4,-1
 19 109 l 1,5,-1
 933 1024 l 1,6,-1
 19 1939 l 1,7,-1
 109 2029 l 1,8,-1
 1024 1115 l 1,9,-1
 1939 2029 l 1,10,-1
 2029 1939 l 1,11,-1
 1115 1024 l 1,0,-1
EndSplineSet
EndChar

StartChar: uniF022
Encoding: 61474 61474 36
Width: 2048
Flags: W
LayerCount: 2
Fore
SplineSet
640 293 m 1,0,-1
 19 915 l 1,1,-1
 109 1005 l 1,2,-1
 640 475 l 1,3,-1
 1939 1773 l 1,4,-1
 2029 1683 l 1,5,-1
 640 293 l 1,6,-1
 640 293 l 1,0,-1
EndSplineSet
EndChar

StartChar: uniF023
Encoding: 61475 61475 37
Width: 2048
Flags: W
LayerCount: 2
Fore
SplineSet
1088 2044 m 0,0,1
 1184 2044 1184 2044 1273 2019 c 128,-1,2
 1362 1994 1362 1994 1440 1948 c 128,-1,3
 1518 1902 1518 1902 1582 1838 c 128,-1,4
 1646 1774 1646 1774 1692 1696 c 128,-1,5
 1738 1618 1738 1618 1763 1529 c 128,-1,6
 1788 1440 1788 1440 1788 1344 c 0,7,8
 1788 1207 1788 1207 1735.5 1079.5 c 128,-1,9
 1683 952 1683 952 1586 855 c 2,10,-1
 749 19 l 1,11,-1
 659 109 l 1,12,-1
 1495 946 l 2,13,14
 1574 1025 1574 1025 1617 1128.5 c 128,-1,15
 1660 1232 1660 1232 1660 1344 c 0,16,17
 1660 1461 1660 1461 1614.5 1565 c 128,-1,18
 1569 1669 1569 1669 1491 1747 c 128,-1,19
 1413 1825 1413 1825 1309 1870.5 c 128,-1,20
 1205 1916 1205 1916 1088 1916 c 0,21,22
 980 1916 980 1916 897.5 1883.5 c 128,-1,23
 815 1851 815 1851 745 1797.5 c 128,-1,24
 675 1744 675 1744 610.5 1676 c 128,-1,25
 546 1608 546 1608 475 1536 c 1,26,-1
 896 1536 l 1,27,-1
 896 1408 l 1,28,-1
 256 1408 l 1,29,-1
 256 2048 l 1,30,-1
 384 2048 l 1,31,-1
 384 1627 l 1,32,33
 439 1683 439 1683 489.5 1735.5 c 128,-1,34
 540 1788 540 1788 590.5 1834.5 c 128,-1,35
 641 1881 641 1881 693.5 1919.5 c 128,-1,36
 746 1958 746 1958 805.5 1985.5 c 128,-1,37
 865 2013 865 2013 934.5 2028.5 c 128,-1,38
 1004 2044 1004 2044 1088 2044 c 0,0,1
EndSplineSet
EndChar

StartChar: uniF024
Encoding: 61476 61476 38
Width: 2048
Flags: W
LayerCount: 2
Fore
SplineSet
1152 1536 m 1,0,-1
 1573 1536 l 1,1,2
 1502 1608 1502 1608 1437.5 1676 c 128,-1,3
 1373 1744 1373 1744 1303 1797.5 c 128,-1,4
 1233 1851 1233 1851 1150.5 1883.5 c 128,-1,5
 1068 1916 1068 1916 960 1916 c 0,6,7
 843 1916 843 1916 739 1870.5 c 128,-1,8
 635 1825 635 1825 557 1747 c 128,-1,9
 479 1669 479 1669 433.5 1565 c 128,-1,10
 388 1461 388 1461 388 1344 c 0,11,12
 388 1232 388 1232 431 1128.5 c 128,-1,13
 474 1025 474 1025 553 946 c 2,14,-1
 1389 109 l 1,15,-1
 1299 19 l 1,16,-1
 462 855 l 2,17,18
 365 952 365 952 312.5 1079.5 c 128,-1,19
 260 1207 260 1207 260 1344 c 0,20,21
 260 1440 260 1440 285 1529 c 128,-1,22
 310 1618 310 1618 356 1696 c 128,-1,23
 402 1774 402 1774 466 1838 c 128,-1,24
 530 1902 530 1902 608 1948 c 128,-1,25
 686 1994 686 1994 775 2019 c 128,-1,26
 864 2044 864 2044 960 2044 c 0,27,28
 1044 2044 1044 2044 1113.5 2028.5 c 128,-1,29
 1183 2013 1183 2013 1242.5 1985.5 c 128,-1,30
 1302 1958 1302 1958 1354.5 1919.5 c 128,-1,31
 1407 1881 1407 1881 1457.5 1834.5 c 128,-1,32
 1508 1788 1508 1788 1558 1735.5 c 128,-1,33
 1608 1683 1608 1683 1664 1627 c 1,34,-1
 1664 2048 l 1,35,-1
 1792 2048 l 1,36,-1
 1792 1408 l 1,37,-1
 1152 1408 l 1,38,-1
 1152 1536 l 1,0,-1
EndSplineSet
EndChar

StartChar: uniF025
Encoding: 61477 61477 39
Width: 2048
Flags: W
LayerCount: 2
Fore
SplineSet
1920 1152 m 1,0,-1
 1920 1024 l 1,1,-1
 1024 1024 l 1,2,-1
 1024 128 l 1,3,-1
 896 128 l 1,4,-1
 896 1024 l 1,5,-1
 0 1024 l 1,6,-1
 0 1152 l 1,7,-1
 896 1152 l 1,8,-1
 896 2048 l 1,9,-1
 1024 2048 l 1,10,-1
 1024 1152 l 1,11,-1
 1920 1152 l 1,12,-1
 1920 1152 l 1,0,-1
EndSplineSet
EndChar

StartChar: uniF026
Encoding: 61478 61478 40
Width: 2048
Flags: W
LayerCount: 2
Fore
SplineSet
0 1152 m 1,0,-1
 1920 1152 l 1,1,-1
 1920 1024 l 1,2,-1
 0 1024 l 1,3,-1
 0 1152 l 1,4,-1
 0 1152 l 1,0,-1
EndSplineSet
EndChar

StartChar: uniF027
Encoding: 61479 61479 41
Width: 2048
Flags: W
LayerCount: 2
Fore
SplineSet
1805 1843 m 1,0,-1
 1050 1088 l 1,1,-1
 1805 333 l 1,2,-1
 1715 243 l 1,3,-1
 960 998 l 1,4,-1
 205 243 l 1,5,-1
 115 333 l 1,6,-1
 870 1088 l 1,7,-1
 115 1843 l 1,8,-1
 205 1933 l 1,9,-1
 960 1178 l 1,10,-1
 1715 1933 l 1,11,-1
 1805 1843 l 1,12,-1
 1805 1843 l 1,0,-1
EndSplineSet
EndChar

StartChar: uniF028
Encoding: 61480 61480 42
Width: 2048
Flags: W
LayerCount: 2
Fore
SplineSet
1088 384 m 256,0,1
 1088 357 1088 357 1078 334 c 128,-1,2
 1068 311 1068 311 1050.5 293.5 c 128,-1,3
 1033 276 1033 276 1010 266 c 128,-1,4
 987 256 987 256 960 256 c 256,5,6
 933 256 933 256 910 266 c 128,-1,7
 887 276 887 276 869.5 293.5 c 128,-1,8
 852 311 852 311 842 334 c 128,-1,9
 832 357 832 357 832 384 c 256,10,11
 832 411 832 411 842 434 c 128,-1,12
 852 457 852 457 869.5 474.5 c 128,-1,13
 887 492 887 492 910 502 c 128,-1,14
 933 512 933 512 960 512 c 256,15,16
 987 512 987 512 1010 502 c 128,-1,17
 1033 492 1033 492 1050.5 474.5 c 128,-1,18
 1068 457 1068 457 1078 434 c 128,-1,19
 1088 411 1088 411 1088 384 c 256,0,1
1088 1792 m 256,20,21
 1088 1765 1088 1765 1078 1742 c 128,-1,22
 1068 1719 1068 1719 1050.5 1701.5 c 128,-1,23
 1033 1684 1033 1684 1010 1674 c 128,-1,24
 987 1664 987 1664 960 1664 c 256,25,26
 933 1664 933 1664 910 1674 c 128,-1,27
 887 1684 887 1684 869.5 1701.5 c 128,-1,28
 852 1719 852 1719 842 1742 c 128,-1,29
 832 1765 832 1765 832 1792 c 256,30,31
 832 1819 832 1819 842 1842 c 128,-1,32
 852 1865 852 1865 869.5 1882.5 c 128,-1,33
 887 1900 887 1900 910 1910 c 128,-1,34
 933 1920 933 1920 960 1920 c 256,35,36
 987 1920 987 1920 1010 1910 c 128,-1,37
 1033 1900 1033 1900 1050.5 1882.5 c 128,-1,38
 1068 1865 1068 1865 1078 1842 c 128,-1,39
 1088 1819 1088 1819 1088 1792 c 256,20,21
1920 1024 m 1,40,-1
 0 1024 l 1,41,-1
 0 1152 l 1,42,-1
 1920 1152 l 1,43,-1
 1920 1024 l 1,40,-1
EndSplineSet
EndChar

StartChar: uniF029
Encoding: 61481 61481 43
Width: 2048
Flags: W
LayerCount: 2
Fore
SplineSet
1475 2048 m 1,0,-1
 1596 2048 l 1,1,-1
 575 0 l 1,2,-1
 152 899 l 1,3,-1
 0 899 l 1,4,-1
 0 1026 l 1,5,-1
 231 1026 l 1,6,-1
 575 260 l 1,7,-1
 1475 2048 l 1,8,-1
 1475 2048 l 1,0,-1
EndSplineSet
EndChar

StartChar: uniF02A
Encoding: 61482 61482 44
Width: 2048
Flags: W
LayerCount: 2
Fore
SplineSet
768 1664 m 0,0,1
 768 1584 768 1584 738 1514.5 c 128,-1,2
 708 1445 708 1445 655.5 1392.5 c 128,-1,3
 603 1340 603 1340 533 1310 c 128,-1,4
 463 1280 463 1280 384 1280 c 0,5,6
 304 1280 304 1280 234.5 1310 c 128,-1,7
 165 1340 165 1340 112.5 1392.5 c 128,-1,8
 60 1445 60 1445 30 1514.5 c 128,-1,9
 0 1584 0 1584 0 1664 c 0,10,11
 0 1743 0 1743 30 1813 c 128,-1,12
 60 1883 60 1883 112.5 1935.5 c 128,-1,13
 165 1988 165 1988 234.5 2018 c 128,-1,14
 304 2048 304 2048 384 2048 c 0,15,16
 463 2048 463 2048 533 2018 c 128,-1,17
 603 1988 603 1988 655.5 1935.5 c 128,-1,18
 708 1883 708 1883 738 1813 c 128,-1,19
 768 1743 768 1743 768 1664 c 0,0,1
128 1664 m 256,20,21
 128 1611 128 1611 148 1564.5 c 128,-1,22
 168 1518 168 1518 203 1483 c 128,-1,23
 238 1448 238 1448 284.5 1428 c 128,-1,24
 331 1408 331 1408 384 1408 c 256,25,26
 437 1408 437 1408 483.5 1428 c 128,-1,27
 530 1448 530 1448 565 1483 c 128,-1,28
 600 1518 600 1518 620 1564.5 c 128,-1,29
 640 1611 640 1611 640 1664 c 256,30,31
 640 1717 640 1717 620 1763.5 c 128,-1,32
 600 1810 600 1810 565 1845 c 128,-1,33
 530 1880 530 1880 483.5 1900 c 128,-1,34
 437 1920 437 1920 384 1920 c 256,35,36
 331 1920 331 1920 284.5 1900 c 128,-1,37
 238 1880 238 1880 203 1845 c 128,-1,38
 168 1810 168 1810 148 1763.5 c 128,-1,39
 128 1717 128 1717 128 1664 c 256,20,21
1536 896 m 0,40,41
 1615 896 1615 896 1685 866 c 128,-1,42
 1755 836 1755 836 1807.5 783.5 c 128,-1,43
 1860 731 1860 731 1890 661 c 128,-1,44
 1920 591 1920 591 1920 512 c 0,45,46
 1920 432 1920 432 1890 362.5 c 128,-1,47
 1860 293 1860 293 1807.5 240.5 c 128,-1,48
 1755 188 1755 188 1685 158 c 128,-1,49
 1615 128 1615 128 1536 128 c 0,50,51
 1456 128 1456 128 1386.5 158 c 128,-1,52
 1317 188 1317 188 1264.5 240.5 c 128,-1,53
 1212 293 1212 293 1182 362.5 c 128,-1,54
 1152 432 1152 432 1152 512 c 0,55,56
 1152 591 1152 591 1182 661 c 128,-1,57
 1212 731 1212 731 1264.5 783.5 c 128,-1,58
 1317 836 1317 836 1386.5 866 c 128,-1,59
 1456 896 1456 896 1536 896 c 0,40,41
1536 256 m 256,60,61
 1589 256 1589 256 1635.5 276 c 128,-1,62
 1682 296 1682 296 1717 331 c 128,-1,63
 1752 366 1752 366 1772 412.5 c 128,-1,64
 1792 459 1792 459 1792 512 c 256,65,66
 1792 565 1792 565 1772 611.5 c 128,-1,67
 1752 658 1752 658 1717 693 c 128,-1,68
 1682 728 1682 728 1635.5 748 c 128,-1,69
 1589 768 1589 768 1536 768 c 256,70,71
 1483 768 1483 768 1436.5 748 c 128,-1,72
 1390 728 1390 728 1355 693 c 128,-1,73
 1320 658 1320 658 1300 611.5 c 128,-1,74
 1280 565 1280 565 1280 512 c 256,75,76
 1280 459 1280 459 1300 412.5 c 128,-1,77
 1320 366 1320 366 1355 331 c 128,-1,78
 1390 296 1390 296 1436.5 276 c 128,-1,79
 1483 256 1483 256 1536 256 c 256,60,61
1536 2048 m 1,80,-1
 512 128 l 1,81,-1
 384 128 l 1,82,-1
 1408 2048 l 1,83,-1
 1536 2048 l 1,80,-1
EndSplineSet
EndChar

StartChar: uniF02B
Encoding: 61483 61483 45
Width: 2048
Flags: W
LayerCount: 2
Fore
SplineSet
1024 1280 m 5,0,-1
 1664 1280 l 5,1,-1
 1664 1152 l 5,2,-1
 1024 1152 l 5,3,-1
 1024 512 l 5,4,-1
 896 512 l 5,5,-1
 896 1152 l 5,6,-1
 256 1152 l 5,7,-1
 256 1280 l 5,8,-1
 896 1280 l 5,9,-1
 896 1920 l 5,10,-1
 1024 1920 l 5,11,-1
 1024 1280 l 5,0,-1
256 256 m 1,12,-1
 256 384 l 1,13,-1
 1664 384 l 1,14,-1
 1664 256 l 1,15,-1
 256 256 l 1,12,-1
EndSplineSet
EndChar

StartChar: uniF02C
Encoding: 61484 61484 46
Width: 2048
Flags: W
LayerCount: 2
Fore
SplineSet
0 640 m 1,0,-1
 0 768 l 1,1,-1
 1920 768 l 1,2,-1
 1920 640 l 1,3,-1
 0 640 l 1,0,-1
0 1536 m 1,4,-1
 1920 1536 l 1,5,-1
 1920 1408 l 1,6,-1
 0 1408 l 1,7,-1
 0 1536 l 1,4,-1
EndSplineSet
EndChar

StartChar: uniF02D
Encoding: 61485 61485 47
Width: 2048
Flags: W
LayerCount: 2
Fore
SplineSet
1302 2048 m 1,0,-1
 1436 2048 l 1,1,-1
 754 0 l 1,2,-1
 619 0 l 1,3,-1
 1302 2048 l 1,4,-1
 1302 2048 l 1,0,-1
EndSplineSet
EndChar

StartChar: uniF02E
Encoding: 61486 61486 48
Width: 2048
Flags: W
LayerCount: 2
Fore
SplineSet
896 128 m 1,0,-1
 1024 128 l 1,1,-1
 1024 0 l 1,2,-1
 896 0 l 1,3,-1
 896 128 l 1,0,-1
960 2048 m 256,4,5
 1039 2048 1039 2048 1112.5 2027.5 c 128,-1,6
 1186 2007 1186 2007 1250 1969.5 c 128,-1,7
 1314 1932 1314 1932 1367 1879 c 128,-1,8
 1420 1826 1420 1826 1457.5 1762 c 128,-1,9
 1495 1698 1495 1698 1515.5 1624.5 c 128,-1,10
 1536 1551 1536 1551 1536 1472 c 0,11,12
 1536 1388 1536 1388 1514 1320 c 128,-1,13
 1492 1252 1492 1252 1456 1195.5 c 128,-1,14
 1420 1139 1420 1139 1374 1091 c 128,-1,15
 1328 1043 1328 1043 1280 998 c 128,-1,16
 1232 953 1232 953 1186 908.5 c 128,-1,17
 1140 864 1140 864 1104 814 c 128,-1,18
 1068 764 1068 764 1046 706 c 128,-1,19
 1024 648 1024 648 1024 576 c 2,20,-1
 1024 384 l 1,21,-1
 896 384 l 1,22,-1
 896 576 l 2,23,24
 896 660 896 660 918 728 c 128,-1,25
 940 796 940 796 976 852.5 c 128,-1,26
 1012 909 1012 909 1058 956.5 c 128,-1,27
 1104 1004 1104 1004 1152 1049 c 128,-1,28
 1200 1094 1200 1094 1246 1139 c 128,-1,29
 1292 1184 1292 1184 1328 1234 c 128,-1,30
 1364 1284 1364 1284 1386 1342 c 128,-1,31
 1408 1400 1408 1400 1408 1472 c 0,32,33
 1408 1565 1408 1565 1372.5 1646.5 c 128,-1,34
 1337 1728 1337 1728 1276.5 1788.5 c 128,-1,35
 1216 1849 1216 1849 1134.5 1884.5 c 128,-1,36
 1053 1920 1053 1920 960 1920 c 256,37,38
 867 1920 867 1920 785.5 1884.5 c 128,-1,39
 704 1849 704 1849 643.5 1788.5 c 128,-1,40
 583 1728 583 1728 547.5 1646.5 c 128,-1,41
 512 1565 512 1565 512 1472 c 1,42,-1
 384 1472 l 1,43,44
 384 1551 384 1551 404.5 1624.5 c 128,-1,45
 425 1698 425 1698 462.5 1762 c 128,-1,46
 500 1826 500 1826 553 1879 c 128,-1,47
 606 1932 606 1932 670 1969.5 c 128,-1,48
 734 2007 734 2007 807.5 2027.5 c 128,-1,49
 881 2048 881 2048 960 2048 c 256,4,5
EndSplineSet
EndChar

StartChar: uniF02F
Encoding: 61487 61487 49
Width: 2048
Flags: W
LayerCount: 2
Fore
SplineSet
1664 2048 m 1,0,-1
 1664 896 l 2,1,2
 1664 763 1664 763 1614 646.5 c 128,-1,3
 1564 530 1564 530 1477 443 c 128,-1,4
 1390 356 1390 356 1273.5 306 c 128,-1,5
 1157 256 1157 256 1024 256 c 256,6,7
 891 256 891 256 774.5 306 c 128,-1,8
 658 356 658 356 571 443 c 128,-1,9
 484 530 484 530 434 646.5 c 128,-1,10
 384 763 384 763 384 896 c 2,11,-1
 384 2048 l 1,12,-1
 512 2048 l 1,13,-1
 512 896 l 2,14,15
 512 790 512 790 552.5 697 c 128,-1,16
 593 604 593 604 662.5 534.5 c 128,-1,17
 732 465 732 465 825 424.5 c 128,-1,18
 918 384 918 384 1024 384 c 256,19,20
 1130 384 1130 384 1223 424.5 c 128,-1,21
 1316 465 1316 465 1385.5 534.5 c 128,-1,22
 1455 604 1455 604 1495.5 697 c 128,-1,23
 1536 790 1536 790 1536 896 c 2,24,-1
 1536 2048 l 1,25,-1
 1664 2048 l 1,0,-1
384 128 m 1,26,-1
 1664 128 l 1,27,-1
 1664 0 l 1,28,-1
 384 0 l 1,29,-1
 384 128 l 1,26,-1
EndSplineSet
EndChar

StartChar: uniF030
Encoding: 61488 61488 50
Width: 2048
Flags: W
LayerCount: 2
Fore
SplineSet
1184 1088 m 1,0,1
 1283 1088 1283 1088 1370.5 1050.5 c 128,-1,2
 1458 1013 1458 1013 1523.5 947.5 c 128,-1,3
 1589 882 1589 882 1626.5 794.5 c 128,-1,4
 1664 707 1664 707 1664 608 c 256,5,6
 1664 509 1664 509 1626.5 421.5 c 128,-1,7
 1589 334 1589 334 1523.5 268.5 c 128,-1,8
 1458 203 1458 203 1370.5 165.5 c 128,-1,9
 1283 128 1283 128 1184 128 c 2,10,-1
 384 128 l 1,11,-1
 384 1920 l 1,12,-1
 1184 1920 l 2,13,14
 1270 1920 1270 1920 1346 1887.5 c 128,-1,15
 1422 1855 1422 1855 1478.5 1798.5 c 128,-1,16
 1535 1742 1535 1742 1567.5 1666 c 128,-1,17
 1600 1590 1600 1590 1600 1504 c 256,18,19
 1600 1418 1600 1418 1567.5 1342 c 128,-1,20
 1535 1266 1535 1266 1478.5 1209.5 c 128,-1,21
 1422 1153 1422 1153 1346 1120.5 c 128,-1,22
 1270 1088 1270 1088 1184 1088 c 1,0,1
768 1152 m 1,23,-1
 960 1152 l 2,24,25
 1012 1152 1012 1152 1059 1172.5 c 128,-1,26
 1106 1193 1106 1193 1140.5 1227.5 c 128,-1,27
 1175 1262 1175 1262 1195.5 1308.5 c 128,-1,28
 1216 1355 1216 1355 1216 1408 c 0,29,30
 1216 1460 1216 1460 1195.5 1507 c 128,-1,31
 1175 1554 1175 1554 1140.5 1588.5 c 128,-1,32
 1106 1623 1106 1623 1059 1643.5 c 128,-1,33
 1012 1664 1012 1664 960 1664 c 2,34,-1
 768 1664 l 1,35,-1
 768 1152 l 1,23,-1
1024 384 m 2,36,37
 1076 384 1076 384 1123 404.5 c 128,-1,38
 1170 425 1170 425 1204.5 459.5 c 128,-1,39
 1239 494 1239 494 1259.5 540.5 c 128,-1,40
 1280 587 1280 587 1280 640 c 0,41,42
 1280 692 1280 692 1259.5 739 c 128,-1,43
 1239 786 1239 786 1204.5 820.5 c 128,-1,44
 1170 855 1170 855 1123 875.5 c 128,-1,45
 1076 896 1076 896 1024 896 c 2,46,-1
 768 896 l 1,47,-1
 768 384 l 1,48,-1
 1024 384 l 2,36,37
EndSplineSet
EndChar

StartChar: uniF031
Encoding: 61489 61489 51
Width: 2048
Flags: W
LayerCount: 2
Fore
SplineSet
1640 1792 m 1,0,-1
 1256 1792 l 1,1,-1
 875 256 l 1,2,-1
 1259 256 l 1,3,-1
 1259 128 l 1,4,-1
 363 128 l 1,5,-1
 363 256 l 1,6,-1
 747 256 l 1,7,-1
 1128 1792 l 1,8,-1
 744 1792 l 1,9,-1
 744 1920 l 1,10,-1
 1640 1920 l 1,11,-1
 1640 1792 l 1,12,-1
 1640 1792 l 1,0,-1
EndSplineSet
EndChar

StartChar: uniF032
Encoding: 61490 61490 52
Width: 2048
Flags: W
LayerCount: 2
Fore
SplineSet
1536 1664 m 1,0,-1
 1152 1664 l 1,1,-1
 1152 384 l 1,2,-1
 1536 384 l 1,3,-1
 1536 0 l 1,4,-1
 384 0 l 1,5,-1
 384 384 l 1,6,-1
 768 384 l 1,7,-1
 768 1664 l 1,8,-1
 384 1664 l 1,9,-1
 384 2048 l 1,10,-1
 1536 2048 l 1,11,-1
 1536 1664 l 1,12,-1
 1536 1664 l 1,0,-1
EndSplineSet
EndChar

StartChar: uniF033
Encoding: 61491 61491 53
Width: 2048
Flags: W
LayerCount: 2
Fore
SplineSet
1408 2048 m 5,0,-1
 1920 2048 l 5,1,-1
 1663 1792 l 5,2,-1
 1408 2048 l 5,0,-1
637 1792 m 1,3,-1
 771 1792 l 1,4,-1
 1326 128 l 1,5,-1
 1191 128 l 1,6,-1
 1021 640 l 1,7,-1
 387 640 l 1,8,-1
 217 128 l 1,9,-1
 82 128 l 1,10,-1
 637 1792 l 1,3,-1
430 768 m 1,11,-1
 978 768 l 1,12,-1
 704 1590 l 1,13,-1
 430 768 l 1,11,-1
EndSplineSet
EndChar

StartChar: uniF034
Encoding: 61492 61492 54
Width: 2048
Flags: W
LayerCount: 2
Fore
SplineSet
637 1792 m 1,0,-1
 771 1792 l 1,1,-1
 1326 128 l 1,2,-1
 1191 128 l 1,3,-1
 1021 640 l 1,4,-1
 387 640 l 1,5,-1
 217 128 l 1,6,-1
 82 128 l 1,7,-1
 637 1792 l 1,0,-1
430 768 m 1,8,-1
 978 768 l 1,9,-1
 704 1590 l 1,10,-1
 430 768 l 1,8,-1
1665 2048 m 1,11,-1
 1920 1792 l 1,12,-1
 1408 1792 l 1,13,-1
 1665 2048 l 1,11,-1
EndSplineSet
EndChar

StartChar: uniF035
Encoding: 61493 61493 55
Width: 2048
Flags: W
LayerCount: 2
Fore
SplineSet
1411 1920 m 1,0,-1
 1966 256 l 1,1,-1
 1831 256 l 1,2,-1
 1661 768 l 1,3,-1
 1027 768 l 1,4,-1
 857 256 l 1,5,-1
 857 256 l 1,6,-1
 857 256 l 1,7,-1
 722 256 l 1,8,-1
 722 256 l 1,9,-1
 722 256 l 1,10,-1
 637 512 l 1,11,-1
 259 512 l 1,12,-1
 174 256 l 1,13,-1
 39 256 l 1,14,-1
 381 1280 l 1,15,-1
 515 1280 l 1,16,-1
 789 459 l 1,17,-1
 1277 1920 l 1,18,-1
 1411 1920 l 1,0,-1
302 640 m 1,19,-1
 594 640 l 1,20,-1
 448 1077 l 1,21,-1
 302 640 l 1,19,-1
1070 896 m 1,22,-1
 1618 896 l 1,23,-1
 1344 1717 l 1,24,-1
 1070 896 l 1,22,-1
EndSplineSet
EndChar

StartChar: uniF036
Encoding: 61494 61494 56
Width: 2048
Flags: W
LayerCount: 2
Fore
SplineSet
1664 256 m 1,0,-1
 1664 128 l 1,1,-1
 256 128 l 1,2,-1
 256 256 l 1,3,-1
 1664 256 l 1,0,-1
473 384 m 1,4,-1
 338 384 l 1,5,-1
 893 2048 l 1,6,-1
 1027 2048 l 1,7,-1
 1582 384 l 1,8,-1
 1447 384 l 1,9,-1
 1277 896 l 1,10,-1
 643 896 l 1,11,-1
 473 384 l 1,4,-1
686 1024 m 1,12,-1
 1234 1024 l 1,13,-1
 960 1845 l 1,14,-1
 686 1024 l 1,12,-1
EndSplineSet
EndChar

StartChar: uniF037
Encoding: 61495 61495 57
Width: 2048
Flags: W
LayerCount: 2
Fore
SplineSet
1105 1920 m 1,0,-1
 1745 0 l 1,1,-1
 1610 0 l 1,2,-1
 1439 512 l 1,3,-1
 615 512 l 1,4,-1
 445 0 l 1,5,-1
 310 0 l 1,6,-1
 950 1920 l 1,7,-1
 1105 1920 l 1,0,-1
658 640 m 1,8,-1
 1397 640 l 1,9,-1
 1027 1748 l 1,10,-1
 658 640 l 1,8,-1
EndSplineSet
EndChar

StartChar: uniF038
Encoding: 61496 61496 58
Width: 2048
Flags: W
LayerCount: 2
Fore
SplineSet
1087 1920 m 1,0,-1
 2047 0 l 1,1,-1
 1904 0 l 1,2,-1
 1648 512 l 1,3,-1
 403 512 l 1,4,-1
 147 0 l 1,5,-1
 4 0 l 1,6,-1
 964 1920 l 1,7,-1
 1087 1920 l 1,0,-1
467 640 m 1,8,-1
 1584 640 l 1,9,-1
 1025 1757 l 1,10,-1
 467 640 l 1,8,-1
EndSplineSet
EndChar

StartChar: uniF039
Encoding: 61497 61497 59
Width: 2048
Flags: W
LayerCount: 2
Fore
SplineSet
1760 1920 m 1,0,1
 1667 1920 1667 1920 1598 1884 c 128,-1,2
 1529 1848 1529 1848 1475.5 1788 c 128,-1,3
 1422 1728 1422 1728 1379.5 1651 c 128,-1,4
 1337 1574 1337 1574 1296 1493 c 128,-1,5
 1255 1412 1255 1412 1210.5 1332.5 c 128,-1,6
 1166 1253 1166 1253 1109.5 1188 c 128,-1,7
 1053 1123 1053 1123 980 1079.5 c 128,-1,8
 907 1036 907 1036 807 1026 c 1,9,-1
 1320 0 l 1,10,-1
 1176 0 l 1,11,-1
 664 1024 l 1,12,-1
 578 1024 l 1,13,-1
 322 0 l 1,14,-1
 190 0 l 1,15,-1
 702 2048 l 1,16,-1
 834 2048 l 1,17,-1
 610 1152 l 1,18,-1
 768 1152 l 2,19,20
 852 1152 852 1152 915 1190.5 c 128,-1,21
 978 1229 978 1229 1029 1292 c 128,-1,22
 1080 1355 1080 1355 1123 1435.5 c 128,-1,23
 1166 1516 1166 1516 1209.5 1600 c 128,-1,24
 1253 1684 1253 1684 1301 1764.5 c 128,-1,25
 1349 1845 1349 1845 1409.5 1908 c 128,-1,26
 1470 1971 1470 1971 1547.5 2009.5 c 128,-1,27
 1625 2048 1625 2048 1728 2048 c 2,28,-1
 1760 2048 l 1,29,-1
 1760 1920 l 1,0,1
EndSplineSet
EndChar

StartChar: uniF03A
Encoding: 61498 61498 60
Width: 2048
Flags: W
LayerCount: 2
Fore
SplineSet
128 1562 m 1,0,-1
 794 896 l 1,1,-1
 128 230 l 1,2,-1
 128 1562 l 1,0,-1
256 538 m 1,3,-1
 614 896 l 1,4,-1
 256 1254 l 1,5,-1
 256 538 l 1,3,-1
1792 1792 m 1,6,-1
 1792 256 l 1,7,-1
 1920 256 l 1,8,-1
 1920 128 l 1,9,-1
 1280 128 l 1,10,-1
 1280 256 l 1,11,-1
 1408 256 l 1,12,-1
 1408 1024 l 1,13,-1
 1216 1024 l 2,14,15
 1123 1024 1123 1024 1041.5 1059 c 128,-1,16
 960 1094 960 1094 899 1155 c 128,-1,17
 838 1216 838 1216 803 1297.5 c 128,-1,18
 768 1379 768 1379 768 1472 c 256,19,20
 768 1565 768 1565 803 1646.5 c 128,-1,21
 838 1728 838 1728 899 1789 c 128,-1,22
 960 1850 960 1850 1041.5 1885 c 128,-1,23
 1123 1920 1123 1920 1216 1920 c 2,24,-1
 1920 1920 l 1,25,-1
 1920 1792 l 1,26,-1
 1792 1792 l 1,6,-1
1408 1152 m 1,27,-1
 1408 1792 l 1,28,-1
 1216 1792 l 2,29,30
 1150 1792 1150 1792 1091.5 1766.5 c 128,-1,31
 1033 1741 1033 1741 989.5 1697.5 c 128,-1,32
 946 1654 946 1654 921 1596 c 128,-1,33
 896 1538 896 1538 896 1472 c 256,34,35
 896 1406 896 1406 921 1347.5 c 128,-1,36
 946 1289 946 1289 989.5 1245.5 c 128,-1,37
 1033 1202 1033 1202 1091.5 1177 c 128,-1,38
 1150 1152 1150 1152 1216 1152 c 2,39,-1
 1408 1152 l 1,27,-1
1664 256 m 1,40,-1
 1664 1792 l 1,41,-1
 1536 1792 l 1,42,-1
 1536 256 l 1,43,-1
 1664 256 l 1,40,-1
EndSplineSet
EndChar

StartChar: uniF03B
Encoding: 61499 61499 61
Width: 2048
Flags: W
LayerCount: 2
Fore
SplineSet
1152 1920 m 1,0,-1
 1152 1792 l 1,1,-1
 1024 1792 l 1,2,-1
 1024 256 l 1,3,-1
 1152 256 l 1,4,-1
 1152 128 l 1,5,-1
 512 128 l 1,6,-1
 512 256 l 1,7,-1
 640 256 l 1,8,-1
 640 1024 l 1,9,-1
 448 1024 l 2,10,11
 355 1024 355 1024 273.5 1059 c 128,-1,12
 192 1094 192 1094 131 1155 c 128,-1,13
 70 1216 70 1216 35 1297.5 c 128,-1,14
 0 1379 0 1379 0 1472 c 256,15,16
 0 1565 0 1565 35 1646.5 c 128,-1,17
 70 1728 70 1728 131 1789 c 128,-1,18
 192 1850 192 1850 273.5 1885 c 128,-1,19
 355 1920 355 1920 448 1920 c 2,20,-1
 1152 1920 l 1,0,-1
640 1152 m 1,21,-1
 640 1792 l 1,22,-1
 448 1792 l 2,23,24
 382 1792 382 1792 323.5 1766.5 c 128,-1,25
 265 1741 265 1741 221.5 1697.5 c 128,-1,26
 178 1654 178 1654 153 1596 c 128,-1,27
 128 1538 128 1538 128 1472 c 256,28,29
 128 1406 128 1406 153 1347.5 c 128,-1,30
 178 1289 178 1289 221.5 1245.5 c 128,-1,31
 265 1202 265 1202 323.5 1177 c 128,-1,32
 382 1152 382 1152 448 1152 c 2,33,-1
 640 1152 l 1,21,-1
896 256 m 1,34,-1
 896 1792 l 1,35,-1
 768 1792 l 1,36,-1
 768 256 l 1,37,-1
 896 256 l 1,34,-1
1920 1562 m 1,38,-1
 1920 230 l 1,39,-1
 1254 896 l 1,40,-1
 1920 1562 l 1,38,-1
1792 1254 m 1,41,-1
 1434 896 l 1,42,-1
 1792 538 l 1,43,-1
 1792 1254 l 1,41,-1
EndSplineSet
EndChar

StartChar: uniF03C
Encoding: 61500 61500 62
Width: 2048
Flags: W
LayerCount: 2
Fore
SplineSet
1024 2048 m 0,0,1
 1165 2048 1165 2048 1296 2011.5 c 128,-1,2
 1427 1975 1427 1975 1541 1908.5 c 128,-1,3
 1655 1842 1655 1842 1748.5 1748.5 c 128,-1,4
 1842 1655 1842 1655 1908.5 1541 c 128,-1,5
 1975 1427 1975 1427 2011.5 1296 c 128,-1,6
 2048 1165 2048 1165 2048 1024 c 0,7,8
 2048 969 2048 969 2037.5 909.5 c 128,-1,9
 2027 850 2027 850 2006 793 c 128,-1,10
 1985 736 1985 736 1953 685 c 128,-1,11
 1921 634 1921 634 1878.5 595.5 c 128,-1,12
 1836 557 1836 557 1782 534.5 c 128,-1,13
 1728 512 1728 512 1664 512 c 0,14,15
 1610 512 1610 512 1558.5 526.5 c 128,-1,16
 1507 541 1507 541 1463 568 c 128,-1,17
 1419 595 1419 595 1382.5 634 c 128,-1,18
 1346 673 1346 673 1322 722 c 1,19,20
 1292 675 1292 675 1253 636.5 c 128,-1,21
 1214 598 1214 598 1168 570 c 128,-1,22
 1122 542 1122 542 1069.5 527 c 128,-1,23
 1017 512 1017 512 960 512 c 0,24,25
 858 512 858 512 775 556.5 c 128,-1,26
 692 601 692 601 633.5 673 c 128,-1,27
 575 745 575 745 543.5 837 c 128,-1,28
 512 929 512 929 512 1024 c 256,29,30
 512 1119 512 1119 543.5 1211 c 128,-1,31
 575 1303 575 1303 633.5 1375 c 128,-1,32
 692 1447 692 1447 775 1491.5 c 128,-1,33
 858 1536 858 1536 960 1536 c 0,34,35
 1055 1536 1055 1536 1136.5 1495 c 128,-1,36
 1218 1454 1218 1454 1280 1383 c 1,37,-1
 1280 1536 l 1,38,-1
 1408 1536 l 1,39,-1
 1408 1024 l 1,40,-1
 1408 896 l 2,41,42
 1408 843 1408 843 1428 796.5 c 128,-1,43
 1448 750 1448 750 1483 715 c 128,-1,44
 1518 680 1518 680 1564.5 660 c 128,-1,45
 1611 640 1611 640 1664 640 c 0,46,47
 1708 640 1708 640 1744.5 658.5 c 128,-1,48
 1781 677 1781 677 1809.5 707.5 c 128,-1,49
 1838 738 1838 738 1859 777.5 c 128,-1,50
 1880 817 1880 817 1893.5 860 c 128,-1,51
 1907 903 1907 903 1913.5 945.5 c 128,-1,52
 1920 988 1920 988 1920 1024 c 0,53,54
 1920 1147 1920 1147 1888 1261.5 c 128,-1,55
 1856 1376 1856 1376 1797.5 1475.5 c 128,-1,56
 1739 1575 1739 1575 1657 1657 c 128,-1,57
 1575 1739 1575 1739 1475.5 1797.5 c 128,-1,58
 1376 1856 1376 1856 1261.5 1888 c 128,-1,59
 1147 1920 1147 1920 1024 1920 c 256,60,61
 901 1920 901 1920 786.5 1888 c 128,-1,62
 672 1856 672 1856 572.5 1797.5 c 128,-1,63
 473 1739 473 1739 391 1657 c 128,-1,64
 309 1575 309 1575 250.5 1475.5 c 128,-1,65
 192 1376 192 1376 160 1261.5 c 128,-1,66
 128 1147 128 1147 128 1024 c 256,67,68
 128 901 128 901 160 786.5 c 128,-1,69
 192 672 192 672 250.5 572.5 c 128,-1,70
 309 473 309 473 391 391 c 128,-1,71
 473 309 473 309 572.5 250.5 c 128,-1,72
 672 192 672 192 786 160 c 128,-1,73
 900 128 900 128 1024 128 c 0,74,75
 1202 128 1202 128 1367 196 c 1,76,-1
 1416 78 l 1,77,78
 1322 39 1322 39 1223.5 19.5 c 128,-1,79
 1125 0 1125 0 1024 0 c 0,80,81
 883 0 883 0 752 36.5 c 128,-1,82
 621 73 621 73 507 139.5 c 128,-1,83
 393 206 393 206 299.5 299.5 c 128,-1,84
 206 393 206 393 139.5 507 c 128,-1,85
 73 621 73 621 36.5 751.5 c 128,-1,86
 0 882 0 882 0 1024 c 0,87,88
 0 1165 0 1165 36.5 1296 c 128,-1,89
 73 1427 73 1427 139.5 1541 c 128,-1,90
 206 1655 206 1655 299.5 1748.5 c 128,-1,91
 393 1842 393 1842 507 1908.5 c 128,-1,92
 621 1975 621 1975 751.5 2011.5 c 128,-1,93
 882 2048 882 2048 1024 2048 c 0,0,1
960 640 m 256,94,95
 1035 640 1035 640 1094.5 674.5 c 128,-1,96
 1154 709 1154 709 1195 764 c 128,-1,97
 1236 819 1236 819 1258 887.5 c 128,-1,98
 1280 956 1280 956 1280 1024 c 256,99,100
 1280 1092 1280 1092 1258 1160.5 c 128,-1,101
 1236 1229 1236 1229 1195 1284 c 128,-1,102
 1154 1339 1154 1339 1094.5 1373.5 c 128,-1,103
 1035 1408 1035 1408 960 1408 c 256,104,105
 885 1408 885 1408 825.5 1373.5 c 128,-1,106
 766 1339 766 1339 725 1284 c 128,-1,107
 684 1229 684 1229 662 1160.5 c 128,-1,108
 640 1092 640 1092 640 1024 c 256,109,110
 640 956 640 956 662 887.5 c 128,-1,111
 684 819 684 819 725 764 c 128,-1,112
 766 709 766 709 825.5 674.5 c 128,-1,113
 885 640 885 640 960 640 c 256,94,95
EndSplineSet
EndChar

StartChar: uniF03D
Encoding: 61501 61501 63
Width: 2048
Flags: W
LayerCount: 2
Fore
SplineSet
768 0 m 1,0,-1
 768 2048 l 1,1,-1
 896 2048 l 1,2,-1
 896 0 l 1,3,-1
 768 0 l 1,0,-1
1152 2048 m 1,4,-1
 1280 2048 l 1,5,-1
 1280 0 l 1,6,-1
 1152 0 l 1,7,-1
 1152 2048 l 1,4,-1
EndSplineSet
EndChar

StartChar: uniF03E
Encoding: 61502 61502 64
Width: 2048
Flags: W
LayerCount: 2
Fore
SplineSet
128 1152 m 1,0,1
 180 1152 180 1152 227 1172.5 c 128,-1,2
 274 1193 274 1193 308.5 1227.5 c 128,-1,3
 343 1262 343 1262 363.5 1308.5 c 128,-1,4
 384 1355 384 1355 384 1408 c 0,5,6
 384 1479 384 1479 381 1550 c 128,-1,7
 378 1621 378 1621 385.5 1688.5 c 128,-1,8
 393 1756 393 1756 417.5 1819 c 128,-1,9
 442 1882 442 1882 496 1936 c 256,10,11
 550 1990 550 1990 621 2019 c 128,-1,12
 692 2048 692 2048 768 2048 c 1,13,-1
 768 1920 l 1,14,15
 715 1920 715 1920 668.5 1899.5 c 128,-1,16
 622 1879 622 1879 587.5 1844.5 c 128,-1,17
 553 1810 553 1810 532.5 1763 c 128,-1,18
 512 1716 512 1716 512 1664 c 0,19,20
 512 1608 512 1608 514 1553.5 c 128,-1,21
 516 1499 516 1499 514.5 1446.5 c 128,-1,22
 513 1394 513 1394 505 1344.5 c 128,-1,23
 497 1295 497 1295 478 1250 c 128,-1,24
 459 1205 459 1205 426 1164 c 128,-1,25
 393 1123 393 1123 341 1088 c 1,26,27
 393 1053 393 1053 426 1012 c 128,-1,28
 459 971 459 971 478 926 c 128,-1,29
 497 881 497 881 505 831.5 c 128,-1,30
 513 782 513 782 514.5 729.5 c 128,-1,31
 516 677 516 677 514 622.5 c 128,-1,32
 512 568 512 568 512 512 c 0,33,34
 512 459 512 459 532.5 412.5 c 128,-1,35
 553 366 553 366 587.5 331.5 c 128,-1,36
 622 297 622 297 668.5 276.5 c 128,-1,37
 715 256 715 256 768 256 c 1,38,-1
 768 128 l 1,39,40
 692 128 692 128 621 157 c 128,-1,41
 550 186 550 186 496 240 c 256,42,43
 442 294 442 294 417.5 357 c 128,-1,44
 393 420 393 420 385.5 487.5 c 128,-1,45
 378 555 378 555 381 626 c 128,-1,46
 384 697 384 697 384 768 c 0,47,48
 384 820 384 820 363.5 867 c 128,-1,49
 343 914 343 914 308.5 948.5 c 128,-1,50
 274 983 274 983 227 1003.5 c 128,-1,51
 180 1024 180 1024 128 1024 c 1,52,-1
 128 1152 l 1,0,1
1280 2048 m 1,53,54
 1356 2048 1356 2048 1427 2019 c 128,-1,55
 1498 1990 1498 1990 1552 1936 c 256,56,57
 1606 1882 1606 1882 1630.5 1819 c 128,-1,58
 1655 1756 1655 1756 1662.5 1688.5 c 128,-1,59
 1670 1621 1670 1621 1667 1550 c 128,-1,60
 1664 1479 1664 1479 1664 1408 c 0,61,62
 1664 1355 1664 1355 1684.5 1308.5 c 128,-1,63
 1705 1262 1705 1262 1739.5 1227.5 c 128,-1,64
 1774 1193 1774 1193 1820.5 1172.5 c 128,-1,65
 1867 1152 1867 1152 1920 1152 c 1,66,-1
 1920 1024 l 1,67,68
 1867 1024 1867 1024 1820.5 1003.5 c 128,-1,69
 1774 983 1774 983 1739.5 948.5 c 128,-1,70
 1705 914 1705 914 1684.5 867 c 128,-1,71
 1664 820 1664 820 1664 768 c 0,72,73
 1664 697 1664 697 1667 626 c 128,-1,74
 1670 555 1670 555 1662.5 487.5 c 128,-1,75
 1655 420 1655 420 1630.5 357 c 128,-1,76
 1606 294 1606 294 1552 240 c 256,77,78
 1498 186 1498 186 1427 157 c 128,-1,79
 1356 128 1356 128 1280 128 c 1,80,-1
 1280 256 l 1,81,82
 1332 256 1332 256 1379 276.5 c 128,-1,83
 1426 297 1426 297 1460.5 331.5 c 128,-1,84
 1495 366 1495 366 1515.5 412.5 c 128,-1,85
 1536 459 1536 459 1536 512 c 0,86,87
 1536 568 1536 568 1534 622.5 c 128,-1,88
 1532 677 1532 677 1533.5 729.5 c 128,-1,89
 1535 782 1535 782 1543 831.5 c 128,-1,90
 1551 881 1551 881 1570 926 c 128,-1,91
 1589 971 1589 971 1622 1012 c 128,-1,92
 1655 1053 1655 1053 1707 1088 c 1,93,94
 1655 1123 1655 1123 1622 1164 c 128,-1,95
 1589 1205 1589 1205 1570 1250 c 128,-1,96
 1551 1295 1551 1295 1543 1344.5 c 128,-1,97
 1535 1394 1535 1394 1533.5 1446.5 c 128,-1,98
 1532 1499 1532 1499 1534 1553.5 c 128,-1,99
 1536 1608 1536 1608 1536 1664 c 0,100,101
 1536 1716 1536 1716 1515.5 1763 c 128,-1,102
 1495 1810 1495 1810 1460.5 1844.5 c 128,-1,103
 1426 1879 1426 1879 1379 1899.5 c 128,-1,104
 1332 1920 1332 1920 1280 1920 c 1,105,-1
 1280 2048 l 1,53,54
EndSplineSet
EndChar

StartChar: uniF03F
Encoding: 61503 61503 65
Width: 2048
Flags: W
LayerCount: 2
Fore
SplineSet
2048 1088 m 1,0,-1
 2048 960 l 1,1,-1
 250 960 l 1,2,-1
 1037 173 l 1,3,-1
 947 83 l 1,4,-1
 6 1024 l 1,5,-1
 947 1965 l 1,6,-1
 1037 1875 l 1,7,-1
 250 1088 l 1,8,-1
 2048 1088 l 1,9,-1
 2048 1088 l 1,0,-1
EndSplineSet
EndChar

StartChar: uniF040
Encoding: 61504 61504 66
Width: 2048
Flags: W
LayerCount: 2
Fore
SplineSet
1101 1965 m 1,0,-1
 2042 1024 l 1,1,-1
 1101 83 l 1,2,-1
 1011 173 l 1,3,-1
 1798 960 l 1,4,-1
 0 960 l 1,5,-1
 0 1088 l 1,6,-1
 1798 1088 l 1,7,-1
 1011 1875 l 1,8,-1
 1101 1965 l 1,9,-1
 1101 1965 l 1,0,-1
EndSplineSet
EndChar

StartChar: uniF041
Encoding: 61505 61505 67
Width: 2048
Flags: W
LayerCount: 2
Fore
SplineSet
1965 1101 m 1,0,-1
 1875 1011 l 1,1,-1
 1088 1798 l 1,2,-1
 1088 0 l 1,3,-1
 960 0 l 1,4,-1
 960 1798 l 1,5,-1
 173 1011 l 1,6,-1
 83 1101 l 1,7,-1
 1024 2042 l 1,8,-1
 1965 1101 l 1,9,-1
 1965 1101 l 1,0,-1
EndSplineSet
EndChar

StartChar: uniF042
Encoding: 61506 61506 68
Width: 2048
Flags: W
LayerCount: 2
Fore
SplineSet
1875 1037 m 1,0,-1
 1965 947 l 1,1,-1
 1024 6 l 1,2,-1
 83 947 l 1,3,-1
 173 1037 l 1,4,-1
 960 250 l 1,5,-1
 960 2048 l 1,6,-1
 1088 2048 l 1,7,-1
 1088 250 l 1,8,-1
 1875 1037 l 1,9,-1
 1875 1037 l 1,0,-1
EndSplineSet
EndChar

StartChar: uniF043
Encoding: 61507 61507 69
Width: 2048
Flags: W
LayerCount: 2
Fore
SplineSet
1152 1536 m 2,0,1
 1307 1536 1307 1536 1446.5 1478 c 128,-1,2
 1586 1420 1586 1420 1695 1311 c 256,3,4
 1804 1202 1804 1202 1862 1062.5 c 128,-1,5
 1920 923 1920 923 1920 768 c 0,6,7
 1920 662 1920 662 1892.5 564 c 128,-1,8
 1865 466 1865 466 1815 380.5 c 128,-1,9
 1765 295 1765 295 1695 225 c 128,-1,10
 1625 155 1625 155 1539.5 105 c 128,-1,11
 1454 55 1454 55 1356 27.5 c 128,-1,12
 1258 0 1258 0 1152 0 c 2,13,-1
 256 0 l 1,14,-1
 256 128 l 1,15,-1
 1152 128 l 2,16,17
 1240 128 1240 128 1322 151 c 128,-1,18
 1404 174 1404 174 1475 215.5 c 128,-1,19
 1546 257 1546 257 1604.5 315.5 c 128,-1,20
 1663 374 1663 374 1704.5 445 c 128,-1,21
 1746 516 1746 516 1769 598 c 128,-1,22
 1792 680 1792 680 1792 768 c 256,23,24
 1792 856 1792 856 1769 938 c 128,-1,25
 1746 1020 1746 1020 1704.5 1091 c 128,-1,26
 1663 1162 1663 1162 1604.5 1220.5 c 128,-1,27
 1546 1279 1546 1279 1475 1320.5 c 128,-1,28
 1404 1362 1404 1362 1322 1385 c 128,-1,29
 1240 1408 1240 1408 1152 1408 c 2,30,-1
 331 1408 l 1,31,-1
 757 981 l 1,32,-1
 683 907 l 1,33,-1
 117 1472 l 1,34,-1
 683 2037 l 1,35,-1
 757 1963 l 1,36,-1
 331 1536 l 1,37,-1
 1152 1536 l 2,0,1
EndSplineSet
EndChar

StartChar: uniF044
Encoding: 61508 61508 70
Width: 2048
Flags: W
LayerCount: 2
Fore
SplineSet
128 128 m 1,0,-1
 128 256 l 1,1,-1
 512 256 l 1,2,-1
 512 128 l 1,3,-1
 128 128 l 1,0,-1
1197 1837 m 1,4,-1
 1946 1088 l 1,5,-1
 1197 339 l 1,6,-1
 1107 429 l 1,7,-1
 1701 1024 l 1,8,-1
 128 1024 l 1,9,-1
 128 1086 l 1,10,-1
 128 1152 l 1,11,-1
 1701 1152 l 1,12,-1
 1107 1747 l 1,13,-1
 1197 1837 l 1,4,-1
EndSplineSet
EndChar

StartChar: uniF045
Encoding: 61509 61509 71
Width: 2048
Flags: W
LayerCount: 2
Fore
SplineSet
128 128 m 1,0,-1
 128 256 l 1,1,-1
 896 256 l 1,2,-1
 896 128 l 1,3,-1
 128 128 l 1,0,-1
1197 1837 m 1,4,-1
 1946 1088 l 1,5,-1
 1197 339 l 1,6,-1
 1107 429 l 1,7,-1
 1701 1024 l 1,8,-1
 128 1024 l 1,9,-1
 128 1152 l 1,10,-1
 1701 1152 l 1,11,-1
 1107 1747 l 1,12,-1
 1197 1837 l 1,4,-1
EndSplineSet
EndChar

StartChar: uniF046
Encoding: 61510 61510 72
Width: 2048
Flags: W
LayerCount: 2
Fore
SplineSet
128 128 m 1,0,-1
 128 256 l 1,1,-1
 1408 256 l 1,2,-1
 1408 128 l 1,3,-1
 128 128 l 1,0,-1
1107 429 m 1,4,-1
 1701 1024 l 1,5,-1
 128 1024 l 1,6,-1
 128 1152 l 1,7,-1
 1701 1152 l 1,8,-1
 1107 1747 l 1,9,-1
 1197 1837 l 1,10,-1
 1946 1088 l 1,11,-1
 1197 339 l 1,12,-1
 1107 429 l 1,4,-1
EndSplineSet
EndChar

StartChar: uniF047
Encoding: 61511 61511 73
Width: 2048
Flags: W
LayerCount: 2
Fore
SplineSet
128 128 m 1,0,-1
 128 256 l 1,1,-1
 1792 256 l 1,2,-1
 1792 128 l 1,3,-1
 128 128 l 1,0,-1
1107 429 m 1,4,-1
 1701 1024 l 1,5,-1
 128 1024 l 1,6,-1
 128 1152 l 1,7,-1
 1701 1152 l 1,8,-1
 1107 1747 l 1,9,-1
 1197 1837 l 1,10,-1
 1946 1088 l 1,11,-1
 1197 339 l 1,12,-1
 1107 429 l 1,4,-1
EndSplineSet
EndChar

StartChar: uniF048
Encoding: 61512 61512 74
Width: 2048
Flags: W
LayerCount: 2
Fore
SplineSet
1536 0 m 1,0,-1
 384 0 l 1,1,-1
 384 128 l 1,2,-1
 1536 128 l 1,3,-1
 1536 0 l 1,0,-1
1581 851 m 1,4,-1
 960 225 l 1,5,-1
 339 851 l 1,6,-1
 429 941 l 1,7,-1
 896 471 l 1,8,-1
 896 2048 l 1,9,-1
 1024 2048 l 1,10,-1
 1024 471 l 1,11,-1
 1491 941 l 1,12,-1
 1581 851 l 1,4,-1
EndSplineSet
EndChar

StartChar: uniF049
Encoding: 61513 61513 75
Width: 2048
Flags: W
LayerCount: 2
Fore
SplineSet
1536 2048 m 1,0,-1
 1536 1920 l 1,1,-1
 384 1920 l 1,2,-1
 384 2048 l 1,3,-1
 1536 2048 l 1,0,-1
1581 1197 m 1,4,-1
 1491 1107 l 1,5,-1
 1024 1577 l 1,6,-1
 1024 0 l 1,7,-1
 896 0 l 1,8,-1
 896 1577 l 1,9,-1
 429 1107 l 1,10,-1
 339 1197 l 1,11,-1
 960 1823 l 1,12,-1
 1581 1197 l 1,4,-1
EndSplineSet
EndChar

StartChar: uniF04A
Encoding: 61514 61514 76
Width: 2048
Flags: W
LayerCount: 2
Fore
SplineSet
1069 1549 m 1,0,-1
 979 1459 l 1,1,-1
 641 1796 l 1,2,-1
 640 0 l 1,3,-1
 512 0 l 1,4,-1
 513 1799 l 1,5,-1
 173 1459 l 1,6,-1
 83 1549 l 1,7,-1
 576 2042 l 1,8,-1
 1069 1549 l 1,0,-1
1876 589 m 1,9,-1
 1967 499 l 1,10,-1
 1474 6 l 1,11,-1
 980 499 l 1,12,-1
 1071 589 l 1,13,-1
 1409 251 l 1,14,-1
 1408 2048 l 1,15,-1
 1536 2048 l 1,16,-1
 1537 250 l 1,17,-1
 1876 589 l 1,9,-1
EndSplineSet
EndChar

StartChar: uniF04B
Encoding: 61515 61515 77
Width: 2048
Flags: W
LayerCount: 2
Fore
SplineSet
768 250 m 1,0,-1
 1075 557 l 1,1,-1
 1165 467 l 1,2,-1
 704 6 l 1,3,-1
 243 467 l 1,4,-1
 333 557 l 1,5,-1
 640 250 l 1,6,-1
 640 2048 l 1,7,-1
 768 2048 l 1,8,-1
 768 250 l 1,0,-1
1536 2048 m 1,9,-1
 1664 2048 l 1,10,-1
 1664 384 l 1,11,-1
 1536 384 l 1,12,-1
 1536 2048 l 1,9,-1
1536 0 m 1,13,-1
 1536 128 l 1,14,-1
 1664 128 l 1,15,-1
 1664 0 l 1,16,-1
 1536 0 l 1,13,-1
EndSplineSet
EndChar

StartChar: uniF04C
Encoding: 61516 61516 78
Width: 2048
Flags: W
LayerCount: 2
Fore
SplineSet
256 768 m 1,0,-1
 256 896 l 1,1,-1
 896 896 l 1,2,-1
 896 256 l 1,3,-1
 768 256 l 1,4,-1
 768 677 l 1,5,-1
 93 3 l 1,6,-1
 3 93 l 1,7,-1
 677 768 l 1,8,-1
 256 768 l 1,0,-1
2045 1955 m 1,9,-1
 1371 1280 l 1,10,-1
 1792 1280 l 1,11,-1
 1792 1152 l 1,12,-1
 1152 1152 l 1,13,-1
 1152 1792 l 1,14,-1
 1280 1792 l 1,15,-1
 1280 1371 l 1,16,-1
 1955 2045 l 1,17,-1
 2045 1955 l 1,9,-1
EndSplineSet
EndChar

StartChar: uniF04D
Encoding: 61517 61517 79
Width: 2048
Flags: W
LayerCount: 2
Fore
SplineSet
1280 1920 m 1,0,-1
 1920 1920 l 1,1,-1
 1920 1280 l 1,2,-1
 1792 1280 l 1,3,-1
 1792 1701 l 1,4,-1
 347 256 l 1,5,-1
 768 256 l 1,6,-1
 768 128 l 1,7,-1
 128 128 l 1,8,-1
 128 768 l 1,9,-1
 256 768 l 1,10,-1
 256 347 l 1,11,-1
 1701 1792 l 1,12,-1
 1280 1792 l 1,13,-1
 1280 1920 l 1,14,-1
 1280 1920 l 1,0,-1
EndSplineSet
EndChar

StartChar: uniF04E
Encoding: 61518 61518 80
Width: 2048
Flags: W
LayerCount: 2
Fore
SplineSet
1664 1024 m 1,0,-1
 1792 1024 l 1,1,-1
 1792 256 l 1,2,-1
 1024 256 l 1,3,-1
 1024 384 l 1,4,-1
 1573 384 l 1,5,-1
 275 1683 l 1,6,-1
 365 1773 l 1,7,-1
 1664 475 l 1,8,-1
 1664 1024 l 1,9,-1
 1664 1024 l 1,0,-1
EndSplineSet
EndChar

StartChar: uniF04F
Encoding: 61519 61519 81
Width: 2048
Flags: W
LayerCount: 2
Fore
SplineSet
1773 365 m 1,0,-1
 1683 275 l 1,1,-1
 384 1576 l 1,2,-1
 384 1024 l 1,3,-1
 256 1024 l 1,4,-1
 256 1792 l 1,5,-1
 1024 1792 l 1,6,-1
 1024 1664 l 1,7,-1
 476 1664 l 1,8,-1
 1773 365 l 1,9,-1
 1773 365 l 1,0,-1
EndSplineSet
EndChar

StartChar: uniF050
Encoding: 61520 61520 82
Width: 2048
Flags: W
LayerCount: 2
Fore
SplineSet
2048 1088 m 1,0,-1
 2048 960 l 1,1,-1
 250 960 l 1,2,-1
 653 557 l 1,3,-1
 563 467 l 1,4,-1
 6 1024 l 1,5,-1
 563 1581 l 1,6,-1
 653 1491 l 1,7,-1
 250 1088 l 1,8,-1
 2048 1088 l 1,9,-1
 2048 1088 l 1,0,-1
EndSplineSet
EndChar

StartChar: uniF051
Encoding: 61521 61521 83
Width: 2048
Flags: W
LayerCount: 2
Fore
SplineSet
1581 1485 m 1,0,-1
 1491 1395 l 1,1,-1
 1089 1796 l 1,2,-1
 1088 0 l 1,3,-1
 960 0 l 1,4,-1
 961 1799 l 1,5,-1
 557 1395 l 1,6,-1
 467 1485 l 1,7,-1
 1024 2042 l 1,8,-1
 1581 1485 l 1,9,-1
 1581 1485 l 1,0,-1
EndSplineSet
EndChar

StartChar: uniF052
Encoding: 61522 61522 84
Width: 2048
Flags: W
LayerCount: 2
Fore
SplineSet
1404 1001 m 1,0,-1
 1189 430 l 1,1,-1
 617 644 l 1,2,-1
 663 764 l 1,3,-1
 997 639 l 1,4,5
 936 759 936 759 904 889 c 128,-1,6
 872 1019 872 1019 872 1154 c 0,7,8
 872 1300 872 1300 912 1440 c 128,-1,9
 952 1580 952 1580 1035 1700 c 1,10,-1
 1141 1628 l 1,11,12
 1069 1524 1069 1524 1034 1403 c 128,-1,13
 999 1282 999 1282 999 1156 c 0,14,15
 999 1023 999 1023 1034 894.5 c 128,-1,16
 1069 766 1069 766 1136 651 c 1,17,-1
 1284 1047 l 1,18,-1
 1404 1001 l 1,0,-1
EndSplineSet
EndChar

StartChar: uniF053
Encoding: 61523 61523 85
Width: 2048
Flags: W
LayerCount: 2
Fore
SplineSet
1431 644 m 1,0,-1
 859 430 l 1,1,-1
 644 1001 l 1,2,-1
 764 1047 l 1,3,-1
 912 651 l 1,4,5
 979 766 979 766 1014 894.5 c 128,-1,6
 1049 1023 1049 1023 1049 1156 c 0,7,8
 1049 1282 1049 1282 1014 1403 c 128,-1,9
 979 1524 979 1524 907 1628 c 1,10,-1
 1013 1700 l 1,11,12
 1096 1580 1096 1580 1136 1440 c 128,-1,13
 1176 1300 1176 1300 1176 1154 c 0,14,15
 1176 1019 1176 1019 1144 889 c 128,-1,16
 1112 759 1112 759 1051 639 c 1,17,-1
 1385 764 l 1,18,-1
 1431 644 l 1,0,-1
EndSplineSet
EndChar

StartChar: uniF054
Encoding: 61524 61524 86
Width: 2048
Flags: W
LayerCount: 2
Fore
SplineSet
475 1536 m 1,0,-1
 2048 1536 l 1,1,-1
 2048 1408 l 1,2,-1
 475 1408 l 1,3,-1
 685 1197 l 1,4,-1
 595 1107 l 1,5,-1
 230 1472 l 1,6,-1
 595 1837 l 1,7,-1
 685 1747 l 1,8,-1
 475 1536 l 1,0,-1
128 1792 m 1,9,-1
 128 1152 l 1,10,-1
 0 1152 l 1,11,-1
 0 1792 l 1,12,-1
 128 1792 l 1,9,-1
1363 851 m 1,13,-1
 1453 941 l 1,14,-1
 1818 576 l 1,15,-1
 1453 211 l 1,16,-1
 1363 301 l 1,17,-1
 1573 512 l 1,18,-1
 0 512 l 1,19,-1
 0 640 l 1,20,-1
 1573 640 l 1,21,-1
 1363 851 l 1,13,-1
1920 256 m 1,22,-1
 1920 896 l 1,23,-1
 2048 896 l 1,24,-1
 2048 256 l 1,25,-1
 1920 256 l 1,22,-1
EndSplineSet
EndChar

StartChar: uniF055
Encoding: 61525 61525 87
Width: 2048
Flags: W
LayerCount: 2
Fore
SplineSet
2048 640 m 1,0,-1
 2048 512 l 1,1,-1
 250 512 l 1,2,-1
 413 349 l 1,3,-1
 323 259 l 1,4,-1
 6 576 l 1,5,-1
 323 893 l 1,6,-1
 413 803 l 1,7,-1
 250 640 l 1,8,-1
 2048 640 l 1,0,-1
1635 1245 m 1,9,-1
 1798 1408 l 1,10,-1
 0 1408 l 1,11,-1
 0 1536 l 1,12,-1
 1798 1536 l 1,13,-1
 1635 1699 l 1,14,-1
 1725 1789 l 1,15,-1
 2042 1472 l 1,16,-1
 1725 1155 l 1,17,-1
 1635 1245 l 1,9,-1
EndSplineSet
EndChar

StartChar: uniF056
Encoding: 61526 61526 88
Width: 2048
Flags: W
LayerCount: 2
Fore
SplineSet
259 1315 m 1,0,-1
 349 1405 l 1,1,-1
 1050 704 l 1,2,-1
 349 3 l 1,3,-1
 259 93 l 1,4,-1
 870 704 l 1,5,-1
 259 1315 l 1,0,-1
1789 1955 m 1,6,-1
 1178 1344 l 1,7,-1
 1789 733 l 1,8,-1
 1699 643 l 1,9,-1
 998 1344 l 1,10,-1
 1699 2045 l 1,11,-1
 1789 1955 l 1,6,-1
EndSplineSet
EndChar

StartChar: uniF057
Encoding: 61527 61527 89
Width: 2048
Flags: W
LayerCount: 2
Fore
SplineSet
1792 768 m 1,0,-1
 256 768 l 1,1,-1
 256 1280 l 1,2,-1
 384 1280 l 1,3,-1
 384 896 l 1,4,-1
 1664 896 l 1,5,-1
 1664 1280 l 1,6,-1
 1792 1280 l 1,7,-1
 1792 768 l 1,8,-1
 1792 768 l 1,0,-1
EndSplineSet
EndChar

StartChar: uniF058
Encoding: 61528 61528 90
Width: 2202
Flags: W
LayerCount: 2
Fore
SplineSet
896 1920 m 1,0,-1
 2202 1920 l 1,1,-1
 2202 128 l 1,2,-1
 896 128 l 1,3,-1
 0 1024 l 1,4,-1
 896 1920 l 1,0,-1
2074 256 m 1,5,-1
 2074 1792 l 1,6,-1
 949 1792 l 1,7,-1
 181 1024 l 1,8,-1
 949 256 l 1,9,-1
 2074 256 l 1,5,-1
941 1363 m 1,10,-1
 1032 1453 l 1,11,-1
 1371 1115 l 1,12,-1
 1709 1453 l 1,13,-1
 1800 1363 l 1,14,-1
 1461 1024 l 1,15,-1
 1800 685 l 1,16,-1
 1709 595 l 1,17,-1
 1371 933 l 1,18,-1
 1032 595 l 1,19,-1
 941 685 l 1,20,-1
 1280 1024 l 1,21,-1
 941 1363 l 1,10,-1
EndSplineSet
EndChar

StartChar: uniF059
Encoding: 61529 61529 91
Width: 2048
Flags: W
LayerCount: 2
Fore
SplineSet
0 768 m 1,0,-1
 0 896 l 1,1,-1
 128 896 l 1,2,-1
 128 768 l 1,3,-1
 0 768 l 1,0,-1
0 1152 m 1,4,-1
 0 1280 l 1,5,-1
 128 1280 l 1,6,-1
 128 1152 l 1,7,-1
 0 1152 l 1,4,-1
384 1152 m 1,8,-1
 384 1280 l 1,9,-1
 2048 1280 l 1,10,-1
 2048 1152 l 1,11,-1
 384 1152 l 1,8,-1
0 1536 m 1,12,-1
 0 1664 l 1,13,-1
 128 1664 l 1,14,-1
 128 1536 l 1,15,-1
 0 1536 l 1,12,-1
384 1664 m 1,16,-1
 2048 1664 l 1,17,-1
 2048 1536 l 1,18,-1
 384 1536 l 1,19,-1
 384 1664 l 1,16,-1
384 768 m 1,20,-1
 384 896 l 1,21,-1
 2048 896 l 1,22,-1
 2048 768 l 1,23,-1
 384 768 l 1,20,-1
0 384 m 1,24,-1
 0 512 l 1,25,-1
 128 512 l 1,26,-1
 128 384 l 1,27,-1
 0 384 l 1,24,-1
384 384 m 1,28,-1
 384 512 l 1,29,-1
 2048 512 l 1,30,-1
 2048 384 l 1,31,-1
 384 384 l 1,28,-1
EndSplineSet
EndChar

StartChar: uniF05A
Encoding: 61530 61530 92
Width: 2048
Flags: W
LayerCount: 2
Fore
SplineSet
384 256 m 1,0,-1
 384 384 l 1,1,-1
 2048 384 l 1,2,-1
 2048 256 l 1,3,-1
 384 256 l 1,0,-1
0 1664 m 1,4,-1
 0 1792 l 1,5,-1
 128 1792 l 1,6,-1
 128 1664 l 1,7,-1
 0 1664 l 1,4,-1
0 640 m 1,8,-1
 0 768 l 1,9,-1
 128 768 l 1,10,-1
 128 640 l 1,11,-1
 0 640 l 1,8,-1
384 640 m 1,12,-1
 384 768 l 1,13,-1
 2048 768 l 1,14,-1
 2048 640 l 1,15,-1
 384 640 l 1,12,-1
384 1792 m 1,16,-1
 2048 1792 l 1,17,-1
 2048 1664 l 1,18,-1
 384 1664 l 1,19,-1
 384 1792 l 1,16,-1
384 1280 m 1,20,-1
 384 1408 l 1,21,-1
 2048 1408 l 1,22,-1
 2048 1280 l 1,23,-1
 384 1280 l 1,20,-1
EndSplineSet
EndChar

StartChar: uniF05B
Encoding: 61531 61531 93
Width: 2048
Flags: W
LayerCount: 2
Fore
SplineSet
0 1536 m 1,0,-1
 0 1664 l 1,1,-1
 128 1664 l 1,2,-1
 128 1536 l 1,3,-1
 0 1536 l 1,0,-1
384 1664 m 1,4,-1
 2048 1664 l 1,5,-1
 2048 1536 l 1,6,-1
 384 1536 l 1,7,-1
 384 1664 l 1,4,-1
0 384 m 1,8,-1
 0 512 l 1,9,-1
 128 512 l 1,10,-1
 128 384 l 1,11,-1
 0 384 l 1,8,-1
384 384 m 1,12,-1
 384 512 l 1,13,-1
 2048 512 l 1,14,-1
 2048 384 l 1,15,-1
 384 384 l 1,12,-1
896 1152 m 1,16,-1
 896 1280 l 1,17,-1
 2048 1280 l 1,18,-1
 2048 1152 l 1,19,-1
 896 1152 l 1,16,-1
1408 768 m 1,20,-1
 1408 896 l 1,21,-1
 2048 896 l 1,22,-1
 2048 768 l 1,23,-1
 1408 768 l 1,20,-1
EndSplineSet
EndChar

StartChar: uniF05C
Encoding: 61532 61532 94
Width: 2048
Flags: W
LayerCount: 2
Fore
SplineSet
0.125 1408 m 1,0,-1
 2048 1408 l 1,1,-1
 2048 1536 l 1,2,-1
 0.125 1536 l 1,3,-1
 0.125 1408 l 1,4,-1
 0.125 1408 l 1,0,-1
0.125 384 m 1,5,-1
 2048 384 l 1,6,-1
 2048 512 l 1,7,-1
 0.125 512 l 1,8,-1
 0.125 384 l 1,9,-1
 0.125 384 l 1,5,-1
0.125 897 m 1,10,-1
 2048 897 l 1,11,-1
 2048 1024 l 1,12,-1
 0.125 1024 l 1,13,-1
 0.125 897 l 1,14,-1
 0.125 897 l 1,10,-1
EndSplineSet
EndChar

StartChar: uniF05D
Encoding: 61533 61533 95
Width: 2048
Flags: W
LayerCount: 2
Fore
SplineSet
0 1280 m 1,0,-1
 2048 1280 l 1,1,-1
 2048 1152 l 1,2,-1
 0 1152 l 1,3,-1
 0 1280 l 1,0,-1
0 768 m 1,4,-1
 0 896 l 1,5,-1
 2048 896 l 1,6,-1
 2048 768 l 1,7,-1
 0 768 l 1,4,-1
EndSplineSet
EndChar

StartChar: uniF05E
Encoding: 61534 61534 96
Width: 2048
Flags: W
LayerCount: 2
Fore
SplineSet
0 512 m 1,0,-1
 0 640 l 1,1,-1
 1280 640 l 1,2,-1
 1280 512 l 1,3,-1
 0 512 l 1,0,-1
0 1152 m 1,4,-1
 2048 1152 l 1,5,-1
 2048 1024 l 1,6,-1
 0 1024 l 1,7,-1
 0 1152 l 1,4,-1
1664 1664 m 1,8,-1
 1664 1536 l 1,9,-1
 0 1536 l 1,10,-1
 0 1664 l 1,11,-1
 1664 1664 l 1,8,-1
EndSplineSet
EndChar

StartChar: uniF05F
Encoding: 61535 61535 97
Width: 2048
Flags: W
LayerCount: 2
Fore
SplineSet
768 1664 m 1,0,-1
 2048 1664 l 1,1,-1
 2048 1536 l 1,2,-1
 768 1536 l 1,3,-1
 768 1664 l 1,0,-1
768 1152 m 1,4,-1
 768 1280 l 1,5,-1
 2048 1280 l 1,6,-1
 2048 1152 l 1,7,-1
 768 1152 l 1,4,-1
768 768 m 1,8,-1
 768 896 l 1,9,-1
 2048 896 l 1,10,-1
 2048 768 l 1,11,-1
 768 768 l 1,8,-1
768 384 m 1,12,-1
 768 512 l 1,13,-1
 2048 512 l 1,14,-1
 2048 384 l 1,15,-1
 768 384 l 1,12,-1
192 772 m 1,16,-1
 478 1058 l 1,17,-1
 546 990 l 1,18,-1
 192 636 l 1,19,-1
 14 814 l 1,20,-1
 82 882 l 1,21,-1
 192 772 l 1,16,-1
192 1540 m 1,22,-1
 478 1826 l 1,23,-1
 546 1758 l 1,24,-1
 192 1404 l 1,25,-1
 14 1582 l 1,26,-1
 82 1650 l 1,27,-1
 192 1540 l 1,22,-1
EndSplineSet
EndChar

StartChar: uniF060
Encoding: 61536 61536 98
Width: 2048
Flags: W
LayerCount: 2
Fore
SplineSet
1294 1664 m 1,0,-1
 1294 1536 l 1,1,-1
 14 1536 l 1,2,-1
 14 1664 l 1,3,-1
 1294 1664 l 1,4,-1
 1294 1664 l 1,0,-1
1294 1152 m 1,5,-1
 14 1152 l 1,6,-1
 14 1280 l 1,7,-1
 1294 1280 l 1,8,-1
 1294 1152 l 1,9,-1
 1294 1152 l 1,5,-1
1294 768 m 1,10,-1
 14 768 l 1,11,-1
 14 896 l 1,12,-1
 1294 896 l 1,13,-1
 1294 768 l 1,14,-1
 1294 768 l 1,10,-1
1294 384 m 1,15,-1
 14 384 l 1,16,-1
 14 512 l 1,17,-1
 1294 512 l 1,18,-1
 1294 384 l 1,19,-1
 1294 384 l 1,15,-1
1694 772 m 1,20,-1
 1980 1058 l 1,21,-1
 2048 990 l 1,22,-1
 1694 636 l 1,23,-1
 1516 814 l 1,24,-1
 1584 882 l 1,25,-1
 1694 772 l 1,26,-1
 1694 772 l 1,20,-1
1694 1540 m 1,27,-1
 1980 1826 l 1,28,-1
 2048 1758 l 1,29,-1
 1694 1404 l 1,30,-1
 1516 1582 l 1,31,-1
 1584 1650 l 1,32,-1
 1694 1540 l 1,33,-1
 1694 1540 l 1,27,-1
EndSplineSet
EndChar

StartChar: uniF061
Encoding: 61537 61537 99
Width: 2048
Flags: W
LayerCount: 2
Fore
SplineSet
1024 1664 m 1,0,-1
 2048 1664 l 1,1,-1
 2048 1536 l 1,2,-1
 1024 1536 l 1,3,-1
 1024 1664 l 1,0,-1
1024 512 m 1,4,-1
 1024 640 l 1,5,-1
 2048 640 l 1,6,-1
 2048 512 l 1,7,-1
 1024 512 l 1,4,-1
1024 1024 m 1,8,-1
 1024 1152 l 1,9,-1
 2048 1152 l 1,10,-1
 2048 1024 l 1,11,-1
 1024 1024 l 1,8,-1
1792 1408 m 1,12,-1
 1792 1280 l 1,13,-1
 1024 1280 l 1,14,-1
 1024 1408 l 1,15,-1
 1792 1408 l 1,12,-1
1792 896 m 1,16,-1
 1792 768 l 1,17,-1
 1024 768 l 1,18,-1
 1024 896 l 1,19,-1
 1792 896 l 1,16,-1
413 1315 m 1,20,-1
 250 1152 l 1,21,-1
 896 1152 l 1,22,-1
 896 1024 l 1,23,-1
 250 1024 l 1,24,-1
 413 861 l 1,25,-1
 323 771 l 1,26,-1
 6 1088 l 1,27,-1
 323 1405 l 1,28,-1
 413 1315 l 1,20,-1
EndSplineSet
EndChar

StartChar: uniF062
Encoding: 61538 61538 100
Width: 2048
Flags: W
LayerCount: 2
Fore
SplineSet
1024 1664 m 1,0,-1
 2048 1664 l 1,1,-1
 2048 1536 l 1,2,-1
 1024 1536 l 1,3,-1
 1024 1664 l 1,0,-1
1024 512 m 1,4,-1
 1024 640 l 1,5,-1
 2048 640 l 1,6,-1
 2048 512 l 1,7,-1
 1024 512 l 1,4,-1
1024 1024 m 1,8,-1
 1024 1152 l 1,9,-1
 2048 1152 l 1,10,-1
 2048 1024 l 1,11,-1
 1024 1024 l 1,8,-1
1792 1408 m 1,12,-1
 1792 1280 l 1,13,-1
 1024 1280 l 1,14,-1
 1024 1408 l 1,15,-1
 1792 1408 l 1,12,-1
1792 896 m 1,16,-1
 1792 768 l 1,17,-1
 1024 768 l 1,18,-1
 1024 896 l 1,19,-1
 1792 896 l 1,16,-1
483 1315 m 1,20,-1
 573 1405 l 1,21,-1
 890 1088 l 1,22,-1
 573 771 l 1,23,-1
 483 861 l 1,24,-1
 646 1024 l 1,25,-1
 0 1024 l 1,26,-1
 0 1152 l 1,27,-1
 646 1152 l 1,28,-1
 483 1315 l 1,20,-1
EndSplineSet
EndChar

StartChar: uniF063
Encoding: 61539 61539 101
Width: 2048
Flags: W
LayerCount: 2
Fore
SplineSet
1024.0625 1664 m 1,0,-1
 0.125 1664 l 1,1,-1
 0.125 1536 l 1,2,-1
 1024.0625 1536 l 1,3,-1
 1024.0625 1664 l 1,0,-1
1024.0625 512 m 1,4,-1
 1024.0625 640 l 1,5,-1
 0.125 640 l 1,6,-1
 0.125 512 l 1,7,-1
 1024.0625 512 l 1,4,-1
1024.0625 1024 m 1,8,-1
 1024.0625 1152 l 1,9,-1
 0.125 1152 l 1,10,-1
 0.125 1024 l 1,11,-1
 1024.0625 1024 l 1,8,-1
256.109375 1408 m 1,12,-1
 256.109375 1280 l 1,13,-1
 1024.0625 1280 l 1,14,-1
 1024.0625 1408 l 1,15,-1
 256.109375 1408 l 1,12,-1
256.109375 896 m 1,16,-1
 256.109375 768 l 1,17,-1
 1024.0625 768 l 1,18,-1
 1024.0625 896 l 1,19,-1
 256.109375 896 l 1,16,-1
1565.02929688 1315 m 1,20,-1
 1475.03515625 1405 l 1,21,-1
 1158.0546875 1088 l 1,22,-1
 1475.03515625 771 l 1,23,-1
 1565.02929688 861 l 1,24,-1
 1402.0390625 1024 l 1,25,-1
 2048 1024 l 1,26,-1
 2048 1152 l 1,27,-1
 1402.0390625 1152 l 1,28,-1
 1565.02929688 1315 l 1,20,-1
EndSplineSet
EndChar

StartChar: uniF064
Encoding: 61540 61540 102
Width: 2048
Flags: W
LayerCount: 2
Fore
SplineSet
768 1536 m 1,0,-1
 2048 1536 l 1,1,-1
 2048 1408 l 1,2,-1
 768 1408 l 1,3,-1
 768 1536 l 1,0,-1
768 896 m 1,4,-1
 768 1024 l 1,5,-1
 2048 1024 l 1,6,-1
 2048 896 l 1,7,-1
 768 896 l 1,4,-1
768 384 m 1,8,-1
 768 512 l 1,9,-1
 2048 512 l 1,10,-1
 2048 384 l 1,11,-1
 768 384 l 1,8,-1
255 1280 m 1,12,-1
 0 1536 l 1,13,-1
 512 1536 l 1,14,-1
 255 1280 l 1,12,-1
EndSplineSet
EndChar

StartChar: uniF065
Encoding: 61541 61541 103
Width: 2048
Flags: W
LayerCount: 2
Fore
SplineSet
2048 1024 m 1,0,-1
 640 1024 l 1,1,-1
 640 1152 l 1,2,-1
 2048 1152 l 1,3,-1
 2048 1024 l 1,4,-1
 2048 1024 l 1,0,-1
257 1152 m 1,5,-1
 0 896 l 1,6,-1
 512 896 l 1,7,-1
 257 1152 l 1,8,-1
 257 1152 l 1,5,-1
EndSplineSet
EndChar

StartChar: uniF066
Encoding: 61542 61542 104
Width: 2048
Flags: W
LayerCount: 2
Fore
SplineSet
0 384 m 1,0,-1
 0 768 l 1,1,-1
 384 768 l 1,2,-1
 384 384 l 1,3,-1
 0 384 l 1,0,-1
128 640 m 1,4,-1
 128 512 l 1,5,-1
 256 512 l 1,6,-1
 256 640 l 1,7,-1
 128 640 l 1,4,-1
0 896 m 1,8,-1
 0 1280 l 1,9,-1
 384 1280 l 1,10,-1
 384 896 l 1,11,-1
 0 896 l 1,8,-1
128 1152 m 1,12,-1
 128 1024 l 1,13,-1
 256 1024 l 1,14,-1
 256 1152 l 1,15,-1
 128 1152 l 1,12,-1
0 1408 m 1,16,-1
 0 1792 l 1,17,-1
 384 1792 l 1,18,-1
 384 1408 l 1,19,-1
 0 1408 l 1,16,-1
128 1664 m 1,20,-1
 128 1536 l 1,21,-1
 256 1536 l 1,22,-1
 256 1664 l 1,23,-1
 128 1664 l 1,20,-1
640 1024 m 1,24,-1
 640 1152 l 1,25,-1
 2048 1152 l 1,26,-1
 2048 1024 l 1,27,-1
 640 1024 l 1,24,-1
640 1664 m 1,28,-1
 2048 1664 l 1,29,-1
 2048 1536 l 1,30,-1
 640 1536 l 1,31,-1
 640 1664 l 1,28,-1
640 512 m 1,32,-1
 640 640 l 1,33,-1
 2048 640 l 1,34,-1
 2048 512 l 1,35,-1
 640 512 l 1,32,-1
EndSplineSet
EndChar

StartChar: uniF067
Encoding: 61543 61543 105
Width: 2048
Flags: W
LayerCount: 2
Fore
SplineSet
2045 829 m 1,0,-1
 1728 1146 l 1,1,-1
 1411 829 l 1,2,-1
 1501 739 l 1,3,-1
 1663 902 l 1,4,-1
 1663 319 l 1,5,-1
 1792 319 l 1,6,-1
 1792 902 l 1,7,-1
 1955 739 l 1,8,-1
 2045 829 l 1,9,-1
 2045 829 l 1,0,-1
1792 1663 m 1,10,-1
 639 1663 l 1,11,-1
 639 1792 l 1,12,-1
 1792 1792 l 1,13,-1
 1792 1663 l 1,14,-1
 1792 1663 l 1,10,-1
1536 383 m 1,15,-1
 639 383 l 1,16,-1
 639 512 l 1,17,-1
 1536 512 l 1,18,-1
 1536 383 l 1,19,-1
 1536 383 l 1,15,-1
384 1536 m 1,20,-1
 0 1536 l 1,21,-1
 0 1920 l 1,22,-1
 384 1920 l 1,23,-1
 384 1536 l 1,24,-1
 384 1536 l 1,20,-1
128 1664 m 1,25,-1
 256 1664 l 1,26,-1
 256 1792 l 1,27,-1
 128 1792 l 1,28,-1
 128 1664 l 1,29,-1
 128 1664 l 1,25,-1
384 896 m 1,30,-1
 0 896 l 1,31,-1
 0 1280 l 1,32,-1
 384 1280 l 1,33,-1
 384 896 l 1,34,-1
 384 896 l 1,30,-1
128 1024 m 1,35,-1
 256 1024 l 1,36,-1
 256 1152 l 1,37,-1
 128 1152 l 1,38,-1
 128 1024 l 1,39,-1
 128 1024 l 1,35,-1
384 256 m 1,40,-1
 0 256 l 1,41,-1
 0 640 l 1,42,-1
 384 640 l 1,43,-1
 384 256 l 1,44,-1
 384 256 l 1,40,-1
128 384 m 1,45,-1
 256 384 l 1,46,-1
 256 512 l 1,47,-1
 128 512 l 1,48,-1
 128 384 l 1,49,-1
 128 384 l 1,45,-1
1408 1024 m 1,50,-1
 640 1024 l 1,51,-1
 640 1152 l 1,52,-1
 1536 1152 l 1,53,-1
 1408 1024 l 1,54,-1
 1408 1024 l 1,50,-1
EndSplineSet
EndChar

StartChar: uniF068
Encoding: 61544 61544 106
Width: 2048
Flags: W
LayerCount: 2
Fore
SplineSet
2048 1664 m 1,0,-1
 2048 1536 l 1,1,-1
 0 1536 l 1,2,-1
 0 1664 l 1,3,-1
 2048 1664 l 1,0,-1
0 1280 m 1,4,-1
 2048 1280 l 1,5,-1
 2048 1152 l 1,6,-1
 0 1152 l 1,7,-1
 0 1280 l 1,4,-1
1280 384 m 1,8,-1
 0 384 l 1,9,-1
 0 512 l 1,10,-1
 1280 512 l 1,11,-1
 1280 384 l 1,8,-1
1408 802 m 1,12,-1
 2048 962 l 1,13,-1
 2048 256 l 2,14,15
 2048 225 2048 225 2033.5 201.5 c 128,-1,16
 2019 178 2019 178 1995.5 161.5 c 128,-1,17
 1972 145 1972 145 1943.5 136.5 c 128,-1,18
 1915 128 1915 128 1888 128 c 256,19,20
 1861 128 1861 128 1832.5 136.5 c 128,-1,21
 1804 145 1804 145 1780.5 161.5 c 128,-1,22
 1757 178 1757 178 1742.5 201.5 c 128,-1,23
 1728 225 1728 225 1728 256 c 256,24,25
 1728 287 1728 287 1742.5 310.5 c 128,-1,26
 1757 334 1757 334 1780.5 350.5 c 128,-1,27
 1804 367 1804 367 1832.5 375.5 c 128,-1,28
 1861 384 1861 384 1888 384 c 0,29,30
 1903 384 1903 384 1920 381 c 1,31,-1
 1920 798 l 1,32,-1
 1536 702 l 1,33,-1
 1536 128 l 2,34,35
 1536 96 1536 96 1520 72 c 128,-1,36
 1504 48 1504 48 1479.5 32 c 128,-1,37
 1455 16 1455 16 1425 8 c 128,-1,38
 1395 0 1395 0 1368 0 c 256,39,40
 1341 0 1341 0 1311 8 c 128,-1,41
 1281 16 1281 16 1256.5 32 c 128,-1,42
 1232 48 1232 48 1216 72 c 128,-1,43
 1200 96 1200 96 1200 128 c 256,44,45
 1200 160 1200 160 1216 184 c 128,-1,46
 1232 208 1232 208 1256.5 224 c 128,-1,47
 1281 240 1281 240 1311 248 c 128,-1,48
 1341 256 1341 256 1368 256 c 0,49,50
 1378 256 1378 256 1388 255 c 128,-1,51
 1398 254 1398 254 1408 252 c 1,52,-1
 1408 802 l 1,12,-1
1280 768 m 1,53,-1
 0 768 l 1,54,-1
 0 896 l 1,55,-1
 1280 896 l 1,56,-1
 1280 768 l 1,53,-1
EndSplineSet
EndChar

StartChar: uniF069
Encoding: 61545 61545 107
Width: 2048
Flags: W
LayerCount: 2
Fore
SplineSet
0 1920 m 1,0,-1
 2048 1920 l 1,1,-1
 2048 1792 l 1,2,-1
 0 1792 l 1,3,-1
 0 1920 l 1,0,-1
0 256 m 1,4,-1
 0 384 l 1,5,-1
 2048 384 l 1,6,-1
 2048 256 l 1,7,-1
 0 256 l 1,4,-1
0 1024 m 1,8,-1
 0 1152 l 1,9,-1
 2048 1152 l 1,10,-1
 2048 1024 l 1,11,-1
 0 1024 l 1,8,-1
512 1408 m 1,12,-1
 512 1536 l 1,13,-1
 2048 1536 l 1,14,-1
 2048 1408 l 1,15,-1
 512 1408 l 1,12,-1
512 640 m 1,16,-1
 512 768 l 1,17,-1
 2048 768 l 1,18,-1
 2048 640 l 1,19,-1
 512 640 l 1,16,-1
EndSplineSet
EndChar

StartChar: uniF06A
Encoding: 61546 61546 108
Width: 2048
Flags: W
LayerCount: 2
Fore
SplineSet
0 1920 m 1,0,-1
 2048 1920 l 1,1,-1
 2048 1792 l 1,2,-1
 0 1792 l 1,3,-1
 0 1920 l 1,0,-1
256 1536 m 1,4,-1
 1792 1536 l 1,5,-1
 1792 1408 l 1,6,-1
 256 1408 l 1,7,-1
 256 1536 l 1,4,-1
256 768 m 1,8,-1
 1792 768 l 1,9,-1
 1792 640 l 1,10,-1
 256 640 l 1,11,-1
 256 768 l 1,8,-1
0 256 m 1,12,-1
 0 384 l 1,13,-1
 2048 384 l 1,14,-1
 2048 256 l 1,15,-1
 0 256 l 1,12,-1
0 1024 m 1,16,-1
 0 1152 l 1,17,-1
 2048 1152 l 1,18,-1
 2048 1024 l 1,19,-1
 0 1024 l 1,16,-1
EndSplineSet
EndChar

StartChar: uniF06B
Encoding: 61547 61547 109
Width: 2048
Flags: W
LayerCount: 2
Fore
SplineSet
2048 1920 m 1,0,-1
 2048 1792 l 1,1,-1
 0 1792 l 1,2,-1
 0 1920 l 1,3,-1
 2048 1920 l 1,0,-1
2048 256 m 1,4,-1
 0 256 l 1,5,-1
 0 384 l 1,6,-1
 2048 384 l 1,7,-1
 2048 256 l 1,4,-1
2048 1024 m 1,8,-1
 0 1024 l 1,9,-1
 0 1152 l 1,10,-1
 2048 1152 l 1,11,-1
 2048 1024 l 1,8,-1
1536 1408 m 1,12,-1
 0 1408 l 1,13,-1
 0 1536 l 1,14,-1
 1536 1536 l 1,15,-1
 1536 1408 l 1,12,-1
1536 640 m 1,16,-1
 0 640 l 1,17,-1
 0 768 l 1,18,-1
 1536 768 l 1,19,-1
 1536 640 l 1,16,-1
EndSplineSet
EndChar

StartChar: uniF06C
Encoding: 61548 61548 110
Width: 2048
Flags: W
LayerCount: 2
Fore
SplineSet
1747 1581 m 1,0,-1
 1837 1491 l 1,1,-1
 768 421 l 1,2,-1
 211 979 l 1,3,-1
 301 1069 l 1,4,-1
 768 603 l 1,5,-1
 1747 1581 l 1,6,-1
 1747 1581 l 1,0,-1
EndSplineSet
EndChar

StartChar: uniF06D
Encoding: 61549 61549 111
Width: 2048
Flags: W
LayerCount: 2
Fore
SplineSet
1805 1715 m 1,0,-1
 1115 1024 l 1,1,-1
 1805 333 l 1,2,-1
 1715 243 l 1,3,-1
 1024 933 l 1,4,-1
 333 243 l 1,5,-1
 243 333 l 1,6,-1
 933 1024 l 1,7,-1
 243 1715 l 1,8,-1
 333 1805 l 1,9,-1
 1024 1115 l 1,10,-1
 1715 1805 l 1,11,-1
 1805 1715 l 1,12,-1
 1805 1715 l 1,0,-1
EndSplineSet
EndChar

StartChar: uniF06E
Encoding: 61550 61550 112
Width: 2048
Flags: W
LayerCount: 2
Fore
SplineSet
0 2048 m 1,0,-1
 2048 2048 l 1,1,-1
 2048 0 l 1,2,-1
 0 0 l 1,3,-1
 0 2048 l 1,0,-1
768 421 m 1,4,-1
 1709 1363 l 1,5,-1
 1619 1453 l 1,6,-1
 768 603 l 1,7,-1
 429 941 l 1,8,-1
 339 851 l 1,9,-1
 768 421 l 1,4,-1
EndSplineSet
EndChar

StartChar: uniF06F
Encoding: 61551 61551 113
Width: 2048
Flags: W
LayerCount: 2
Fore
SplineSet
0 2048 m 1,0,-1
 2048 2048 l 1,1,-1
 2048 0 l 1,2,-1
 0 0 l 1,3,-1
 0 2048 l 1,0,-1
1920 128 m 1,4,-1
 1920 1920 l 1,5,-1
 128 1920 l 1,6,-1
 128 128 l 1,7,-1
 1920 128 l 1,4,-1
768 421 m 1,8,-1
 339 851 l 1,9,-1
 429 941 l 1,10,-1
 768 603 l 1,11,-1
 1619 1453 l 1,12,-1
 1709 1363 l 1,13,-1
 768 421 l 1,14,-1
 768 421 l 1,8,-1
EndSplineSet
EndChar

StartChar: uniF070
Encoding: 61552 61552 114
Width: 2048
Flags: W
LayerCount: 2
Fore
SplineSet
0 2048 m 1,0,-1
 2048 2048 l 1,1,-1
 2048 0 l 1,2,-1
 0 0 l 1,3,-1
 0 2048 l 1,4,-1
 0 2048 l 1,0,-1
EndSplineSet
EndChar

StartChar: uniF071
Encoding: 61553 61553 115
Width: 2048
Flags: W
LayerCount: 2
Fore
SplineSet
0 2048 m 1,0,-1
 2048 2048 l 1,1,-1
 2048 0 l 1,2,-1
 0 0 l 1,3,-1
 0 2048 l 1,0,-1
1920 128 m 1,4,-1
 1920 1920 l 1,5,-1
 128 1920 l 1,6,-1
 128 128 l 1,7,-1
 1920 128 l 1,4,-1
EndSplineSet
EndChar

StartChar: uniF072
Encoding: 61554 61554 116
Width: 2048
Flags: W
LayerCount: 2
Fore
SplineSet
512 1536 m 1,0,-1
 1536 1536 l 1,1,-1
 1536 512 l 1,2,-1
 512 512 l 1,3,-1
 512 1536 l 1,4,-1
 512 1536 l 1,0,-1
EndSplineSet
EndChar

StartChar: uniF073
Encoding: 61555 61555 117
Width: 2048
Flags: W
LayerCount: 2
Fore
SplineSet
512 1536 m 1,0,-1
 1536 1536 l 1,1,-1
 1536 512 l 1,2,-1
 512 512 l 1,3,-1
 512 1536 l 1,0,-1
1408 640 m 1,4,-1
 1408 1408 l 1,5,-1
 640 1408 l 1,6,-1
 640 640 l 1,7,-1
 1408 640 l 1,4,-1
EndSplineSet
EndChar

StartChar: uniF074
Encoding: 61556 61556 118
Width: 2048
Flags: W
LayerCount: 2
Fore
SplineSet
1088 2048 m 1,0,-1
 1088 1664 l 1,1,-1
 960 1664 l 1,2,-1
 960 2048 l 1,3,-1
 1088 2048 l 1,0,-1
960 0 m 1,4,-1
 960 384 l 1,5,-1
 1088 384 l 1,6,-1
 1088 0 l 1,7,-1
 960 0 l 1,4,-1
1664 1088 m 1,8,-1
 2048 1088 l 1,9,-1
 2048 960 l 1,10,-1
 1664 960 l 1,11,-1
 1664 1088 l 1,8,-1
384 1088 m 1,12,-1
 384 960 l 1,13,-1
 0 960 l 1,14,-1
 0 1088 l 1,15,-1
 384 1088 l 1,12,-1
83 1875 m 1,16,-1
 173 1965 l 1,17,-1
 429 1709 l 1,18,-1
 339 1619 l 1,19,-1
 83 1875 l 1,16,-1
1965 1875 m 1,20,-1
 1709 1619 l 1,21,-1
 1619 1709 l 1,22,-1
 1875 1965 l 1,23,-1
 1965 1875 l 1,20,-1
83 173 m 1,24,-1
 339 429 l 1,25,-1
 429 339 l 1,26,-1
 173 83 l 1,27,-1
 83 173 l 1,24,-1
1619 339 m 1,28,-1
 1709 429 l 1,29,-1
 1965 173 l 1,30,-1
 1875 83 l 1,31,-1
 1619 339 l 1,28,-1
512 512 m 1,32,-1
 512 1536 l 1,33,-1
 1536 1536 l 1,34,-1
 1536 512 l 1,35,-1
 512 512 l 1,32,-1
640 1408 m 1,36,-1
 640 640 l 1,37,-1
 1408 640 l 1,38,-1
 1408 1408 l 1,39,-1
 640 1408 l 1,36,-1
EndSplineSet
EndChar

StartChar: uniF075
Encoding: 61557 61557 119
Width: 2048
Flags: W
LayerCount: 2
Fore
SplineSet
1024 2048 m 256,0,1
 1165 2048 1165 2048 1296 2011.5 c 128,-1,2
 1427 1975 1427 1975 1540.5 1908 c 128,-1,3
 1654 1841 1654 1841 1747.5 1747.5 c 128,-1,4
 1841 1654 1841 1654 1908 1540.5 c 128,-1,5
 1975 1427 1975 1427 2011.5 1296 c 128,-1,6
 2048 1165 2048 1165 2048 1024 c 256,7,8
 2048 883 2048 883 2011.5 752 c 128,-1,9
 1975 621 1975 621 1908 507.5 c 128,-1,10
 1841 394 1841 394 1747.5 300.5 c 128,-1,11
 1654 207 1654 207 1540.5 140 c 128,-1,12
 1427 73 1427 73 1296 36.5 c 128,-1,13
 1165 0 1165 0 1024 0 c 256,14,15
 883 0 883 0 752 36.5 c 128,-1,16
 621 73 621 73 507.5 140 c 128,-1,17
 394 207 394 207 300.5 300.5 c 128,-1,18
 207 394 207 394 140 507.5 c 128,-1,19
 73 621 73 621 36.5 752 c 128,-1,20
 0 883 0 883 0 1024 c 256,21,22
 0 1165 0 1165 36.5 1296 c 128,-1,23
 73 1427 73 1427 140 1540.5 c 128,-1,24
 207 1654 207 1654 300.5 1747.5 c 128,-1,25
 394 1841 394 1841 507.5 1908 c 128,-1,26
 621 1975 621 1975 752 2011.5 c 128,-1,27
 883 2048 883 2048 1024 2048 c 256,0,1
1137 1024 m 1,28,-1
 1479 1366 l 1,29,-1
 1366 1479 l 1,30,-1
 1024 1137 l 1,31,-1
 682 1479 l 1,32,-1
 569 1366 l 1,33,-1
 911 1024 l 1,34,-1
 569 682 l 1,35,-1
 682 569 l 1,36,-1
 1024 911 l 1,37,-1
 1366 569 l 1,38,-1
 1479 682 l 1,39,-1
 1137 1024 l 1,28,-1
EndSplineSet
EndChar

StartChar: uniF076
Encoding: 61558 61558 120
Width: 2048
Flags: W
LayerCount: 2
Fore
SplineSet
32 1024 m 256,0,1
 32 1161 32 1161 67.5 1288 c 128,-1,2
 103 1415 103 1415 167.5 1525 c 128,-1,3
 232 1635 232 1635 322.5 1725.5 c 128,-1,4
 413 1816 413 1816 523 1880.5 c 128,-1,5
 633 1945 633 1945 760 1980.5 c 128,-1,6
 887 2016 887 2016 1024 2016 c 256,7,8
 1161 2016 1161 2016 1288 1980.5 c 128,-1,9
 1415 1945 1415 1945 1525 1880.5 c 128,-1,10
 1635 1816 1635 1816 1725.5 1725.5 c 128,-1,11
 1816 1635 1816 1635 1880.5 1525 c 128,-1,12
 1945 1415 1945 1415 1980.5 1288 c 128,-1,13
 2016 1161 2016 1161 2016 1024 c 256,14,15
 2016 887 2016 887 1980.5 760 c 128,-1,16
 1945 633 1945 633 1880.5 523 c 128,-1,17
 1816 413 1816 413 1725.5 322.5 c 128,-1,18
 1635 232 1635 232 1525 167.5 c 128,-1,19
 1415 103 1415 103 1288 67.5 c 128,-1,20
 1161 32 1161 32 1024 32 c 256,21,22
 887 32 887 32 760 67.5 c 128,-1,23
 633 103 633 103 523 167.5 c 128,-1,24
 413 232 413 232 322.5 322.5 c 128,-1,25
 232 413 232 413 167.5 523 c 128,-1,26
 103 633 103 633 67.5 760 c 128,-1,27
 32 887 32 887 32 1024 c 256,0,1
EndSplineSet
EndChar

StartChar: uniF077
Encoding: 61559 61559 121
Width: 2048
Flags: W
LayerCount: 2
Fore
SplineSet
1024 2048 m 260,0,1
 1165 2048 1165 2048 1296 2011.5 c 132,-1,2
 1427 1975 1427 1975 1540.5 1908 c 132,-1,3
 1654 1841 1654 1841 1747.5 1747.5 c 132,-1,4
 1841 1654 1841 1654 1908 1540.5 c 132,-1,5
 1975 1427 1975 1427 2011.5 1296 c 132,-1,6
 2048 1165 2048 1165 2048 1024 c 260,7,8
 2048 883 2048 883 2011.5 752 c 132,-1,9
 1975 621 1975 621 1908 507.5 c 132,-1,10
 1841 394 1841 394 1747.5 300.5 c 132,-1,11
 1654 207 1654 207 1540.5 140 c 132,-1,12
 1427 73 1427 73 1296 36.5 c 132,-1,13
 1165 0 1165 0 1024 0 c 260,14,15
 883 0 883 0 752 36.5 c 132,-1,16
 621 73 621 73 507.5 140 c 132,-1,17
 394 207 394 207 300.5 300.5 c 132,-1,18
 207 394 207 394 140 507.5 c 132,-1,19
 73 621 73 621 36.5 752 c 132,-1,20
 0 883 0 883 0 1024 c 260,21,22
 0 1165 0 1165 36.5 1296 c 132,-1,23
 73 1427 73 1427 140 1540.5 c 132,-1,24
 207 1654 207 1654 300.5 1747.5 c 132,-1,25
 394 1841 394 1841 507.5 1908 c 132,-1,26
 621 1975 621 1975 752 2011.5 c 132,-1,27
 883 2048 883 2048 1024 2048 c 260,0,1
1024 128 m 260,28,29
 1148 128 1148 128 1262.5 160 c 132,-1,30
 1377 192 1377 192 1476.5 250.5 c 132,-1,31
 1576 309 1576 309 1657.5 390.5 c 132,-1,32
 1739 472 1739 472 1797.5 571.5 c 132,-1,33
 1856 671 1856 671 1888 785.5 c 132,-1,34
 1920 900 1920 900 1920 1024 c 260,35,36
 1920 1148 1920 1148 1888 1262.5 c 132,-1,37
 1856 1377 1856 1377 1797.5 1476.5 c 132,-1,38
 1739 1576 1739 1576 1657.5 1657.5 c 132,-1,39
 1576 1739 1576 1739 1476.5 1797.5 c 132,-1,40
 1377 1856 1377 1856 1262.5 1888 c 132,-1,41
 1148 1920 1148 1920 1024 1920 c 260,42,43
 900 1920 900 1920 785.5 1888 c 132,-1,44
 671 1856 671 1856 571.5 1797.5 c 132,-1,45
 472 1739 472 1739 390.5 1657.5 c 132,-1,46
 309 1576 309 1576 250.5 1476.5 c 132,-1,47
 192 1377 192 1377 160 1262.5 c 132,-1,48
 128 1148 128 1148 128 1024 c 260,49,50
 128 900 128 900 160 785.5 c 132,-1,51
 192 671 192 671 250.5 571.5 c 132,-1,52
 309 472 309 472 390.5 390.5 c 132,-1,53
 472 309 472 309 571.5 250.5 c 132,-1,54
 671 192 671 192 785.5 160 c 132,-1,55
 900 128 900 128 1024 128 c 260,28,29
EndSplineSet
EndChar

StartChar: uniF078
Encoding: 61560 61560 122
Width: 2048
Flags: W
LayerCount: 2
Fore
SplineSet
1024 1664 m 256,0,1
 1156 1664 1156 1664 1272.5 1613.5 c 128,-1,2
 1389 1563 1389 1563 1476 1476 c 128,-1,3
 1563 1389 1563 1389 1613.5 1272.5 c 128,-1,4
 1664 1156 1664 1156 1664 1024 c 256,5,6
 1664 892 1664 892 1613.5 775.5 c 128,-1,7
 1563 659 1563 659 1476 572 c 128,-1,8
 1389 485 1389 485 1272.5 434.5 c 128,-1,9
 1156 384 1156 384 1024 384 c 256,10,11
 892 384 892 384 775.5 434.5 c 128,-1,12
 659 485 659 485 572 572 c 128,-1,13
 485 659 485 659 434.5 775.5 c 128,-1,14
 384 892 384 892 384 1024 c 256,15,16
 384 1156 384 1156 434.5 1272.5 c 128,-1,17
 485 1389 485 1389 572 1476 c 128,-1,18
 659 1563 659 1563 775.5 1613.5 c 128,-1,19
 892 1664 892 1664 1024 1664 c 256,0,1
EndSplineSet
EndChar

StartChar: uniF079
Encoding: 61561 61561 123
Width: 2048
Flags: W
LayerCount: 2
Fore
SplineSet
1748.07714844 1748.07714844 m 256,0,1
 1847.77929688 1648.375 1847.77929688 1648.375 1914.60058594 1529.93457031 c 128,-1,2
 1981.42285156 1411.49414062 1981.42285156 1411.49414062 2014.30273438 1283.86132812 c 128,-1,3
 2047.18359375 1156.22851562 2047.18359375 1156.22851562 2047.18359375 1024 c 128,-1,4
 2047.18359375 891.771484375 2047.18359375 891.771484375 2014.30273438 764.138671875 c 128,-1,5
 1981.42285156 636.505859375 1981.42285156 636.505859375 1914.60058594 518.065429688 c 128,-1,6
 1847.77929688 399.625 1847.77929688 399.625 1748.07714844 299.922851562 c 256,7,8
 1648.375 200.220703125 1648.375 200.220703125 1529.93457031 133.399414062 c 128,-1,9
 1411.49414062 66.5771484375 1411.49414062 66.5771484375 1283.86132812 33.697265625 c 128,-1,10
 1156.22851562 0.81640625 1156.22851562 0.81640625 1024 0.81640625 c 128,-1,11
 891.771484375 0.81640625 891.771484375 0.81640625 764.138671875 33.697265625 c 128,-1,12
 636.505859375 66.5771484375 636.505859375 66.5771484375 518.065429688 133.399414062 c 128,-1,13
 399.625 200.220703125 399.625 200.220703125 299.922851562 299.922851562 c 256,14,15
 200.220703125 399.625 200.220703125 399.625 133.399414062 518.065429688 c 128,-1,16
 66.5771484375 636.505859375 66.5771484375 636.505859375 33.697265625 764.138671875 c 128,-1,17
 0.81640625 891.771484375 0.81640625 891.771484375 0.81640625 1024 c 128,-1,18
 0.81640625 1156.22851562 0.81640625 1156.22851562 33.697265625 1283.86132812 c 128,-1,19
 66.5771484375 1411.49414062 66.5771484375 1411.49414062 133.399414062 1529.93457031 c 128,-1,20
 200.220703125 1648.375 200.220703125 1648.375 299.922851562 1748.07714844 c 256,21,22
 399.625 1847.77929688 399.625 1847.77929688 518.065429688 1914.60058594 c 128,-1,23
 636.505859375 1981.42285156 636.505859375 1981.42285156 764.138671875 2014.30273438 c 128,-1,24
 891.771484375 2047.18359375 891.771484375 2047.18359375 1024 2047.18359375 c 128,-1,25
 1156.22851562 2047.18359375 1156.22851562 2047.18359375 1283.86132812 2014.30273438 c 128,-1,26
 1411.49414062 1981.42285156 1411.49414062 1981.42285156 1529.93457031 1914.60058594 c 128,-1,27
 1648.375 1847.77929688 1648.375 1847.77929688 1748.07714844 1748.07714844 c 256,0,1
390.432617188 390.432617188 m 256,28,29
 478.11328125 302.750976562 478.11328125 302.750976562 581.705078125 244.415039062 c 128,-1,30
 685.295898438 186.078125 685.295898438 186.078125 797.018554688 157.086914062 c 128,-1,31
 908.741210938 128.095703125 908.741210938 128.095703125 1024 128.095703125 c 128,-1,32
 1139.25878906 128.095703125 1139.25878906 128.095703125 1250.98144531 157.086914062 c 128,-1,33
 1362.70410156 186.078125 1362.70410156 186.078125 1466.29492188 244.415039062 c 128,-1,34
 1569.88671875 302.750976562 1569.88671875 302.750976562 1657.56738281 390.432617188 c 256,35,36
 1745.24902344 478.11328125 1745.24902344 478.11328125 1803.58496094 581.705078125 c 128,-1,37
 1861.921875 685.295898438 1861.921875 685.295898438 1890.91308594 797.018554688 c 128,-1,38
 1919.90429688 908.741210938 1919.90429688 908.741210938 1919.90429688 1024 c 128,-1,39
 1919.90429688 1139.25878906 1919.90429688 1139.25878906 1890.91308594 1250.98144531 c 128,-1,40
 1861.921875 1362.70410156 1861.921875 1362.70410156 1803.58496094 1466.29492188 c 128,-1,41
 1745.24902344 1569.88671875 1745.24902344 1569.88671875 1657.56738281 1657.56738281 c 256,42,43
 1569.88671875 1745.24902344 1569.88671875 1745.24902344 1466.29492188 1803.58496094 c 128,-1,44
 1362.70410156 1861.921875 1362.70410156 1861.921875 1250.98144531 1890.91308594 c 128,-1,45
 1139.25878906 1919.90429688 1139.25878906 1919.90429688 1024 1919.90429688 c 128,-1,46
 908.741210938 1919.90429688 908.741210938 1919.90429688 797.018554688 1890.91308594 c 128,-1,47
 685.295898438 1861.921875 685.295898438 1861.921875 581.705078125 1803.58496094 c 128,-1,48
 478.11328125 1745.24902344 478.11328125 1745.24902344 390.432617188 1657.56738281 c 256,49,50
 302.750976562 1569.88671875 302.750976562 1569.88671875 244.415039062 1466.29492188 c 128,-1,51
 186.078125 1362.70410156 186.078125 1362.70410156 157.086914062 1250.98144531 c 128,-1,52
 128.095703125 1139.25878906 128.095703125 1139.25878906 128.095703125 1024 c 128,-1,53
 128.095703125 908.741210938 128.095703125 908.741210938 157.086914062 797.018554688 c 128,-1,54
 186.078125 685.295898438 186.078125 685.295898438 244.415039062 581.705078125 c 128,-1,55
 302.750976562 478.11328125 302.750976562 478.11328125 390.432617188 390.432617188 c 256,28,29
1586.85742188 960.360351562 m 1,56,-1
 1088.34667969 959.653320312 l 1,57,-1
 1087.63964844 461.142578125 l 1,58,-1
 960.360351562 461.142578125 l 1,59,-1
 959.653320312 959.653320312 l 1,60,-1
 461.142578125 960.360351562 l 1,61,-1
 461.142578125 1087.63964844 l 1,62,-1
 959.653320312 1088.34667969 l 1,63,-1
 960.360351562 1586.85742188 l 1,64,-1
 1087.63964844 1586.85742188 l 1,65,-1
 1088.34667969 1088.34667969 l 1,66,-1
 1586.85742188 1087.63964844 l 1,67,-1
 1586.85742188 960.360351562 l 1,56,-1
EndSplineSet
EndChar

StartChar: uniF07A
Encoding: 61562 61562 124
Width: 2048
Flags: W
LayerCount: 2
Fore
SplineSet
1024 0 m 0,0,1
 882 0 882 0 751.5 36.5 c 128,-1,2
 621 73 621 73 507 139.5 c 128,-1,3
 393 206 393 206 299.5 299.5 c 128,-1,4
 206 393 206 393 139.5 507 c 128,-1,5
 73 621 73 621 36.5 752 c 128,-1,6
 0 883 0 883 0 1024 c 256,7,8
 0 1165 0 1165 36.5 1296 c 128,-1,9
 73 1427 73 1427 139.5 1541 c 128,-1,10
 206 1655 206 1655 299.5 1748.5 c 128,-1,11
 393 1842 393 1842 507 1908.5 c 128,-1,12
 621 1975 621 1975 752 2011.5 c 128,-1,13
 883 2048 883 2048 1024 2048 c 256,14,15
 1165 2048 1165 2048 1296 2011.5 c 128,-1,16
 1427 1975 1427 1975 1541 1908.5 c 128,-1,17
 1655 1842 1655 1842 1748.5 1748.5 c 128,-1,18
 1842 1655 1842 1655 1908.5 1541 c 128,-1,19
 1975 1427 1975 1427 2011.5 1296 c 128,-1,20
 2048 1165 2048 1165 2048 1024 c 0,21,22
 2048 882 2048 882 2011.5 751.5 c 128,-1,23
 1975 621 1975 621 1908.5 507 c 128,-1,24
 1842 393 1842 393 1748.5 299.5 c 128,-1,25
 1655 206 1655 206 1541 139.5 c 128,-1,26
 1427 73 1427 73 1296 36.5 c 128,-1,27
 1165 0 1165 0 1024 0 c 0,0,1
1024 1920 m 256,28,29
 901 1920 901 1920 786.5 1888 c 128,-1,30
 672 1856 672 1856 572.5 1797.5 c 128,-1,31
 473 1739 473 1739 391 1657 c 128,-1,32
 309 1575 309 1575 250.5 1475.5 c 128,-1,33
 192 1376 192 1376 160 1261.5 c 128,-1,34
 128 1147 128 1147 128 1024 c 256,35,36
 128 901 128 901 160 786.5 c 128,-1,37
 192 672 192 672 250.5 572.5 c 128,-1,38
 309 473 309 473 391 391 c 128,-1,39
 473 309 473 309 572.5 250.5 c 128,-1,40
 672 192 672 192 786.5 160 c 128,-1,41
 901 128 901 128 1024 128 c 256,42,43
 1147 128 1147 128 1261.5 160 c 128,-1,44
 1376 192 1376 192 1475.5 250.5 c 128,-1,45
 1575 309 1575 309 1657 391 c 128,-1,46
 1739 473 1739 473 1797.5 572.5 c 128,-1,47
 1856 672 1856 672 1888 786.5 c 128,-1,48
 1920 901 1920 901 1920 1024 c 256,49,50
 1920 1147 1920 1147 1888 1261.5 c 128,-1,51
 1856 1376 1856 1376 1797.5 1475.5 c 128,-1,52
 1739 1575 1739 1575 1657 1657 c 128,-1,53
 1575 1739 1575 1739 1475.5 1797.5 c 128,-1,54
 1376 1856 1376 1856 1261.5 1888 c 128,-1,55
 1147 1920 1147 1920 1024 1920 c 256,28,29
1024 1024 m 1,56,-1
 1024 1664 l 1,57,-1
 896 1664 l 1,58,-1
 896 896 l 1,59,-1
 1408 896 l 1,60,-1
 1408 1024 l 1,61,-1
 1024 1024 l 1,56,-1
EndSplineSet
EndChar

StartChar: uniF07B
Encoding: 61563 61563 125
Width: 2048
Flags: W
LayerCount: 2
Fore
SplineSet
1024 1536 m 1,0,-1
 1024 987 l 1,1,-1
 1389 621 l 1,2,-1
 1299 531 l 1,3,-1
 896 933 l 1,4,-1
 896 1536 l 1,5,-1
 1024 1536 l 1,0,-1
1968 1423 m 0,6,7
 2048 1231 2048 1231 2048 1024 c 256,8,9
 2048 817 2048 817 1968 625 c 0,10,11
 1890 442 1890 442 1748 300 c 256,12,13
 1606 158 1606 158 1423 80 c 0,14,15
 1231 0 1231 0 1024 0 c 0,16,17
 850 0 850 0 688 57 c 0,18,19
 530 112 530 112 399 213 c 0,20,21
 269 314 269 314 176 451 c 0,22,23
 129 520 129 520 94.5 595 c 128,-1,24
 60 670 60 670 38 751 c 1,25,-1
 161 785 l 1,26,27
 201 640 201 640 284.5 519 c 128,-1,28
 368 398 368 398 482 311 c 128,-1,29
 596 224 596 224 735 176 c 128,-1,30
 874 128 874 128 1024 128 c 0,31,32
 1147 128 1147 128 1261.5 160 c 128,-1,33
 1376 192 1376 192 1475.5 250.5 c 128,-1,34
 1575 309 1575 309 1657 391 c 128,-1,35
 1739 473 1739 473 1797.5 572.5 c 128,-1,36
 1856 672 1856 672 1888 786 c 128,-1,37
 1920 900 1920 900 1920 1024 c 0,38,39
 1920 1147 1920 1147 1888 1261.5 c 128,-1,40
 1856 1376 1856 1376 1797.5 1475.5 c 128,-1,41
 1739 1575 1739 1575 1657 1657 c 128,-1,42
 1575 1739 1575 1739 1475.5 1797.5 c 128,-1,43
 1376 1856 1376 1856 1261.5 1888 c 128,-1,44
 1147 1920 1147 1920 1024 1920 c 0,45,46
 894 1920 894 1920 772 1883.5 c 128,-1,47
 650 1847 650 1847 544.5 1780 c 128,-1,48
 439 1713 439 1713 354.5 1618.5 c 128,-1,49
 270 1524 270 1524 215 1408 c 1,50,-1
 512 1408 l 1,51,-1
 512 1280 l 1,52,-1
 0 1280 l 1,53,-1
 0 1792 l 1,54,-1
 128 1792 l 1,55,-1
 128 1518 l 1,56,57
 145 1550 145 1550 165 1580.5 c 128,-1,58
 185 1611 185 1611 207 1640 c 0,59,60
 301 1765 301 1765 427 1856 c 0,61,62
 559 1950 559 1950 710 1999 c 128,-1,63
 861 2048 861 2048 1024 2048 c 0,64,65
 1231 2048 1231 2048 1423 1968 c 0,66,67
 1606 1890 1606 1890 1748 1748 c 256,68,69
 1890 1606 1890 1606 1968 1423 c 0,6,7
EndSplineSet
EndChar

StartChar: uniF07C
Encoding: 61564 61564 126
Width: 2048
Flags: W
LayerCount: 2
Fore
SplineSet
1024 2048 m 256,0,1
 1165 2048 1165 2048 1295.5 2011.5 c 128,-1,2
 1426 1975 1426 1975 1540 1908 c 128,-1,3
 1654 1841 1654 1841 1747.5 1747.5 c 128,-1,4
 1841 1654 1841 1654 1908 1540 c 128,-1,5
 1975 1426 1975 1426 2011.5 1295.5 c 128,-1,6
 2048 1165 2048 1165 2048 1024 c 256,7,8
 2048 883 2048 883 2011.5 752.5 c 128,-1,9
 1975 622 1975 622 1908 508 c 128,-1,10
 1841 394 1841 394 1747.5 300.5 c 128,-1,11
 1654 207 1654 207 1540 140 c 128,-1,12
 1426 73 1426 73 1295.5 36.5 c 128,-1,13
 1165 0 1165 0 1024 0 c 256,14,15
 883 0 883 0 752.5 36.5 c 128,-1,16
 622 73 622 73 508 140 c 128,-1,17
 394 207 394 207 300.5 300.5 c 128,-1,18
 207 394 207 394 140 508 c 128,-1,19
 73 622 73 622 36.5 752.5 c 128,-1,20
 0 883 0 883 0 1024 c 256,21,22
 0 1165 0 1165 36.5 1295.5 c 128,-1,23
 73 1426 73 1426 140 1540 c 128,-1,24
 207 1654 207 1654 300.5 1747.5 c 128,-1,25
 394 1841 394 1841 508 1908 c 128,-1,26
 622 1975 622 1975 752.5 2011.5 c 128,-1,27
 883 2048 883 2048 1024 2048 c 256,0,1
1024 128 m 0,28,29
 1188 128 1188 128 1337.5 184 c 128,-1,30
 1487 240 1487 240 1611 347 c 1,31,-1
 347 1611 l 1,32,33
 240 1487 240 1487 184 1337.5 c 128,-1,34
 128 1188 128 1188 128 1024 c 0,35,36
 128 900 128 900 160 785.5 c 128,-1,37
 192 671 192 671 250.5 571.5 c 128,-1,38
 309 472 309 472 390.5 390.5 c 128,-1,39
 472 309 472 309 571.5 250.5 c 128,-1,40
 671 192 671 192 785.5 160 c 128,-1,41
 900 128 900 128 1024 128 c 0,28,29
1701 437 m 1,42,43
 1808 561 1808 561 1864 710.5 c 128,-1,44
 1920 860 1920 860 1920 1024 c 0,45,46
 1920 1148 1920 1148 1888 1262.5 c 128,-1,47
 1856 1377 1856 1377 1797.5 1476.5 c 128,-1,48
 1739 1576 1739 1576 1657.5 1657.5 c 128,-1,49
 1576 1739 1576 1739 1476.5 1797.5 c 128,-1,50
 1377 1856 1377 1856 1262.5 1888 c 128,-1,51
 1148 1920 1148 1920 1024 1920 c 0,52,53
 860 1920 860 1920 710.5 1864 c 128,-1,54
 561 1808 561 1808 437 1701 c 1,55,-1
 1701 437 l 1,42,43
EndSplineSet
EndChar

StartChar: uniF07D
Encoding: 61565 61565 127
Width: 2048
Flags: W
LayerCount: 2
Fore
SplineSet
640 1152 m 256,0,1
 613 1152 613 1152 590 1162 c 128,-1,2
 567 1172 567 1172 549.5 1189.5 c 128,-1,3
 532 1207 532 1207 522 1230 c 128,-1,4
 512 1253 512 1253 512 1280 c 256,5,6
 512 1307 512 1307 522 1330 c 128,-1,7
 532 1353 532 1353 549.5 1370.5 c 128,-1,8
 567 1388 567 1388 590 1398 c 128,-1,9
 613 1408 613 1408 640 1408 c 256,10,11
 667 1408 667 1408 690 1398 c 128,-1,12
 713 1388 713 1388 730.5 1370.5 c 128,-1,13
 748 1353 748 1353 758 1330 c 128,-1,14
 768 1307 768 1307 768 1280 c 256,15,16
 768 1253 768 1253 758 1230 c 128,-1,17
 748 1207 748 1207 730.5 1189.5 c 128,-1,18
 713 1172 713 1172 690 1162 c 128,-1,19
 667 1152 667 1152 640 1152 c 256,0,1
1408 1152 m 256,20,21
 1381 1152 1381 1152 1358 1162 c 128,-1,22
 1335 1172 1335 1172 1317.5 1189.5 c 128,-1,23
 1300 1207 1300 1207 1290 1230 c 128,-1,24
 1280 1253 1280 1253 1280 1280 c 256,25,26
 1280 1307 1280 1307 1290 1330 c 128,-1,27
 1300 1353 1300 1353 1317.5 1370.5 c 128,-1,28
 1335 1388 1335 1388 1358 1398 c 128,-1,29
 1381 1408 1381 1408 1408 1408 c 256,30,31
 1435 1408 1435 1408 1458 1398 c 128,-1,32
 1481 1388 1481 1388 1498.5 1370.5 c 128,-1,33
 1516 1353 1516 1353 1526 1330 c 128,-1,34
 1536 1307 1536 1307 1536 1280 c 256,35,36
 1536 1253 1536 1253 1526 1230 c 128,-1,37
 1516 1207 1516 1207 1498.5 1189.5 c 128,-1,38
 1481 1172 1481 1172 1458 1162 c 128,-1,39
 1435 1152 1435 1152 1408 1152 c 256,20,21
1024 2048 m 0,40,41
 1165 2048 1165 2048 1296 2011.5 c 128,-1,42
 1427 1975 1427 1975 1541 1908.5 c 128,-1,43
 1655 1842 1655 1842 1748.5 1748.5 c 128,-1,44
 1842 1655 1842 1655 1908.5 1541 c 128,-1,45
 1975 1427 1975 1427 2011.5 1296 c 128,-1,46
 2048 1165 2048 1165 2048 1024 c 256,47,48
 2048 883 2048 883 2011.5 752 c 128,-1,49
 1975 621 1975 621 1908.5 507 c 128,-1,50
 1842 393 1842 393 1748.5 299.5 c 128,-1,51
 1655 206 1655 206 1541 139.5 c 128,-1,52
 1427 73 1427 73 1296 36.5 c 128,-1,53
 1165 0 1165 0 1024 0 c 256,54,55
 883 0 883 0 752 36.5 c 128,-1,56
 621 73 621 73 507 139.5 c 128,-1,57
 393 206 393 206 299.5 299.5 c 128,-1,58
 206 393 206 393 139.5 507 c 128,-1,59
 73 621 73 621 36.5 751.5 c 128,-1,60
 0 882 0 882 0 1024 c 0,61,62
 0 1165 0 1165 36.5 1296 c 128,-1,63
 73 1427 73 1427 139.5 1541 c 128,-1,64
 206 1655 206 1655 299.5 1748.5 c 128,-1,65
 393 1842 393 1842 507 1908.5 c 128,-1,66
 621 1975 621 1975 751.5 2011.5 c 128,-1,67
 882 2048 882 2048 1024 2048 c 0,40,41
1024 128 m 0,68,69
 1147 128 1147 128 1261.5 160 c 128,-1,70
 1376 192 1376 192 1475.5 250.5 c 128,-1,71
 1575 309 1575 309 1657 391 c 128,-1,72
 1739 473 1739 473 1797.5 572.5 c 128,-1,73
 1856 672 1856 672 1888 786 c 128,-1,74
 1920 900 1920 900 1920 1024 c 0,75,76
 1920 1147 1920 1147 1888 1261.5 c 128,-1,77
 1856 1376 1856 1376 1797.5 1475.5 c 128,-1,78
 1739 1575 1739 1575 1657 1657 c 128,-1,79
 1575 1739 1575 1739 1475.5 1797.5 c 128,-1,80
 1376 1856 1376 1856 1261.5 1888 c 128,-1,81
 1147 1920 1147 1920 1024 1920 c 256,82,83
 901 1920 901 1920 786.5 1888 c 128,-1,84
 672 1856 672 1856 572.5 1797.5 c 128,-1,85
 473 1739 473 1739 391 1657 c 128,-1,86
 309 1575 309 1575 250.5 1475.5 c 128,-1,87
 192 1376 192 1376 160 1261.5 c 128,-1,88
 128 1147 128 1147 128 1024 c 256,89,90
 128 901 128 901 160 786.5 c 128,-1,91
 192 672 192 672 250.5 572.5 c 128,-1,92
 309 473 309 473 391 391 c 128,-1,93
 473 309 473 309 572.5 250.5 c 128,-1,94
 672 192 672 192 786 160 c 128,-1,95
 900 128 900 128 1024 128 c 0,68,69
1024 512 m 0,96,97
 1097 512 1097 512 1165.5 532 c 128,-1,98
 1234 552 1234 552 1293 589 c 128,-1,99
 1352 626 1352 626 1399.5 679 c 128,-1,100
 1447 732 1447 732 1480 797 c 1,101,-1
 1595 739 l 1,102,103
 1554 658 1554 658 1494 592 c 128,-1,104
 1434 526 1434 526 1360 480 c 128,-1,105
 1286 434 1286 434 1200.5 409 c 128,-1,106
 1115 384 1115 384 1024 384 c 0,107,108
 932 384 932 384 847 409 c 128,-1,109
 762 434 762 434 688 480 c 128,-1,110
 614 526 614 526 554 592 c 128,-1,111
 494 658 494 658 453 739 c 1,112,-1
 568 797 l 1,113,114
 601 732 601 732 648.5 679 c 128,-1,115
 696 626 696 626 755 589 c 128,-1,116
 814 552 814 552 882 532 c 128,-1,117
 950 512 950 512 1024 512 c 0,96,97
EndSplineSet
EndChar

StartChar: uniF07E
Encoding: 61566 61566 128
Width: 2048
Flags: W
LayerCount: 2
Fore
SplineSet
1024 2048 m 0,0,1
 1165 2048 1165 2048 1296 2011.5 c 128,-1,2
 1427 1975 1427 1975 1541 1908.5 c 128,-1,3
 1655 1842 1655 1842 1748.5 1748.5 c 128,-1,4
 1842 1655 1842 1655 1908.5 1541 c 128,-1,5
 1975 1427 1975 1427 2011.5 1296 c 128,-1,6
 2048 1165 2048 1165 2048 1024 c 256,7,8
 2048 883 2048 883 2011.5 752 c 128,-1,9
 1975 621 1975 621 1908.5 507 c 128,-1,10
 1842 393 1842 393 1748.5 299.5 c 128,-1,11
 1655 206 1655 206 1541 139.5 c 128,-1,12
 1427 73 1427 73 1296 36.5 c 128,-1,13
 1165 0 1165 0 1024 0 c 256,14,15
 883 0 883 0 752 36.5 c 128,-1,16
 621 73 621 73 507 139.5 c 128,-1,17
 393 206 393 206 299.5 299.5 c 128,-1,18
 206 393 206 393 139.5 507 c 128,-1,19
 73 621 73 621 36.5 751.5 c 128,-1,20
 0 882 0 882 0 1024 c 0,21,22
 0 1165 0 1165 36.5 1296 c 128,-1,23
 73 1427 73 1427 139.5 1541 c 128,-1,24
 206 1655 206 1655 299.5 1748.5 c 128,-1,25
 393 1842 393 1842 507 1908.5 c 128,-1,26
 621 1975 621 1975 751.5 2011.5 c 128,-1,27
 882 2048 882 2048 1024 2048 c 0,0,1
1024 128 m 256,28,29
 1147 128 1147 128 1261.5 160 c 128,-1,30
 1376 192 1376 192 1475.5 250.5 c 128,-1,31
 1575 309 1575 309 1657 391 c 128,-1,32
 1739 473 1739 473 1797.5 572.5 c 128,-1,33
 1856 672 1856 672 1888 786.5 c 128,-1,34
 1920 901 1920 901 1920 1024 c 256,35,36
 1920 1147 1920 1147 1888 1261.5 c 128,-1,37
 1856 1376 1856 1376 1797.5 1475.5 c 128,-1,38
 1739 1575 1739 1575 1657 1657 c 128,-1,39
 1575 1739 1575 1739 1475.5 1797.5 c 128,-1,40
 1376 1856 1376 1856 1261.5 1888 c 128,-1,41
 1147 1920 1147 1920 1024 1920 c 256,42,43
 901 1920 901 1920 786.5 1888 c 128,-1,44
 672 1856 672 1856 572.5 1797.5 c 128,-1,45
 473 1739 473 1739 391 1657 c 128,-1,46
 309 1575 309 1575 250.5 1475.5 c 128,-1,47
 192 1376 192 1376 160 1261.5 c 128,-1,48
 128 1147 128 1147 128 1024 c 256,49,50
 128 901 128 901 160 786.5 c 128,-1,51
 192 672 192 672 250.5 572.5 c 128,-1,52
 309 473 309 473 391 391 c 128,-1,53
 473 309 473 309 572.5 250.5 c 128,-1,54
 672 192 672 192 786.5 160 c 128,-1,55
 901 128 901 128 1024 128 c 256,28,29
640 1536 m 256,56,57
 667 1536 667 1536 690 1526 c 128,-1,58
 713 1516 713 1516 730.5 1498.5 c 128,-1,59
 748 1481 748 1481 758 1458 c 128,-1,60
 768 1435 768 1435 768 1408 c 1,61,-1
 512 1408 l 1,62,63
 512 1435 512 1435 522 1458 c 128,-1,64
 532 1481 532 1481 549.5 1498.5 c 128,-1,65
 567 1516 567 1516 590 1526 c 128,-1,66
 613 1536 613 1536 640 1536 c 256,56,57
1408 1536 m 256,67,68
 1435 1536 1435 1536 1458 1526 c 128,-1,69
 1481 1516 1481 1516 1498.5 1498.5 c 128,-1,70
 1516 1481 1516 1481 1526 1458 c 128,-1,71
 1536 1435 1536 1435 1536 1408 c 1,72,-1
 1280 1408 l 1,73,74
 1280 1435 1280 1435 1290 1458 c 128,-1,75
 1300 1481 1300 1481 1317.5 1498.5 c 128,-1,76
 1335 1516 1335 1516 1358 1526 c 128,-1,77
 1381 1536 1381 1536 1408 1536 c 256,67,68
1472 1280 m 0,78,79
 1512 1280 1512 1280 1547 1265 c 128,-1,80
 1582 1250 1582 1250 1608 1224 c 128,-1,81
 1634 1198 1634 1198 1649 1163 c 128,-1,82
 1664 1128 1664 1128 1664 1088 c 2,83,-1
 1664 1024 l 2,84,85
 1664 891 1664 891 1614 774.5 c 128,-1,86
 1564 658 1564 658 1477 571 c 128,-1,87
 1390 484 1390 484 1273.5 434 c 128,-1,88
 1157 384 1157 384 1024 384 c 256,89,90
 891 384 891 384 774.5 434 c 128,-1,91
 658 484 658 484 571 571 c 128,-1,92
 484 658 484 658 434 774.5 c 128,-1,93
 384 891 384 891 384 1024 c 0,94,95
 384 1072 384 1072 392 1118 c 128,-1,96
 400 1164 400 1164 421 1200 c 128,-1,97
 442 1236 442 1236 479.5 1258 c 128,-1,98
 517 1280 517 1280 576 1280 c 0,99,100
 650 1280 650 1280 705 1260 c 128,-1,101
 760 1240 760 1240 809.5 1216 c 128,-1,102
 859 1192 859 1192 909.5 1172 c 128,-1,103
 960 1152 960 1152 1024 1152 c 256,104,105
 1088 1152 1088 1152 1138.5 1172 c 128,-1,106
 1189 1192 1189 1192 1238.5 1216 c 128,-1,107
 1288 1240 1288 1240 1343 1260 c 128,-1,108
 1398 1280 1398 1280 1472 1280 c 0,78,79
1536 1088 m 2,109,110
 1536 1114 1536 1114 1517 1133 c 128,-1,111
 1498 1152 1498 1152 1472 1152 c 0,112,113
 1429 1152 1429 1152 1393 1142.5 c 128,-1,114
 1357 1133 1357 1133 1323.5 1119 c 128,-1,115
 1290 1105 1290 1105 1257.5 1088 c 128,-1,116
 1225 1071 1225 1071 1189.5 1057 c 128,-1,117
 1154 1043 1154 1043 1113.5 1033.5 c 128,-1,118
 1073 1024 1073 1024 1024 1024 c 256,119,120
 975 1024 975 1024 934.5 1033.5 c 128,-1,121
 894 1043 894 1043 858.5 1057 c 128,-1,122
 823 1071 823 1071 790.5 1088 c 128,-1,123
 758 1105 758 1105 724.5 1119 c 128,-1,124
 691 1133 691 1133 655 1142.5 c 128,-1,125
 619 1152 619 1152 576 1152 c 0,126,127
 550 1152 550 1152 531 1133 c 128,-1,128
 512 1114 512 1114 512 1088 c 2,129,-1
 512 1024 l 2,130,131
 512 918 512 918 552.5 825 c 128,-1,132
 593 732 593 732 662.5 662.5 c 128,-1,133
 732 593 732 593 825 552.5 c 128,-1,134
 918 512 918 512 1024 512 c 256,135,136
 1130 512 1130 512 1223 552.5 c 128,-1,137
 1316 593 1316 593 1385.5 662.5 c 128,-1,138
 1455 732 1455 732 1495.5 825 c 128,-1,139
 1536 918 1536 918 1536 1024 c 2,140,-1
 1536 1088 l 2,109,110
EndSplineSet
EndChar

StartChar: uniF07F
Encoding: 61567 61567 129
Width: 2048
Flags: W
LayerCount: 2
Fore
SplineSet
1901 717 m 1,0,1
 1935 695 1935 695 1962.5 665.5 c 128,-1,2
 1990 636 1990 636 2009 601 c 128,-1,3
 2028 566 2028 566 2038 527 c 128,-1,4
 2048 488 2048 488 2048 448 c 0,5,6
 2048 382 2048 382 2022.5 324 c 128,-1,7
 1997 266 1997 266 1953.5 222.5 c 128,-1,8
 1910 179 1910 179 1852 153.5 c 128,-1,9
 1794 128 1794 128 1728 128 c 0,10,11
 1636 128 1636 128 1558 177 c 1,12,13
 1443 90 1443 90 1305.5 45 c 128,-1,14
 1168 0 1168 0 1024 0 c 256,15,16
 880 0 880 0 742.5 45 c 128,-1,17
 605 90 605 90 490 177 c 1,18,19
 412 128 412 128 320 128 c 0,20,21
 254 128 254 128 196 153.5 c 128,-1,22
 138 179 138 179 94.5 222.5 c 128,-1,23
 51 266 51 266 25.5 324 c 128,-1,24
 0 382 0 382 0 448 c 0,25,26
 0 488 0 488 10 527 c 128,-1,27
 20 566 20 566 39 601 c 128,-1,28
 58 636 58 636 85.5 665.5 c 128,-1,29
 113 695 113 695 147 717 c 1,30,31
 137 762 137 762 132.5 806.5 c 128,-1,32
 128 851 128 851 128 896 c 0,33,34
 128 1034 128 1034 169.5 1163.5 c 128,-1,35
 211 1293 211 1293 286.5 1403.5 c 128,-1,36
 362 1514 362 1514 468 1599 c 128,-1,37
 574 1684 574 1684 704 1733 c 1,38,39
 705 1798 705 1798 730.5 1855.5 c 128,-1,40
 756 1913 756 1913 799.5 1955.5 c 128,-1,41
 843 1998 843 1998 901 2023 c 128,-1,42
 959 2048 959 2048 1024 2048 c 256,43,44
 1089 2048 1089 2048 1147 2023 c 128,-1,45
 1205 1998 1205 1998 1248.5 1955.5 c 128,-1,46
 1292 1913 1292 1913 1317.5 1855.5 c 128,-1,47
 1343 1798 1343 1798 1344 1733 c 1,48,49
 1474 1684 1474 1684 1580 1599 c 128,-1,50
 1686 1514 1686 1514 1761.5 1403.5 c 128,-1,51
 1837 1293 1837 1293 1878.5 1163.5 c 128,-1,52
 1920 1034 1920 1034 1920 896 c 0,53,54
 1920 851 1920 851 1915.5 806.5 c 128,-1,55
 1911 762 1911 762 1901 717 c 1,0,1
1024 1920 m 256,56,57
 984 1920 984 1920 949 1905 c 128,-1,58
 914 1890 914 1890 888 1864 c 128,-1,59
 862 1838 862 1838 847 1803 c 128,-1,60
 832 1768 832 1768 832 1728 c 256,61,62
 832 1688 832 1688 847 1653 c 128,-1,63
 862 1618 862 1618 888 1592 c 128,-1,64
 914 1566 914 1566 949 1551 c 128,-1,65
 984 1536 984 1536 1024 1536 c 256,66,67
 1064 1536 1064 1536 1099 1551 c 128,-1,68
 1134 1566 1134 1566 1160 1592 c 128,-1,69
 1186 1618 1186 1618 1201 1653 c 128,-1,70
 1216 1688 1216 1688 1216 1728 c 256,71,72
 1216 1768 1216 1768 1201 1803 c 128,-1,73
 1186 1838 1186 1838 1160 1864 c 128,-1,74
 1134 1890 1134 1890 1099 1905 c 128,-1,75
 1064 1920 1064 1920 1024 1920 c 256,56,57
128 448 m 256,76,77
 128 408 128 408 143 373 c 128,-1,78
 158 338 158 338 184 312 c 128,-1,79
 210 286 210 286 245 271 c 128,-1,80
 280 256 280 256 320 256 c 256,81,82
 360 256 360 256 395 271 c 128,-1,83
 430 286 430 286 456 312 c 128,-1,84
 482 338 482 338 497 373 c 128,-1,85
 512 408 512 408 512 448 c 256,86,87
 512 488 512 488 497 523 c 128,-1,88
 482 558 482 558 456 584 c 128,-1,89
 430 610 430 610 395 625 c 128,-1,90
 360 640 360 640 320 640 c 256,91,92
 280 640 280 640 245 625 c 128,-1,93
 210 610 210 610 184 584 c 128,-1,94
 158 558 158 558 143 523 c 128,-1,95
 128 488 128 488 128 448 c 256,76,77
1024 128 m 256,96,97
 1142 128 1142 128 1254.5 163.5 c 128,-1,98
 1367 199 1367 199 1464 267 c 1,99,100
 1437 307 1437 307 1422.5 353.5 c 128,-1,101
 1408 400 1408 400 1408 448 c 0,102,103
 1408 514 1408 514 1433.5 572 c 128,-1,104
 1459 630 1459 630 1502.5 673.5 c 128,-1,105
 1546 717 1546 717 1604 742.5 c 128,-1,106
 1662 768 1662 768 1728 768 c 0,107,108
 1741 768 1741 768 1754 767 c 128,-1,109
 1767 766 1767 766 1780 764 c 1,110,111
 1792 830 1792 830 1792 896 c 0,112,113
 1792 1013 1792 1013 1758.5 1121.5 c 128,-1,114
 1725 1230 1725 1230 1663.5 1322.5 c 128,-1,115
 1602 1415 1602 1415 1514.5 1487.5 c 128,-1,116
 1427 1560 1427 1560 1319 1605 c 1,117,118
 1301 1561 1301 1561 1270.5 1524.5 c 128,-1,119
 1240 1488 1240 1488 1201 1462 c 128,-1,120
 1162 1436 1162 1436 1117 1422 c 128,-1,121
 1072 1408 1072 1408 1024 1408 c 256,122,123
 976 1408 976 1408 931 1422 c 128,-1,124
 886 1436 886 1436 847 1462 c 128,-1,125
 808 1488 808 1488 777.5 1524.5 c 128,-1,126
 747 1561 747 1561 729 1605 c 1,127,128
 621 1560 621 1560 533.5 1487.5 c 128,-1,129
 446 1415 446 1415 384.5 1322.5 c 128,-1,130
 323 1230 323 1230 289.5 1121.5 c 128,-1,131
 256 1013 256 1013 256 896 c 0,132,133
 256 830 256 830 268 764 c 1,134,135
 340 776 340 776 407.5 756 c 128,-1,136
 475 736 475 736 526.5 691.5 c 128,-1,137
 578 647 578 647 609 584 c 128,-1,138
 640 521 640 521 640 448 c 0,139,140
 640 400 640 400 625.5 353.5 c 128,-1,141
 611 307 611 307 584 267 c 1,142,143
 681 199 681 199 793.5 163.5 c 128,-1,144
 906 128 906 128 1024 128 c 256,96,97
1728 256 m 256,145,146
 1768 256 1768 256 1803 271 c 128,-1,147
 1838 286 1838 286 1864 312 c 128,-1,148
 1890 338 1890 338 1905 373 c 128,-1,149
 1920 408 1920 408 1920 448 c 256,150,151
 1920 488 1920 488 1905 523 c 128,-1,152
 1890 558 1890 558 1864 584 c 128,-1,153
 1838 610 1838 610 1803 625 c 128,-1,154
 1768 640 1768 640 1728 640 c 256,155,156
 1688 640 1688 640 1653 625 c 128,-1,157
 1618 610 1618 610 1592 584 c 128,-1,158
 1566 558 1566 558 1551 523 c 128,-1,159
 1536 488 1536 488 1536 448 c 256,160,161
 1536 408 1536 408 1551 373 c 128,-1,162
 1566 338 1566 338 1592 312 c 128,-1,163
 1618 286 1618 286 1653 271 c 128,-1,164
 1688 256 1688 256 1728 256 c 256,145,146
EndSplineSet
EndChar

StartChar: uniF080
Encoding: 61568 61568 130
Width: 2048
Flags: W
LayerCount: 2
Fore
SplineSet
1024 2048 m 0,0,1
 1165 2048 1165 2048 1296 2011.5 c 128,-1,2
 1427 1975 1427 1975 1541 1908.5 c 128,-1,3
 1655 1842 1655 1842 1748.5 1748.5 c 128,-1,4
 1842 1655 1842 1655 1908.5 1541 c 128,-1,5
 1975 1427 1975 1427 2011.5 1296 c 128,-1,6
 2048 1165 2048 1165 2048 1024 c 256,7,8
 2048 883 2048 883 2011.5 752 c 128,-1,9
 1975 621 1975 621 1908.5 507 c 128,-1,10
 1842 393 1842 393 1748.5 299.5 c 128,-1,11
 1655 206 1655 206 1541 139.5 c 128,-1,12
 1427 73 1427 73 1296 36.5 c 128,-1,13
 1165 0 1165 0 1024 0 c 256,14,15
 883 0 883 0 752 36.5 c 128,-1,16
 621 73 621 73 507 139.5 c 128,-1,17
 393 206 393 206 299.5 299.5 c 128,-1,18
 206 393 206 393 139.5 507 c 128,-1,19
 73 621 73 621 36.5 751.5 c 128,-1,20
 0 882 0 882 0 1024 c 0,21,22
 0 1165 0 1165 36.5 1296 c 128,-1,23
 73 1427 73 1427 139.5 1541 c 128,-1,24
 206 1655 206 1655 299.5 1748.5 c 128,-1,25
 393 1842 393 1842 507 1908.5 c 128,-1,26
 621 1975 621 1975 751.5 2011.5 c 128,-1,27
 882 2048 882 2048 1024 2048 c 0,0,1
1024 128 m 0,28,29
 1147 128 1147 128 1261.5 160 c 128,-1,30
 1376 192 1376 192 1475.5 250.5 c 128,-1,31
 1575 309 1575 309 1657 391 c 128,-1,32
 1739 473 1739 473 1797.5 572.5 c 128,-1,33
 1856 672 1856 672 1888 786 c 128,-1,34
 1920 900 1920 900 1920 1024 c 0,35,36
 1920 1147 1920 1147 1888 1261.5 c 128,-1,37
 1856 1376 1856 1376 1797.5 1475.5 c 128,-1,38
 1739 1575 1739 1575 1657 1657 c 128,-1,39
 1575 1739 1575 1739 1475.5 1797.5 c 128,-1,40
 1376 1856 1376 1856 1261.5 1888 c 128,-1,41
 1147 1920 1147 1920 1024 1920 c 256,42,43
 901 1920 901 1920 786.5 1888 c 128,-1,44
 672 1856 672 1856 572.5 1797.5 c 128,-1,45
 473 1739 473 1739 391 1657 c 128,-1,46
 309 1575 309 1575 250.5 1475.5 c 128,-1,47
 192 1376 192 1376 160 1261.5 c 128,-1,48
 128 1147 128 1147 128 1024 c 256,49,50
 128 901 128 901 160 786.5 c 128,-1,51
 192 672 192 672 250.5 572.5 c 128,-1,52
 309 473 309 473 391 391 c 128,-1,53
 473 309 473 309 572.5 250.5 c 128,-1,54
 672 192 672 192 786 160 c 128,-1,55
 900 128 900 128 1024 128 c 0,28,29
1024 1280 m 256,56,57
 1077 1280 1077 1280 1123.5 1260 c 128,-1,58
 1170 1240 1170 1240 1205 1205 c 128,-1,59
 1240 1170 1240 1170 1260 1123.5 c 128,-1,60
 1280 1077 1280 1077 1280 1024 c 256,61,62
 1280 971 1280 971 1260 924.5 c 128,-1,63
 1240 878 1240 878 1205 843 c 128,-1,64
 1170 808 1170 808 1123.5 788 c 128,-1,65
 1077 768 1077 768 1024 768 c 256,66,67
 971 768 971 768 924.5 788 c 128,-1,68
 878 808 878 808 843 843 c 128,-1,69
 808 878 808 878 788 924.5 c 128,-1,70
 768 971 768 971 768 1024 c 256,71,72
 768 1077 768 1077 788 1123.5 c 128,-1,73
 808 1170 808 1170 843 1205 c 128,-1,74
 878 1240 878 1240 924.5 1260 c 128,-1,75
 971 1280 971 1280 1024 1280 c 256,56,57
1024 896 m 256,76,77
 1051 896 1051 896 1074 906 c 128,-1,78
 1097 916 1097 916 1114.5 933.5 c 128,-1,79
 1132 951 1132 951 1142 974 c 128,-1,80
 1152 997 1152 997 1152 1024 c 256,81,82
 1152 1051 1152 1051 1142 1074 c 128,-1,83
 1132 1097 1132 1097 1114.5 1114.5 c 128,-1,84
 1097 1132 1097 1132 1074 1142 c 128,-1,85
 1051 1152 1051 1152 1024 1152 c 256,86,87
 997 1152 997 1152 974 1142 c 128,-1,88
 951 1132 951 1132 933.5 1114.5 c 128,-1,89
 916 1097 916 1097 906 1074 c 128,-1,90
 896 1051 896 1051 896 1024 c 256,91,92
 896 997 896 997 906 974 c 128,-1,93
 916 951 916 951 933.5 933.5 c 128,-1,94
 951 916 951 916 974 906 c 128,-1,95
 997 896 997 896 1024 896 c 256,76,77
EndSplineSet
EndChar

StartChar: uniF081
Encoding: 61569 61569 131
Width: 2048
Flags: W
LayerCount: 2
Fore
SplineSet
1024 1280 m 256,0,1
 1077 1280 1077 1280 1123.5 1260 c 128,-1,2
 1170 1240 1170 1240 1205 1205 c 128,-1,3
 1240 1170 1240 1170 1260 1123.5 c 128,-1,4
 1280 1077 1280 1077 1280 1024 c 256,5,6
 1280 971 1280 971 1260 924.5 c 128,-1,7
 1240 878 1240 878 1205 843 c 128,-1,8
 1170 808 1170 808 1123.5 788 c 128,-1,9
 1077 768 1077 768 1024 768 c 256,10,11
 971 768 971 768 924.5 788 c 128,-1,12
 878 808 878 808 843 843 c 128,-1,13
 808 878 808 878 788 924.5 c 128,-1,14
 768 971 768 971 768 1024 c 256,15,16
 768 1077 768 1077 788 1123.5 c 128,-1,17
 808 1170 808 1170 843 1205 c 128,-1,18
 878 1240 878 1240 924.5 1260 c 128,-1,19
 971 1280 971 1280 1024 1280 c 256,0,1
1024 896 m 256,20,21
 1051 896 1051 896 1074 906 c 128,-1,22
 1097 916 1097 916 1114.5 933.5 c 128,-1,23
 1132 951 1132 951 1142 974 c 128,-1,24
 1152 997 1152 997 1152 1024 c 256,25,26
 1152 1051 1152 1051 1142 1074 c 128,-1,27
 1132 1097 1132 1097 1114.5 1114.5 c 128,-1,28
 1097 1132 1097 1132 1074 1142 c 128,-1,29
 1051 1152 1051 1152 1024 1152 c 256,30,31
 997 1152 997 1152 974 1142 c 128,-1,32
 951 1132 951 1132 933.5 1114.5 c 128,-1,33
 916 1097 916 1097 906 1074 c 128,-1,34
 896 1051 896 1051 896 1024 c 256,35,36
 896 997 896 997 906 974 c 128,-1,37
 916 951 916 951 933.5 933.5 c 128,-1,38
 951 916 951 916 974 906 c 128,-1,39
 997 896 997 896 1024 896 c 256,20,21
2048 1024 m 0,40,41
 2048 884 2048 884 2011 752 c 128,-1,42
 1974 620 1974 620 1905.5 503.5 c 128,-1,43
 1837 387 1837 387 1739 291 c 128,-1,44
 1641 195 1641 195 1518 128 c 1,45,-1
 1792 128 l 1,46,-1
 1792 0 l 1,47,-1
 1280 0 l 1,48,-1
 1280 512 l 1,49,-1
 1408 512 l 1,50,-1
 1408 215 l 1,51,52
 1525 270 1525 270 1619.5 355 c 128,-1,53
 1714 440 1714 440 1781 545.5 c 128,-1,54
 1848 651 1848 651 1884 773 c 128,-1,55
 1920 895 1920 895 1920 1024 c 0,56,57
 1920 1147 1920 1147 1888 1261.5 c 128,-1,58
 1856 1376 1856 1376 1797.5 1475.5 c 128,-1,59
 1739 1575 1739 1575 1657 1657 c 128,-1,60
 1575 1739 1575 1739 1475.5 1797.5 c 128,-1,61
 1376 1856 1376 1856 1261.5 1888 c 128,-1,62
 1147 1920 1147 1920 1024 1920 c 256,63,64
 901 1920 901 1920 786.5 1888 c 128,-1,65
 672 1856 672 1856 572.5 1797.5 c 128,-1,66
 473 1739 473 1739 391 1657 c 128,-1,67
 309 1575 309 1575 250.5 1475.5 c 128,-1,68
 192 1376 192 1376 160 1261.5 c 128,-1,69
 128 1147 128 1147 128 1024 c 0,70,71
 128 874 128 874 176.5 735 c 128,-1,72
 225 596 225 596 312 482 c 128,-1,73
 399 368 399 368 519.5 284.5 c 128,-1,74
 640 201 640 201 785 161 c 1,75,-1
 751 38 l 1,76,77
 585 83 585 83 447 178.5 c 128,-1,78
 309 274 309 274 209.5 404.5 c 128,-1,79
 110 535 110 535 55 693.5 c 128,-1,80
 0 852 0 852 0 1024 c 0,81,82
 0 1165 0 1165 36.5 1296 c 128,-1,83
 73 1427 73 1427 139.5 1541 c 128,-1,84
 206 1655 206 1655 299.5 1748.5 c 128,-1,85
 393 1842 393 1842 507 1908.5 c 128,-1,86
 621 1975 621 1975 751.5 2011.5 c 128,-1,87
 882 2048 882 2048 1024 2048 c 0,88,89
 1165 2048 1165 2048 1296 2011.5 c 128,-1,90
 1427 1975 1427 1975 1541 1908.5 c 128,-1,91
 1655 1842 1655 1842 1748.5 1748.5 c 128,-1,92
 1842 1655 1842 1655 1908.5 1541 c 128,-1,93
 1975 1427 1975 1427 2011.5 1296 c 128,-1,94
 2048 1165 2048 1165 2048 1024 c 0,40,41
EndSplineSet
EndChar

StartChar: uniF082
Encoding: 61570 61570 132
Width: 2048
Flags: W
LayerCount: 2
Fore
SplineSet
1024 128 m 0,0,1
 1178 128 1178 128 1319.5 175.5 c 128,-1,2
 1461 223 1461 223 1577.5 309.5 c 128,-1,3
 1694 396 1694 396 1780.5 517.5 c 128,-1,4
 1867 639 1867 639 1912 787 c 1,5,-1
 2034 749 l 1,6,7
 1984 582 1984 582 1885 444.5 c 128,-1,8
 1786 307 1786 307 1652.5 208 c 128,-1,9
 1519 109 1519 109 1358.5 54.5 c 128,-1,10
 1198 0 1198 0 1024 0 c 0,11,12
 887 0 887 0 757 34 c 128,-1,13
 627 68 627 68 511.5 132.5 c 128,-1,14
 396 197 396 197 298 289.5 c 128,-1,15
 200 382 200 382 128 499 c 1,16,-1
 128 256 l 1,17,-1
 0 256 l 1,18,-1
 0 768 l 1,19,-1
 512 768 l 1,20,-1
 512 640 l 1,21,-1
 196 640 l 1,22,23
 255 523 255 523 342.5 428.5 c 128,-1,24
 430 334 430 334 538 267.5 c 128,-1,25
 646 201 646 201 769.5 164.5 c 128,-1,26
 893 128 893 128 1024 128 c 0,0,1
2048 1792 m 1,27,-1
 2048 1280 l 1,28,-1
 1536 1280 l 1,29,-1
 1536 1408 l 1,30,-1
 1852 1408 l 1,31,32
 1793 1525 1793 1525 1705.5 1619.5 c 128,-1,33
 1618 1714 1618 1714 1510 1780.5 c 128,-1,34
 1402 1847 1402 1847 1278.5 1883.5 c 128,-1,35
 1155 1920 1155 1920 1024 1920 c 0,36,37
 870 1920 870 1920 728.5 1872.5 c 128,-1,38
 587 1825 587 1825 470.5 1738.5 c 128,-1,39
 354 1652 354 1652 267.5 1530.5 c 128,-1,40
 181 1409 181 1409 136 1261 c 1,41,-1
 14 1299 l 1,42,43
 64 1465 64 1465 163 1603 c 128,-1,44
 262 1741 262 1741 395.5 1840 c 128,-1,45
 529 1939 529 1939 689.5 1993.5 c 128,-1,46
 850 2048 850 2048 1024 2048 c 0,47,48
 1161 2048 1161 2048 1291 2014 c 128,-1,49
 1421 1980 1421 1980 1536.5 1915.5 c 128,-1,50
 1652 1851 1652 1851 1750 1758.5 c 128,-1,51
 1848 1666 1848 1666 1920 1549 c 1,52,-1
 1920 1792 l 1,53,-1
 2048 1792 l 1,27,-1
EndSplineSet
EndChar

StartChar: uniF083
Encoding: 61571 61571 133
Width: 2048
Flags: W
LayerCount: 2
Fore
SplineSet
1472 1152 m 256,0,1
 1591 1152 1591 1152 1696 1106.5 c 128,-1,2
 1801 1061 1801 1061 1879 983 c 128,-1,3
 1957 905 1957 905 2002.5 800 c 128,-1,4
 2048 695 2048 695 2048 576 c 256,5,6
 2048 457 2048 457 2002.5 352 c 128,-1,7
 1957 247 1957 247 1879 169 c 128,-1,8
 1801 91 1801 91 1696 45.5 c 128,-1,9
 1591 0 1591 0 1472 0 c 256,10,11
 1353 0 1353 0 1248 45.5 c 128,-1,12
 1143 91 1143 91 1065 169 c 128,-1,13
 987 247 987 247 941.5 352 c 128,-1,14
 896 457 896 457 896 576 c 256,15,16
 896 695 896 695 941.5 800 c 128,-1,17
 987 905 987 905 1065 983 c 128,-1,18
 1143 1061 1143 1061 1248 1106.5 c 128,-1,19
 1353 1152 1353 1152 1472 1152 c 256,0,1
1472 128 m 256,20,21
 1565 128 1565 128 1646.5 163.5 c 128,-1,22
 1728 199 1728 199 1788.5 259.5 c 128,-1,23
 1849 320 1849 320 1884.5 401.5 c 128,-1,24
 1920 483 1920 483 1920 576 c 256,25,26
 1920 669 1920 669 1884.5 750.5 c 128,-1,27
 1849 832 1849 832 1788.5 892.5 c 128,-1,28
 1728 953 1728 953 1646.5 988.5 c 128,-1,29
 1565 1024 1565 1024 1472 1024 c 256,30,31
 1379 1024 1379 1024 1297.5 988.5 c 128,-1,32
 1216 953 1216 953 1155.5 892.5 c 128,-1,33
 1095 832 1095 832 1059.5 750.5 c 128,-1,34
 1024 669 1024 669 1024 576 c 256,35,36
 1024 483 1024 483 1059.5 401.5 c 128,-1,37
 1095 320 1095 320 1155.5 259.5 c 128,-1,38
 1216 199 1216 199 1297.5 163.5 c 128,-1,39
 1379 128 1379 128 1472 128 c 256,20,21
2048 1792 m 1,40,-1
 2048 1280 l 1,41,-1
 1536 1280 l 1,42,-1
 1536 1408 l 1,43,-1
 1852 1408 l 1,44,45
 1793 1525 1793 1525 1705.5 1619.5 c 128,-1,46
 1618 1714 1618 1714 1510 1780.5 c 128,-1,47
 1402 1847 1402 1847 1278.5 1883.5 c 128,-1,48
 1155 1920 1155 1920 1024 1920 c 0,49,50
 870 1920 870 1920 728.5 1872.5 c 128,-1,51
 587 1825 587 1825 470.5 1738.5 c 128,-1,52
 354 1652 354 1652 267.5 1530.5 c 128,-1,53
 181 1409 181 1409 136 1261 c 1,54,-1
 14 1299 l 1,55,56
 64 1465 64 1465 163 1603 c 128,-1,57
 262 1741 262 1741 395.5 1840 c 128,-1,58
 529 1939 529 1939 689.5 1993.5 c 128,-1,59
 850 2048 850 2048 1024 2048 c 0,60,61
 1161 2048 1161 2048 1291 2014 c 128,-1,62
 1421 1980 1421 1980 1536.5 1915.5 c 128,-1,63
 1652 1851 1652 1851 1750 1758.5 c 128,-1,64
 1848 1666 1848 1666 1920 1549 c 1,65,-1
 1920 1792 l 1,66,-1
 2048 1792 l 1,40,-1
880 140 m 1,67,68
 909 101 909 101 942.5 66 c 128,-1,69
 976 31 976 31 1014 1 c 1,70,71
 879 2 879 2 750 37.5 c 128,-1,72
 621 73 621 73 506.5 138.5 c 128,-1,73
 392 204 392 204 295.5 296 c 128,-1,74
 199 388 199 388 128 503 c 1,75,-1
 128 256 l 1,76,-1
 0 256 l 1,77,-1
 0 768 l 1,78,-1
 512 768 l 1,79,-1
 512 640 l 1,80,-1
 198 640 l 1,81,82
 248 541 248 541 320 457 c 128,-1,83
 392 373 392 373 479.5 308.5 c 128,-1,84
 567 244 567 244 668.5 201 c 128,-1,85
 770 158 770 158 880 140 c 1,67,68
1408 896 m 1,86,-1
 1536 896 l 1,87,-1
 1536 512 l 1,88,-1
 1408 512 l 1,89,-1
 1408 896 l 1,86,-1
1408 384 m 1,90,-1
 1536 384 l 1,91,-1
 1536 256 l 1,92,-1
 1408 256 l 1,93,-1
 1408 384 l 1,90,-1
EndSplineSet
EndChar

StartChar: uniF084
Encoding: 61572 61572 134
Width: 2048
Flags: W
LayerCount: 2
Fore
SplineSet
1024 2048 m 0,0,1
 1165 2048 1165 2048 1296 2011.5 c 128,-1,2
 1427 1975 1427 1975 1541 1908.5 c 128,-1,3
 1655 1842 1655 1842 1748.5 1748.5 c 128,-1,4
 1842 1655 1842 1655 1908.5 1541 c 128,-1,5
 1975 1427 1975 1427 2011.5 1296 c 128,-1,6
 2048 1165 2048 1165 2048 1024 c 256,7,8
 2048 883 2048 883 2011.5 752 c 128,-1,9
 1975 621 1975 621 1908.5 507 c 128,-1,10
 1842 393 1842 393 1748.5 299.5 c 128,-1,11
 1655 206 1655 206 1541 139.5 c 128,-1,12
 1427 73 1427 73 1296 36.5 c 128,-1,13
 1165 0 1165 0 1024 0 c 0,14,15
 852 0 852 0 693.5 55 c 128,-1,16
 535 110 535 110 404.5 209.5 c 128,-1,17
 274 309 274 309 178.5 447 c 128,-1,18
 83 585 83 585 38 751 c 1,19,-1
 161 785 l 1,20,21
 201 640 201 640 284.5 519.5 c 128,-1,22
 368 399 368 399 482 312 c 128,-1,23
 596 225 596 225 735 176.5 c 128,-1,24
 874 128 874 128 1024 128 c 0,25,26
 1147 128 1147 128 1261.5 160 c 128,-1,27
 1376 192 1376 192 1475.5 250.5 c 128,-1,28
 1575 309 1575 309 1657 391 c 128,-1,29
 1739 473 1739 473 1797.5 572.5 c 128,-1,30
 1856 672 1856 672 1888 786 c 128,-1,31
 1920 900 1920 900 1920 1024 c 0,32,33
 1920 1147 1920 1147 1888 1261.5 c 128,-1,34
 1856 1376 1856 1376 1797.5 1475.5 c 128,-1,35
 1739 1575 1739 1575 1657 1657 c 128,-1,36
 1575 1739 1575 1739 1475.5 1797.5 c 128,-1,37
 1376 1856 1376 1856 1261.5 1888 c 128,-1,38
 1147 1920 1147 1920 1024 1920 c 0,39,40
 895 1920 895 1920 773 1884 c 128,-1,41
 651 1848 651 1848 545.5 1781 c 128,-1,42
 440 1714 440 1714 355 1619.5 c 128,-1,43
 270 1525 270 1525 215 1408 c 1,44,-1
 512 1408 l 1,45,-1
 512 1280 l 1,46,-1
 0 1280 l 1,47,-1
 0 1792 l 1,48,-1
 128 1792 l 1,49,-1
 128 1518 l 1,50,51
 195 1641 195 1641 291 1739 c 128,-1,52
 387 1837 387 1837 503.5 1905.5 c 128,-1,53
 620 1974 620 1974 752 2011 c 128,-1,54
 884 2048 884 2048 1024 2048 c 0,0,1
EndSplineSet
EndChar

StartChar: uniF085
Encoding: 61573 61573 135
Width: 2048
Flags: W
LayerCount: 2
Fore
SplineSet
1600 896 m 256,0,1
 1693 896 1693 896 1774.5 861 c 128,-1,2
 1856 826 1856 826 1917 765 c 128,-1,3
 1978 704 1978 704 2013 622.5 c 128,-1,4
 2048 541 2048 541 2048 448 c 256,5,6
 2048 355 2048 355 2013 273.5 c 128,-1,7
 1978 192 1978 192 1917 131 c 128,-1,8
 1856 70 1856 70 1774.5 35 c 128,-1,9
 1693 0 1693 0 1600 0 c 256,10,11
 1507 0 1507 0 1425.5 35 c 128,-1,12
 1344 70 1344 70 1283 131 c 128,-1,13
 1222 192 1222 192 1187 273.5 c 128,-1,14
 1152 355 1152 355 1152 448 c 256,15,16
 1152 541 1152 541 1187 622.5 c 128,-1,17
 1222 704 1222 704 1283 765 c 128,-1,18
 1344 826 1344 826 1425.5 861 c 128,-1,19
 1507 896 1507 896 1600 896 c 256,0,1
1280 448 m 0,20,21
 1280 382 1280 382 1305 323.5 c 128,-1,22
 1330 265 1330 265 1373.5 221.5 c 128,-1,23
 1417 178 1417 178 1475.5 153 c 128,-1,24
 1534 128 1534 128 1600 128 c 0,25,26
 1647 128 1647 128 1692 141.5 c 128,-1,27
 1737 155 1737 155 1776 181 c 1,28,-1
 1333 624 l 1,29,30
 1307 585 1307 585 1293.5 540 c 128,-1,31
 1280 495 1280 495 1280 448 c 0,20,21
1867 272 m 1,32,33
 1893 311 1893 311 1906.5 356 c 128,-1,34
 1920 401 1920 401 1920 448 c 0,35,36
 1920 514 1920 514 1894.5 572 c 128,-1,37
 1869 630 1869 630 1825.5 673.5 c 128,-1,38
 1782 717 1782 717 1724 742.5 c 128,-1,39
 1666 768 1666 768 1600 768 c 0,40,41
 1553 768 1553 768 1508 754.5 c 128,-1,42
 1463 741 1463 741 1424 715 c 1,43,-1
 1867 272 l 1,32,33
512 1280 m 1,44,-1
 0 1280 l 1,45,-1
 0 1792 l 1,46,-1
 128 1792 l 1,47,-1
 128 1517 l 1,48,49
 195 1639 195 1639 291.5 1737.5 c 128,-1,50
 388 1836 388 1836 504 1905 c 128,-1,51
 620 1974 620 1974 752 2011 c 128,-1,52
 884 2048 884 2048 1024 2048 c 0,53,54
 1165 2048 1165 2048 1296 2011.5 c 128,-1,55
 1427 1975 1427 1975 1540.5 1908 c 128,-1,56
 1654 1841 1654 1841 1747.5 1747.5 c 128,-1,57
 1841 1654 1841 1654 1908 1540.5 c 128,-1,58
 1975 1427 1975 1427 2011.5 1296 c 128,-1,59
 2048 1165 2048 1165 2048 1024 c 0,60,61
 2048 985 2048 985 2044.5 946 c 128,-1,62
 2041 907 2041 907 2035 869 c 1,63,64
 2009 896 2009 896 1979 920.5 c 128,-1,65
 1949 945 1949 945 1917 965 c 1,66,67
 1918 980 1918 980 1919 994.5 c 128,-1,68
 1920 1009 1920 1009 1920 1024 c 0,69,70
 1920 1147 1920 1147 1888 1261.5 c 128,-1,71
 1856 1376 1856 1376 1797.5 1475.5 c 128,-1,72
 1739 1575 1739 1575 1657 1657 c 128,-1,73
 1575 1739 1575 1739 1475.5 1797.5 c 128,-1,74
 1376 1856 1376 1856 1261.5 1888 c 128,-1,75
 1147 1920 1147 1920 1024 1920 c 0,76,77
 895 1920 895 1920 773.5 1883.5 c 128,-1,78
 652 1847 652 1847 547 1780.5 c 128,-1,79
 442 1714 442 1714 357.5 1619.5 c 128,-1,80
 273 1525 273 1525 218 1408 c 1,81,-1
 512 1408 l 1,82,-1
 512 1280 l 1,44,-1
1083 131 m 1,83,84
 1103 99 1103 99 1127.5 69 c 128,-1,85
 1152 39 1152 39 1179 13 c 1,86,87
 1141 7 1141 7 1102 3.5 c 128,-1,88
 1063 0 1063 0 1024 0 c 0,89,90
 910 0 910 0 800.5 25 c 128,-1,91
 691 50 691 50 592 96.5 c 128,-1,92
 493 143 493 143 405 210 c 128,-1,93
 317 277 317 277 246 360.5 c 128,-1,94
 175 444 175 444 121.5 542.5 c 128,-1,95
 68 641 68 641 38 751 c 1,96,-1
 161 785 l 1,97,98
 201 640 201 640 284.5 519.5 c 128,-1,99
 368 399 368 399 482 312 c 128,-1,100
 596 225 596 225 735 176.5 c 128,-1,101
 874 128 874 128 1024 128 c 0,102,103
 1039 128 1039 128 1053.5 129 c 128,-1,104
 1068 130 1068 130 1083 131 c 1,83,84
EndSplineSet
EndChar

StartChar: uniF086
Encoding: 61574 61574 136
Width: 2048
Flags: W
LayerCount: 2
Fore
SplineSet
751.079101562 2010 m 1,0,1
 585.088867188 1965 585.088867188 1965 447.09765625 1869.5 c 128,-1,2
 309.106445312 1774 309.106445312 1774 209.612304688 1643.5 c 128,-1,3
 110.118164062 1513 110.118164062 1513 55.12109375 1354.5 c 128,-1,4
 0.125 1196 0.125 1196 0.125 1024 c 0,5,6
 0.125 883 0.125 883 36.623046875 752 c 128,-1,7
 73.1201171875 621 73.1201171875 621 139.616210938 507 c 128,-1,8
 206.112304688 393 206.112304688 393 299.606445312 299.5 c 128,-1,9
 393.100585938 206 393.100585938 206 507.09375 139.5 c 128,-1,10
 621.086914062 73 621.086914062 73 752.079101562 36.5 c 128,-1,11
 883.071289062 0 883.071289062 0 1024.0625 0 c 256,12,13
 1165.05371094 0 1165.05371094 0 1296.04589844 36.5 c 128,-1,14
 1427.03808594 73 1427.03808594 73 1541.03125 139.5 c 128,-1,15
 1655.02441406 206 1655.02441406 206 1748.51855469 299.5 c 128,-1,16
 1842.01269531 393 1842.01269531 393 1908.50878906 507 c 128,-1,17
 1975.00488281 621 1975.00488281 621 2011.50195312 751.5 c 128,-1,18
 2048 882 2048 882 2048 1024 c 0,19,20
 2048 1164 2048 1164 2011.00195312 1296 c 128,-1,21
 1974.00488281 1428 1974.00488281 1428 1905.50878906 1544.5 c 128,-1,22
 1837.01269531 1661 1837.01269531 1661 1739.01855469 1756.5 c 128,-1,23
 1641.02441406 1852 1641.02441406 1852 1518.03222656 1920 c 1,24,-1
 1792.015625 1920 l 1,25,-1
 1792.015625 2048 l 1,26,-1
 1280.046875 2048 l 1,27,-1
 1280.046875 1536 l 1,28,-1
 1408.0390625 1536 l 1,29,-1
 1408.0390625 1833 l 1,30,31
 1525.03222656 1777 1525.03222656 1777 1619.52636719 1692.5 c 128,-1,32
 1714.02050781 1608 1714.02050781 1608 1781.01660156 1502.5 c 128,-1,33
 1848.01171875 1397 1848.01171875 1397 1884.00976562 1275 c 128,-1,34
 1920.0078125 1153 1920.0078125 1153 1920.0078125 1024 c 0,35,36
 1920.0078125 901 1920.0078125 901 1888.00976562 786.5 c 128,-1,37
 1856.01171875 672 1856.01171875 672 1797.515625 572.5 c 128,-1,38
 1739.01855469 473 1739.01855469 473 1657.0234375 391 c 128,-1,39
 1575.02929688 309 1575.02929688 309 1475.53515625 250.5 c 128,-1,40
 1376.04101562 192 1376.04101562 192 1262.04785156 160 c 128,-1,41
 1148.0546875 128 1148.0546875 128 1024.0625 128 c 0,42,43
 901.0703125 128 901.0703125 128 786.577148438 160 c 128,-1,44
 672.083984375 192 672.083984375 192 572.58984375 250.5 c 128,-1,45
 473.095703125 309 473.095703125 309 391.1015625 391 c 128,-1,46
 309.106445312 473 309.106445312 473 250.609375 572.5 c 128,-1,47
 192.11328125 672 192.11328125 672 160.115234375 786 c 128,-1,48
 128.1171875 900 128.1171875 900 128.1171875 1024 c 0,49,50
 128.1171875 1174 128.1171875 1174 176.614257812 1313 c 128,-1,51
 225.111328125 1452 225.111328125 1452 312.10546875 1566 c 128,-1,52
 399.100585938 1680 399.100585938 1680 519.592773438 1763.5 c 128,-1,53
 640.0859375 1847 640.0859375 1847 785.077148438 1887 c 1,54,-1
 751.079101562 2010 l 1,55,-1
 751.079101562 2010 l 1,0,1
EndSplineSet
EndChar

StartChar: uniF087
Encoding: 61575 61575 137
Width: 2048
Flags: W
LayerCount: 2
Fore
SplineSet
1297 2010 m 1,0,1
 1463 1965 1463 1965 1601 1869.5 c 128,-1,2
 1739 1774 1739 1774 1838.5 1643.5 c 128,-1,3
 1938 1513 1938 1513 1993 1354.5 c 128,-1,4
 2048 1196 2048 1196 2048 1024 c 0,5,6
 2048 883 2048 883 2011.5 752 c 128,-1,7
 1975 621 1975 621 1908.5 507 c 128,-1,8
 1842 393 1842 393 1748.5 299.5 c 128,-1,9
 1655 206 1655 206 1541 139.5 c 128,-1,10
 1427 73 1427 73 1296 36.5 c 128,-1,11
 1165 0 1165 0 1024 0 c 256,12,13
 883 0 883 0 752 36.5 c 128,-1,14
 621 73 621 73 507 139.5 c 128,-1,15
 393 206 393 206 299.5 299.5 c 128,-1,16
 206 393 206 393 139.5 507 c 128,-1,17
 73 621 73 621 36.5 751.5 c 128,-1,18
 0 882 0 882 0 1024 c 0,19,20
 0 1164 0 1164 37 1296 c 128,-1,21
 74 1428 74 1428 142.5 1544.5 c 128,-1,22
 211 1661 211 1661 309 1756.5 c 128,-1,23
 407 1852 407 1852 530 1920 c 1,24,-1
 256 1920 l 1,25,-1
 256 2048 l 1,26,-1
 768 2048 l 1,27,-1
 768 1536 l 1,28,-1
 640 1536 l 1,29,-1
 640 1833 l 1,30,31
 523 1777 523 1777 428.5 1692.5 c 128,-1,32
 334 1608 334 1608 267 1502.5 c 128,-1,33
 200 1397 200 1397 164 1275 c 128,-1,34
 128 1153 128 1153 128 1024 c 0,35,36
 128 901 128 901 160 786.5 c 128,-1,37
 192 672 192 672 250.5 572.5 c 128,-1,38
 309 473 309 473 391 391 c 128,-1,39
 473 309 473 309 572.5 250.5 c 128,-1,40
 672 192 672 192 786 160 c 128,-1,41
 900 128 900 128 1024 128 c 0,42,43
 1147 128 1147 128 1261.5 160 c 128,-1,44
 1376 192 1376 192 1475.5 250.5 c 128,-1,45
 1575 309 1575 309 1657 391 c 128,-1,46
 1739 473 1739 473 1797.5 572.5 c 128,-1,47
 1856 672 1856 672 1888 786 c 128,-1,48
 1920 900 1920 900 1920 1024 c 0,49,50
 1920 1174 1920 1174 1871.5 1313 c 128,-1,51
 1823 1452 1823 1452 1736 1566 c 128,-1,52
 1649 1680 1649 1680 1528.5 1763.5 c 128,-1,53
 1408 1847 1408 1847 1263 1887 c 1,54,-1
 1297 2010 l 1,55,-1
 1297 2010 l 1,0,1
EndSplineSet
EndChar

StartChar: uniF088
Encoding: 61576 61576 138
Width: 2048
Flags: W
LayerCount: 2
Fore
SplineSet
1408 1740 m 1,0,1
 1379 1719 1379 1719 1347 1705.5 c 128,-1,2
 1315 1692 1315 1692 1280 1683 c 1,3,-1
 1280 1814 l 1,4,5
 1336 1833 1336 1833 1386.5 1859.5 c 128,-1,6
 1437 1886 1437 1886 1485 1920 c 1,7,-1
 1536 1920 l 1,8,-1
 1536 1152 l 1,9,-1
 1408 1152 l 1,10,-1
 1408 1740 l 1,0,1
2048 1024 m 1,11,12
 2048 883 2048 883 2011.5 752 c 128,-1,13
 1975 621 1975 621 1908.5 507 c 128,-1,14
 1842 393 1842 393 1748.5 299.5 c 128,-1,15
 1655 206 1655 206 1541 139.5 c 128,-1,16
 1427 73 1427 73 1296 36.5 c 128,-1,17
 1165 0 1165 0 1024 0 c 256,18,19
 883 0 883 0 752 36.5 c 128,-1,20
 621 73 621 73 507 139.5 c 128,-1,21
 393 206 393 206 299.5 299.5 c 128,-1,22
 206 393 206 393 139.5 507 c 128,-1,23
 73 621 73 621 36.5 751.5 c 128,-1,24
 0 882 0 882 0 1024 c 0,25,26
 0 1163 0 1163 36.5 1295 c 128,-1,27
 73 1427 73 1427 141.5 1544 c 128,-1,28
 210 1661 210 1661 308 1757 c 128,-1,29
 406 1853 406 1853 528 1920 c 1,30,-1
 256 1920 l 1,31,-1
 256 2048 l 1,32,-1
 768 2048 l 1,33,-1
 768 1536 l 1,34,-1
 640 1536 l 1,35,-1
 640 1834 l 1,36,37
 523 1778 523 1778 428.5 1693.5 c 128,-1,38
 334 1609 334 1609 267 1503 c 128,-1,39
 200 1397 200 1397 164 1275 c 128,-1,40
 128 1153 128 1153 128 1024 c 0,41,42
 128 901 128 901 160 786.5 c 128,-1,43
 192 672 192 672 250.5 572.5 c 128,-1,44
 309 473 309 473 391 391 c 128,-1,45
 473 309 473 309 572.5 250.5 c 128,-1,46
 672 192 672 192 786 160 c 128,-1,47
 900 128 900 128 1024 128 c 0,48,49
 1147 128 1147 128 1261.5 160 c 128,-1,50
 1376 192 1376 192 1475.5 250.5 c 128,-1,51
 1575 309 1575 309 1657 391 c 128,-1,52
 1739 473 1739 473 1797.5 572.5 c 128,-1,53
 1856 672 1856 672 1888 786 c 128,-1,54
 1920 900 1920 900 1920 1024 c 1,55,-1
 2048 1024 l 1,11,12
EndSplineSet
EndChar

StartChar: uniF089
Encoding: 61577 61577 139
Width: 2048
Flags: W
LayerCount: 2
Fore
SplineSet
2048 1920 m 1,0,-1
 2048 256 l 1,1,-1
 0 256 l 1,2,-1
 0 1920 l 1,3,-1
 2048 1920 l 1,0,-1
128 1792 m 1,4,-1
 128 1664 l 1,5,-1
 1920 1664 l 1,6,-1
 1920 1792 l 1,7,-1
 128 1792 l 1,4,-1
1920 384 m 1,8,-1
 1920 1536 l 1,9,-1
 128 1536 l 1,10,-1
 128 384 l 1,11,-1
 1920 384 l 1,8,-1
1392 1280 m 1,12,-1
 1649 640 l 1,13,-1
 1558 640 l 1,14,-1
 1301 1280 l 1,15,-1
 1392 1280 l 1,12,-1
736 1204 m 0,16,17
 683 1204 683 1204 639.5 1187.5 c 128,-1,18
 596 1171 596 1171 565.5 1139.5 c 128,-1,19
 535 1108 535 1108 518 1061.5 c 128,-1,20
 501 1015 501 1015 501 956 c 0,21,22
 501 901 501 901 516.5 856 c 128,-1,23
 532 811 532 811 561.5 779.5 c 128,-1,24
 591 748 591 748 634 731 c 128,-1,25
 677 714 677 714 732 714 c 0,26,27
 767 714 767 714 801.5 721 c 128,-1,28
 836 728 836 728 859 739 c 1,29,-1
 875 677 l 1,30,31
 853 666 853 666 812 657.5 c 128,-1,32
 771 649 771 649 716 649 c 0,33,34
 653 649 653 649 598.5 669 c 128,-1,35
 544 689 544 689 504 727.5 c 128,-1,36
 464 766 464 766 441.5 822.5 c 128,-1,37
 419 879 419 879 419 953 c 0,38,39
 419 1023 419 1023 442 1081.5 c 128,-1,40
 465 1140 465 1140 506.5 1181.5 c 128,-1,41
 548 1223 548 1223 605.5 1246 c 128,-1,42
 663 1269 663 1269 733 1269 c 0,43,44
 790 1269 790 1269 825 1259.5 c 128,-1,45
 860 1250 860 1250 876 1242 c 1,46,-1
 857 1179 l 1,47,48
 835 1190 835 1190 804.5 1197 c 128,-1,49
 774 1204 774 1204 736 1204 c 0,16,17
1024 1152 m 1,50,-1
 1152 1152 l 1,51,-1
 1152 1024 l 1,52,-1
 1024 1024 l 1,53,-1
 1024 1152 l 1,50,-1
1024 896 m 1,54,-1
 1152 896 l 1,55,-1
 1152 768 l 1,56,-1
 1024 768 l 1,57,-1
 1024 896 l 1,54,-1
EndSplineSet
EndChar

StartChar: uniF08A
Encoding: 61578 61578 140
Width: 2048
Flags: W
LayerCount: 2
Fore
SplineSet
640 1024 m 1,0,-1
 245 1024 l 1,1,-1
 451 819 l 1,2,-1
 360 728 l 1,3,-1
 0 1088 l 1,4,-1
 360 1448 l 1,5,-1
 451 1357 l 1,6,-1
 245 1152 l 1,7,-1
 640 1152 l 1,8,-1
 640 1024 l 1,0,-1
1560 1448 m 1,9,-1
 1920 1088 l 1,10,-1
 1564 733 l 1,11,-1
 1474 823 l 1,12,-1
 1675 1024 l 1,13,-1
 1280 1024 l 1,14,-1
 1280 1152 l 1,15,-1
 1675 1152 l 1,16,-1
 1469 1357 l 1,17,-1
 1560 1448 l 1,9,-1
896 1803 m 1,18,-1
 695 1602 l 1,19,-1
 605 1692 l 1,20,-1
 960 2048 l 1,21,-1
 1320 1688 l 1,22,-1
 1229 1597 l 1,23,-1
 1024 1803 l 1,24,-1
 1024 1408 l 1,25,-1
 896 1408 l 1,26,-1
 896 1803 l 1,18,-1
1024 373 m 1,27,-1
 1229 579 l 1,28,-1
 1320 488 l 1,29,-1
 960 128 l 1,30,-1
 600 488 l 1,31,-1
 691 579 l 1,32,-1
 896 373 l 1,33,-1
 896 768 l 1,34,-1
 1024 768 l 1,35,-1
 1024 373 l 1,27,-1
EndSplineSet
EndChar

StartChar: uniF08B
Encoding: 61579 61579 141
Width: 2048
Flags: W
LayerCount: 2
Fore
SplineSet
11 411 m 1,0,-1
 237 1088 l 1,1,-1
 11 1765 l 1,2,-1
 2042 1088 l 1,3,-1
 11 411 l 1,0,-1
350 1152 m 1,4,-1
 1446 1152 l 1,5,-1
 213 1563 l 1,6,-1
 350 1152 l 1,4,-1
213 613 m 1,7,-1
 1446 1024 l 1,8,-1
 350 1024 l 1,9,-1
 213 613 l 1,7,-1
EndSplineSet
EndChar

StartChar: uniF08C
Encoding: 61580 61580 142
Width: 2048
Flags: W
LayerCount: 2
Fore
SplineSet
2042 1088 m 1,0,-1
 11 411 l 1,1,-1
 215 1024 l 1,2,-1
 1152 1024 l 1,3,-1
 1408 1088 l 1,4,-1
 1152 1152 l 1,5,-1
 215 1152 l 1,6,-1
 11 1765 l 1,7,-1
 2042 1088 l 1,8,-1
 2042 1088 l 1,0,-1
EndSplineSet
EndChar

StartChar: uniF08D
Encoding: 61581 61581 143
Width: 2048
Flags: W
LayerCount: 2
Fore
SplineSet
0 2048 m 1,0,-1
 2048 2048 l 1,1,-1
 2048 384 l 1,2,-1
 1408 384 l 1,3,-1
 1024 0 l 1,4,-1
 640 384 l 1,5,-1
 0 384 l 1,6,-1
 0 2048 l 1,0,-1
1920 512 m 1,7,-1
 1920 1920 l 1,8,-1
 128 1920 l 1,9,-1
 128 512 l 1,10,-1
 693 512 l 1,11,-1
 1024 181 l 1,12,-1
 1355 512 l 1,13,-1
 1920 512 l 1,7,-1
EndSplineSet
EndChar

StartChar: uniF08E
Encoding: 61582 61582 144
Width: 2048
Flags: W
LayerCount: 2
Fore
SplineSet
0 2048 m 1,0,-1
 2048 2048 l 1,1,-1
 2048 384 l 1,2,-1
 1408 384 l 1,3,-1
 1024 0 l 1,4,-1
 640 384 l 1,5,-1
 0 384 l 1,6,-1
 0 2048 l 1,0,-1
1920 512 m 1,7,-1
 1920 1920 l 1,8,-1
 128 1920 l 1,9,-1
 128 512 l 1,10,-1
 693 512 l 1,11,-1
 1024 181 l 1,12,-1
 1355 512 l 1,13,-1
 1920 512 l 1,7,-1
1664 1280 m 1,14,-1
 1664 1152 l 1,15,-1
 384 1152 l 1,16,-1
 384 1280 l 1,17,-1
 1664 1280 l 1,14,-1
1664 1664 m 1,18,-1
 1664 1536 l 1,19,-1
 384 1536 l 1,20,-1
 384 1664 l 1,21,-1
 1664 1664 l 1,18,-1
1152 896 m 1,22,-1
 1152 768 l 1,23,-1
 384 768 l 1,24,-1
 384 896 l 1,25,-1
 1152 896 l 1,22,-1
EndSplineSet
EndChar

StartChar: uniF08F
Encoding: 61583 61583 145
Width: 2048
Flags: W
LayerCount: 2
Fore
SplineSet
0 2048 m 1,0,-1
 2048 2048 l 1,1,-1
 2048 384 l 1,2,-1
 1408 384 l 1,3,-1
 1024 0 l 1,4,-1
 640 384 l 1,5,-1
 0 384 l 1,6,-1
 0 2048 l 1,7,-1
 0 2048 l 1,0,-1
1664 1280 m 1,8,-1
 384 1280 l 1,9,-1
 384 1152 l 1,10,-1
 1664 1152 l 1,11,-1
 1664 1280 l 1,12,-1
 1664 1280 l 1,8,-1
1664 1664 m 1,13,-1
 384 1664 l 1,14,-1
 384 1536 l 1,15,-1
 1664 1536 l 1,16,-1
 1664 1664 l 1,17,-1
 1664 1664 l 1,13,-1
1152 896 m 1,18,-1
 384 896 l 1,19,-1
 384 768 l 1,20,-1
 1152 768 l 1,21,-1
 1152 896 l 1,22,-1
 1152 896 l 1,18,-1
EndSplineSet
EndChar

StartChar: uniF090
Encoding: 61584 61584 146
Width: 2048
Flags: W
LayerCount: 2
Fore
SplineSet
2048 70 m 0,0,1
 2048 42 2048 42 2031 21 c 128,-1,2
 2014 0 2014 0 1984 0 c 0,3,4
 1958 0 1958 0 1939 19 c 2,5,-1
 1154 803 l 1,6,7
 1058 724 1058 724 943.5 682 c 128,-1,8
 829 640 829 640 704 640 c 0,9,10
 607 640 607 640 517 665 c 128,-1,11
 427 690 427 690 349 736 c 128,-1,12
 271 782 271 782 206.5 846.5 c 128,-1,13
 142 911 142 911 96 989 c 128,-1,14
 50 1067 50 1067 25 1157 c 128,-1,15
 0 1247 0 1247 0 1344 c 256,16,17
 0 1441 0 1441 25 1531 c 128,-1,18
 50 1621 50 1621 96 1699 c 128,-1,19
 142 1777 142 1777 206.5 1841.5 c 128,-1,20
 271 1906 271 1906 349 1952 c 128,-1,21
 427 1998 427 1998 517 2023 c 128,-1,22
 607 2048 607 2048 704 2048 c 256,23,24
 801 2048 801 2048 891 2023 c 128,-1,25
 981 1998 981 1998 1059 1952 c 128,-1,26
 1137 1906 1137 1906 1201.5 1841.5 c 128,-1,27
 1266 1777 1266 1777 1312 1699 c 128,-1,28
 1358 1621 1358 1621 1383 1531 c 128,-1,29
 1408 1441 1408 1441 1408 1344 c 0,30,31
 1408 1219 1408 1219 1366 1104.5 c 128,-1,32
 1324 990 1324 990 1245 894 c 1,33,34
 1260 879 1260 879 1302.5 837 c 128,-1,35
 1345 795 1345 795 1404.5 737 c 128,-1,36
 1464 679 1464 679 1534.5 609.5 c 128,-1,37
 1605 540 1605 540 1676.5 468.5 c 128,-1,38
 1748 397 1748 397 1815 329 c 128,-1,39
 1882 261 1882 261 1934 206 c 128,-1,40
 1986 151 1986 151 2017 114.5 c 128,-1,41
 2048 78 2048 78 2048 70 c 0,0,1
704 768 m 256,42,43
 823 768 823 768 928 813.5 c 128,-1,44
 1033 859 1033 859 1111 937 c 128,-1,45
 1189 1015 1189 1015 1234.5 1120 c 128,-1,46
 1280 1225 1280 1225 1280 1344 c 256,47,48
 1280 1463 1280 1463 1234.5 1568 c 128,-1,49
 1189 1673 1189 1673 1111 1751 c 128,-1,50
 1033 1829 1033 1829 928 1874.5 c 128,-1,51
 823 1920 823 1920 704 1920 c 256,52,53
 585 1920 585 1920 480 1874.5 c 128,-1,54
 375 1829 375 1829 297 1751 c 128,-1,55
 219 1673 219 1673 173.5 1568 c 128,-1,56
 128 1463 128 1463 128 1344 c 256,57,58
 128 1225 128 1225 173.5 1120 c 128,-1,59
 219 1015 219 1015 297 937 c 128,-1,60
 375 859 375 859 480 813.5 c 128,-1,61
 585 768 585 768 704 768 c 256,42,43
EndSplineSet
EndChar

StartChar: uniF091
Encoding: 61585 61585 147
Width: 2048
Flags: W
LayerCount: 2
Fore
SplineSet
2048 70 m 0,0,1
 2048 42 2048 42 2031 21 c 128,-1,2
 2014 0 2014 0 1984 0 c 0,3,4
 1958 0 1958 0 1939 19 c 2,5,-1
 1154 803 l 1,6,7
 1058 724 1058 724 943.5 682 c 128,-1,8
 829 640 829 640 704 640 c 0,9,10
 607 640 607 640 517 665 c 128,-1,11
 427 690 427 690 349 736 c 128,-1,12
 271 782 271 782 206.5 846.5 c 128,-1,13
 142 911 142 911 96 989 c 128,-1,14
 50 1067 50 1067 25 1157 c 128,-1,15
 0 1247 0 1247 0 1344 c 256,16,17
 0 1441 0 1441 25 1531 c 128,-1,18
 50 1621 50 1621 96 1699 c 128,-1,19
 142 1777 142 1777 206.5 1841.5 c 128,-1,20
 271 1906 271 1906 349 1952 c 128,-1,21
 427 1998 427 1998 517 2023 c 128,-1,22
 607 2048 607 2048 704 2048 c 256,23,24
 801 2048 801 2048 891 2023 c 128,-1,25
 981 1998 981 1998 1059 1952 c 128,-1,26
 1137 1906 1137 1906 1201.5 1841.5 c 128,-1,27
 1266 1777 1266 1777 1312 1699 c 128,-1,28
 1358 1621 1358 1621 1383 1531 c 128,-1,29
 1408 1441 1408 1441 1408 1344 c 0,30,31
 1408 1219 1408 1219 1366 1104.5 c 128,-1,32
 1324 990 1324 990 1245 894 c 1,33,34
 1260 879 1260 879 1302.5 837 c 128,-1,35
 1345 795 1345 795 1404.5 737 c 128,-1,36
 1464 679 1464 679 1534.5 609.5 c 128,-1,37
 1605 540 1605 540 1676.5 468.5 c 128,-1,38
 1748 397 1748 397 1815 329 c 128,-1,39
 1882 261 1882 261 1934 206 c 128,-1,40
 1986 151 1986 151 2017 114.5 c 128,-1,41
 2048 78 2048 78 2048 70 c 0,0,1
704 768 m 256,42,43
 823 768 823 768 928 813.5 c 128,-1,44
 1033 859 1033 859 1111 937 c 128,-1,45
 1189 1015 1189 1015 1234.5 1120 c 128,-1,46
 1280 1225 1280 1225 1280 1344 c 256,47,48
 1280 1463 1280 1463 1234.5 1568 c 128,-1,49
 1189 1673 1189 1673 1111 1751 c 128,-1,50
 1033 1829 1033 1829 928 1874.5 c 128,-1,51
 823 1920 823 1920 704 1920 c 256,52,53
 585 1920 585 1920 480 1874.5 c 128,-1,54
 375 1829 375 1829 297 1751 c 128,-1,55
 219 1673 219 1673 173.5 1568 c 128,-1,56
 128 1463 128 1463 128 1344 c 256,57,58
 128 1225 128 1225 173.5 1120 c 128,-1,59
 219 1015 219 1015 297 937 c 128,-1,60
 375 859 375 859 480 813.5 c 128,-1,61
 585 768 585 768 704 768 c 256,42,43
384 1408 m 1,62,-1
 1024 1408 l 1,63,-1
 1024 1280 l 1,64,-1
 384 1280 l 1,65,-1
 384 1408 l 1,62,-1
EndSplineSet
EndChar

StartChar: uniF092
Encoding: 61586 61586 148
Width: 2048
Flags: W
LayerCount: 2
Fore
SplineSet
2029 109 m 2,0,1
 2048 90 2048 90 2048 64 c 256,2,3
 2048 38 2048 38 2029 19 c 128,-1,4
 2010 0 2010 0 1984 0 c 256,5,6
 1958 0 1958 0 1939 19 c 2,7,-1
 1154 803 l 1,8,9
 1058 724 1058 724 943.5 682 c 128,-1,10
 829 640 829 640 704 640 c 0,11,12
 607 640 607 640 517 665 c 128,-1,13
 427 690 427 690 349 736 c 128,-1,14
 271 782 271 782 206.5 846.5 c 128,-1,15
 142 911 142 911 96 989 c 128,-1,16
 50 1067 50 1067 25 1157 c 128,-1,17
 0 1247 0 1247 0 1344 c 256,18,19
 0 1441 0 1441 25 1531 c 128,-1,20
 50 1621 50 1621 96 1699 c 128,-1,21
 142 1777 142 1777 206.5 1841.5 c 128,-1,22
 271 1906 271 1906 349 1952 c 128,-1,23
 427 1998 427 1998 517 2023 c 128,-1,24
 607 2048 607 2048 704 2048 c 256,25,26
 801 2048 801 2048 891 2023 c 128,-1,27
 981 1998 981 1998 1059 1952 c 128,-1,28
 1137 1906 1137 1906 1201.5 1841.5 c 128,-1,29
 1266 1777 1266 1777 1312 1699 c 128,-1,30
 1358 1621 1358 1621 1383 1531 c 128,-1,31
 1408 1441 1408 1441 1408 1344 c 0,32,33
 1408 1219 1408 1219 1366 1104.5 c 128,-1,34
 1324 990 1324 990 1245 894 c 1,35,-1
 2029 109 l 2,0,1
704 768 m 256,36,37
 823 768 823 768 928 813.5 c 128,-1,38
 1033 859 1033 859 1111 937 c 128,-1,39
 1189 1015 1189 1015 1234.5 1120 c 128,-1,40
 1280 1225 1280 1225 1280 1344 c 256,41,42
 1280 1463 1280 1463 1234.5 1568 c 128,-1,43
 1189 1673 1189 1673 1111 1751 c 128,-1,44
 1033 1829 1033 1829 928 1874.5 c 128,-1,45
 823 1920 823 1920 704 1920 c 256,46,47
 585 1920 585 1920 480 1874.5 c 128,-1,48
 375 1829 375 1829 297 1751 c 128,-1,49
 219 1673 219 1673 173.5 1568 c 128,-1,50
 128 1463 128 1463 128 1344 c 256,51,52
 128 1225 128 1225 173.5 1120 c 128,-1,53
 219 1015 219 1015 297 937 c 128,-1,54
 375 859 375 859 480 813.5 c 128,-1,55
 585 768 585 768 704 768 c 256,36,37
768 1408 m 1,56,-1
 1024 1408 l 1,57,-1
 1024 1280 l 1,58,-1
 768 1280 l 1,59,-1
 768 1024 l 1,60,-1
 640 1024 l 1,61,-1
 640 1280 l 1,62,-1
 384 1280 l 1,63,-1
 384 1408 l 1,64,-1
 640 1408 l 1,65,-1
 640 1664 l 1,66,-1
 768 1664 l 1,67,-1
 768 1408 l 1,56,-1
EndSplineSet
EndChar

StartChar: uniF093
Encoding: 61587 61587 149
Width: 2048
Flags: W
LayerCount: 2
Fore
SplineSet
1920 0 m 1,0,-1
 0 0 l 1,1,-1
 256 768 l 1,2,-1
 896 768 l 1,3,-1
 896 1157 l 1,4,5
 813 1168 813 1168 743 1207.5 c 128,-1,6
 673 1247 673 1247 621.5 1306.5 c 128,-1,7
 570 1366 570 1366 541 1441.5 c 128,-1,8
 512 1517 512 1517 512 1600 c 0,9,10
 512 1693 512 1693 547.5 1774.5 c 128,-1,11
 583 1856 583 1856 643.5 1916.5 c 128,-1,12
 704 1977 704 1977 785.5 2012.5 c 128,-1,13
 867 2048 867 2048 960 2048 c 256,14,15
 1053 2048 1053 2048 1134.5 2012.5 c 128,-1,16
 1216 1977 1216 1977 1276.5 1916.5 c 128,-1,17
 1337 1856 1337 1856 1372.5 1774.5 c 128,-1,18
 1408 1693 1408 1693 1408 1600 c 0,19,20
 1408 1517 1408 1517 1379 1441.5 c 128,-1,21
 1350 1366 1350 1366 1298.5 1306.5 c 128,-1,22
 1247 1247 1247 1247 1176.5 1207.5 c 128,-1,23
 1106 1168 1106 1168 1024 1157 c 1,24,-1
 1024 768 l 1,25,-1
 1664 768 l 1,26,-1
 1920 0 l 1,0,-1
640 1600 m 256,27,28
 640 1534 640 1534 665.5 1476 c 128,-1,29
 691 1418 691 1418 734.5 1374.5 c 128,-1,30
 778 1331 778 1331 836 1305.5 c 128,-1,31
 894 1280 894 1280 960 1280 c 256,32,33
 1026 1280 1026 1280 1084 1305.5 c 128,-1,34
 1142 1331 1142 1331 1185.5 1374.5 c 128,-1,35
 1229 1418 1229 1418 1254.5 1476 c 128,-1,36
 1280 1534 1280 1534 1280 1600 c 256,37,38
 1280 1666 1280 1666 1254.5 1724 c 128,-1,39
 1229 1782 1229 1782 1185.5 1825.5 c 128,-1,40
 1142 1869 1142 1869 1084 1894.5 c 128,-1,41
 1026 1920 1026 1920 960 1920 c 256,42,43
 894 1920 894 1920 836 1894.5 c 128,-1,44
 778 1869 778 1869 734.5 1825.5 c 128,-1,45
 691 1782 691 1782 665.5 1724 c 128,-1,46
 640 1666 640 1666 640 1600 c 256,27,28
178 128 m 1,47,-1
 1742 128 l 1,48,-1
 1572 640 l 1,49,-1
 1024 640 l 1,50,-1
 1024 384 l 2,51,52
 1024 375 1024 375 1016.5 368.5 c 128,-1,53
 1009 362 1009 362 998.5 358.5 c 128,-1,54
 988 355 988 355 977.5 353.5 c 128,-1,55
 967 352 967 352 960 352 c 256,56,57
 953 352 953 352 942.5 353.5 c 128,-1,58
 932 355 932 355 921.5 358.5 c 128,-1,59
 911 362 911 362 903.5 368.5 c 128,-1,60
 896 375 896 375 896 384 c 2,61,-1
 896 640 l 1,62,-1
 348 640 l 1,63,-1
 178 128 l 1,47,-1
1024 1600 m 256,64,65
 1024 1574 1024 1574 1005 1555 c 128,-1,66
 986 1536 986 1536 960 1536 c 256,67,68
 934 1536 934 1536 915 1555 c 128,-1,69
 896 1574 896 1574 896 1600 c 256,70,71
 896 1626 896 1626 915 1645 c 128,-1,72
 934 1664 934 1664 960 1664 c 256,73,74
 986 1664 986 1664 1005 1645 c 128,-1,75
 1024 1626 1024 1626 1024 1600 c 256,64,65
EndSplineSet
EndChar

StartChar: uniF094
Encoding: 61588 61588 150
Width: 2048
Flags: W
LayerCount: 2
Fore
SplineSet
1152 1792 m 1,0,-1
 1920 1792 l 1,1,-1
 1920 768 l 1,2,-1
 1024 768 l 1,3,-1
 1024 1024 l 1,4,-1
 384 1024 l 1,5,-1
 384 0 l 1,6,-1
 256 0 l 1,7,-1
 256 2048 l 1,8,-1
 1152 2048 l 1,9,-1
 1152 1792 l 1,0,-1
384 1152 m 1,10,-1
 1024 1152 l 1,11,-1
 1024 1920 l 1,12,-1
 384 1920 l 1,13,-1
 384 1152 l 1,10,-1
1792 896 m 1,14,-1
 1792 1664 l 1,15,-1
 1152 1664 l 1,16,-1
 1152 896 l 1,17,-1
 1792 896 l 1,14,-1
EndSplineSet
EndChar

StartChar: uniF095
Encoding: 61589 61589 151
Width: 2048
Flags: W
LayerCount: 2
Fore
SplineSet
256 0 m 1,0,-1
 256 2048 l 1,1,-1
 1024 2048 l 1,2,-1
 1024 1024 l 1,3,-1
 384 1024 l 1,4,-1
 384 0 l 1,5,-1
 256 0 l 1,0,-1
1152 1792 m 1,6,-1
 1920 1792 l 1,7,-1
 1920 768 l 1,8,-1
 1152 768 l 1,9,-1
 1152 1792 l 1,6,-1
EndSplineSet
EndChar

StartChar: uniF096
Encoding: 61590 61590 152
Width: 2048
Flags: W
LayerCount: 2
Fore
SplineSet
1024 37 m 1,0,-1
 1024 805 l 1,1,-1
 685 467 l 1,2,-1
 595 557 l 1,3,-1
 997 960 l 1,4,-1
 595 1363 l 1,5,-1
 685 1453 l 1,6,-1
 1024 1115 l 1,7,-1
 1024 1883 l 1,8,-1
 1562 1344 l 1,9,-1
 1178 960 l 1,10,-1
 1562 576 l 1,11,-1
 1024 37 l 1,12,-1
 1024 37 l 1,0,-1
1152 805 m 1,13,-1
 1152 347 l 1,14,-1
 1381 576 l 1,15,-1
 1152 805 l 1,16,-1
 1152 805 l 1,13,-1
1152 1573 m 1,17,-1
 1152 1115 l 1,18,-1
 1381 1344 l 1,19,-1
 1152 1573 l 1,20,-1
 1152 1573 l 1,17,-1
EndSplineSet
EndChar

StartChar: uniF097
Encoding: 61591 61591 153
Width: 2048
Flags: W
LayerCount: 2
Fore
SplineSet
896 1408 m 1,0,-1
 1024 1408 l 1,1,-1
 1024 0 l 1,2,-1
 896 0 l 1,3,-1
 896 1408 l 1,0,-1
372 1804 m 1,4,5
 314 1746 314 1746 268.5 1677.5 c 128,-1,6
 223 1609 223 1609 192 1534 c 128,-1,7
 161 1459 161 1459 144.5 1378.5 c 128,-1,8
 128 1298 128 1298 128 1216 c 256,9,10
 128 1134 128 1134 144.5 1053.5 c 128,-1,11
 161 973 161 973 192 898 c 128,-1,12
 223 823 223 823 268.5 754.5 c 128,-1,13
 314 686 314 686 372 628 c 1,14,-1
 281 537 l 1,15,16
 145 674 145 674 72.5 848.5 c 128,-1,17
 0 1023 0 1023 0 1216 c 256,18,19
 0 1409 0 1409 72.5 1583.5 c 128,-1,20
 145 1758 145 1758 281 1895 c 1,21,-1
 372 1804 l 1,4,5
1639 1895 m 1,22,23
 1775 1758 1775 1758 1847.5 1583.5 c 128,-1,24
 1920 1409 1920 1409 1920 1216 c 256,25,26
 1920 1023 1920 1023 1847.5 848.5 c 128,-1,27
 1775 674 1775 674 1639 537 c 1,28,-1
 1548 628 l 1,29,30
 1606 686 1606 686 1651.5 754.5 c 128,-1,31
 1697 823 1697 823 1728 898 c 128,-1,32
 1759 973 1759 973 1775.5 1053.5 c 128,-1,33
 1792 1134 1792 1134 1792 1216 c 256,34,35
 1792 1298 1792 1298 1775.5 1378.5 c 128,-1,36
 1759 1459 1759 1459 1728 1534 c 128,-1,37
 1697 1609 1697 1609 1651.5 1677.5 c 128,-1,38
 1606 1746 1606 1746 1548 1804 c 1,39,-1
 1639 1895 l 1,22,23
1367 1623 m 1,40,41
 1448 1542 1448 1542 1492 1436.5 c 128,-1,42
 1536 1331 1536 1331 1536 1216 c 256,43,44
 1536 1101 1536 1101 1492 995.5 c 128,-1,45
 1448 890 1448 890 1367 809 c 1,46,-1
 1277 899 l 1,47,48
 1340 962 1340 962 1373.5 1044.5 c 128,-1,49
 1407 1127 1407 1127 1407 1216 c 256,50,51
 1407 1305 1407 1305 1373.5 1387.5 c 128,-1,52
 1340 1470 1340 1470 1277 1533 c 1,53,-1
 1367 1623 l 1,40,41
643 1533 m 1,54,55
 580 1470 580 1470 546 1387.5 c 128,-1,56
 512 1305 512 1305 512 1216 c 256,57,58
 512 1127 512 1127 546 1044.5 c 128,-1,59
 580 962 580 962 643 899 c 1,60,-1
 553 809 l 1,61,62
 472 890 472 890 428 995.5 c 128,-1,63
 384 1101 384 1101 384 1216 c 256,64,65
 384 1331 384 1331 428 1436.5 c 128,-1,66
 472 1542 472 1542 553 1623 c 1,67,-1
 643 1533 l 1,54,55
EndSplineSet
EndChar

StartChar: uniF098
Encoding: 61592 61592 154
Width: 2048
Flags: W
LayerCount: 2
Fore
SplineSet
1024 1152 m 0,0,1
 1076 1152 1076 1152 1123 1131.5 c 128,-1,2
 1170 1111 1170 1111 1204.5 1076.5 c 128,-1,3
 1239 1042 1239 1042 1259.5 995 c 128,-1,4
 1280 948 1280 948 1280 896 c 0,5,6
 1280 843 1280 843 1259.5 796.5 c 128,-1,7
 1239 750 1239 750 1204.5 715.5 c 128,-1,8
 1170 681 1170 681 1123 660.5 c 128,-1,9
 1076 640 1076 640 1024 640 c 0,10,11
 971 640 971 640 924.5 660.5 c 128,-1,12
 878 681 878 681 843.5 715.5 c 128,-1,13
 809 750 809 750 788.5 796.5 c 128,-1,14
 768 843 768 843 768 896 c 0,15,16
 768 948 768 948 788.5 995 c 128,-1,17
 809 1042 809 1042 843.5 1076.5 c 128,-1,18
 878 1111 878 1111 924.5 1131.5 c 128,-1,19
 971 1152 971 1152 1024 1152 c 0,0,1
1024 768 m 256,20,21
 1051 768 1051 768 1074 778 c 128,-1,22
 1097 788 1097 788 1114.5 805.5 c 128,-1,23
 1132 823 1132 823 1142 846 c 128,-1,24
 1152 869 1152 869 1152 896 c 256,25,26
 1152 923 1152 923 1142 946 c 128,-1,27
 1132 969 1132 969 1114.5 986.5 c 128,-1,28
 1097 1004 1097 1004 1074 1014 c 128,-1,29
 1051 1024 1051 1024 1024 1024 c 256,30,31
 997 1024 997 1024 974 1014 c 128,-1,32
 951 1004 951 1004 933.5 986.5 c 128,-1,33
 916 969 916 969 906 946 c 128,-1,34
 896 923 896 923 896 896 c 256,35,36
 896 869 896 869 906 846 c 128,-1,37
 916 823 916 823 933.5 805.5 c 128,-1,38
 951 788 951 788 974 778 c 128,-1,39
 997 768 997 768 1024 768 c 256,20,21
1024 1920 m 256,40,41
 1165 1920 1165 1920 1295.5 1883.5 c 128,-1,42
 1426 1847 1426 1847 1540 1780 c 128,-1,43
 1654 1713 1654 1713 1747.5 1619.5 c 128,-1,44
 1841 1526 1841 1526 1908 1412 c 128,-1,45
 1975 1298 1975 1298 2011.5 1167.5 c 128,-1,46
 2048 1037 2048 1037 2048 896 c 0,47,48
 2048 794 2048 794 2028 695.5 c 128,-1,49
 2008 597 2008 597 1970 504.5 c 128,-1,50
 1932 412 1932 412 1876 328 c 128,-1,51
 1820 244 1820 244 1748 172 c 1,52,-1
 1658 262 l 1,53,54
 1721 325 1721 325 1769.5 398.5 c 128,-1,55
 1818 472 1818 472 1851.5 553 c 128,-1,56
 1885 634 1885 634 1902.5 720.5 c 128,-1,57
 1920 807 1920 807 1920 896 c 0,58,59
 1920 1020 1920 1020 1888 1134.5 c 128,-1,60
 1856 1249 1856 1249 1797.5 1348.5 c 128,-1,61
 1739 1448 1739 1448 1657.5 1529.5 c 128,-1,62
 1576 1611 1576 1611 1476.5 1669.5 c 128,-1,63
 1377 1728 1377 1728 1262.5 1760 c 128,-1,64
 1148 1792 1148 1792 1024 1792 c 256,65,66
 900 1792 900 1792 785.5 1760 c 128,-1,67
 671 1728 671 1728 571.5 1669.5 c 128,-1,68
 472 1611 472 1611 390.5 1529.5 c 128,-1,69
 309 1448 309 1448 250.5 1348.5 c 128,-1,70
 192 1249 192 1249 160 1134.5 c 128,-1,71
 128 1020 128 1020 128 896 c 0,72,73
 128 807 128 807 145.5 720.5 c 128,-1,74
 163 634 163 634 196.5 553 c 128,-1,75
 230 472 230 472 278.5 398.5 c 128,-1,76
 327 325 327 325 390 262 c 1,77,-1
 300 172 l 1,78,79
 228 244 228 244 172 328 c 128,-1,80
 116 412 116 412 78 504.5 c 128,-1,81
 40 597 40 597 20 695.5 c 128,-1,82
 0 794 0 794 0 896 c 0,83,84
 0 1037 0 1037 36.5 1167.5 c 128,-1,85
 73 1298 73 1298 140 1412 c 128,-1,86
 207 1526 207 1526 300.5 1619.5 c 128,-1,87
 394 1713 394 1713 508 1780 c 128,-1,88
 622 1847 622 1847 752.5 1883.5 c 128,-1,89
 883 1920 883 1920 1024 1920 c 256,40,41
1024 1536 m 256,90,91
 1157 1536 1157 1536 1273.5 1486 c 128,-1,92
 1390 1436 1390 1436 1477 1349 c 128,-1,93
 1564 1262 1564 1262 1614 1145.5 c 128,-1,94
 1664 1029 1664 1029 1664 896 c 0,95,96
 1664 768 1664 768 1615.5 651 c 128,-1,97
 1567 534 1567 534 1477 443 c 1,98,-1
 1386 534 l 1,99,100
 1458 606 1458 606 1497 700 c 128,-1,101
 1536 794 1536 794 1536 896 c 0,102,103
 1536 1002 1536 1002 1495.5 1095 c 128,-1,104
 1455 1188 1455 1188 1385.5 1257.5 c 128,-1,105
 1316 1327 1316 1327 1223 1367.5 c 128,-1,106
 1130 1408 1130 1408 1024 1408 c 256,107,108
 918 1408 918 1408 825 1367.5 c 128,-1,109
 732 1327 732 1327 662.5 1257.5 c 128,-1,110
 593 1188 593 1188 552.5 1095 c 128,-1,111
 512 1002 512 1002 512 896 c 0,112,113
 512 794 512 794 551 700 c 128,-1,114
 590 606 590 606 662 534 c 1,115,-1
 571 443 l 1,116,117
 481 534 481 534 432.5 651 c 128,-1,118
 384 768 384 768 384 896 c 0,119,120
 384 1029 384 1029 434 1145.5 c 128,-1,121
 484 1262 484 1262 571 1349 c 128,-1,122
 658 1436 658 1436 774.5 1486 c 128,-1,123
 891 1536 891 1536 1024 1536 c 256,90,91
EndSplineSet
EndChar

StartChar: uniF099
Encoding: 61593 61593 155
Width: 2048
Flags: W
LayerCount: 2
Fore
SplineSet
1909 640 m 1,0,-1
 1325 640 l 1,1,-1
 1526 204 l 1,2,-1
 1101 8 l 1,3,-1
 895 456 l 1,4,-1
 512 79 l 1,5,-1
 512 2037 l 1,6,-1
 1909 640 l 1,0,-1
1356 266 m 1,7,-1
 1126 768 l 1,8,-1
 1600 768 l 1,9,-1
 640 1728 l 1,10,-1
 640 384 l 1,11,-1
 936 675 l 1,12,-1
 1164 178 l 1,13,-1
 1356 266 l 1,7,-1
EndSplineSet
EndChar

StartChar: uniF09A
Encoding: 61594 61594 156
Width: 2048
Flags: W
LayerCount: 2
Fore
SplineSet
1223 1280 m 1,0,-1
 1883 1280 l 1,1,-1
 603 0 l 1,2,-1
 313 0 l 1,3,-1
 697 768 l 1,4,-1
 248 768 l 1,5,-1
 888 2048 l 1,6,-1
 1607 2048 l 1,7,-1
 1223 1280 l 1,0,-1
549 128 m 1,8,-1
 1573 1152 l 1,9,-1
 1016 1152 l 1,10,-1
 1400 1920 l 1,11,-1
 967 1920 l 1,12,-1
 455 896 l 1,13,-1
 904 896 l 1,14,-1
 520 128 l 1,15,-1
 549 128 l 1,8,-1
EndSplineSet
EndChar

StartChar: uniF09B
Encoding: 61595 61595 157
Width: 2048
Flags: W
LayerCount: 2
Fore
SplineSet
1792 512 m 1,0,-1
 1792 384 l 1,1,-1
 1280 384 l 1,2,3
 1280 331 1280 331 1260 284.5 c 128,-1,4
 1240 238 1240 238 1205 203 c 128,-1,5
 1170 168 1170 168 1123.5 148 c 128,-1,6
 1077 128 1077 128 1024 128 c 256,7,8
 971 128 971 128 924.5 148 c 128,-1,9
 878 168 878 168 843 203 c 128,-1,10
 808 238 808 238 788 284.5 c 128,-1,11
 768 331 768 331 768 384 c 1,12,-1
 256 384 l 1,13,-1
 256 512 l 1,14,-1
 384 512 l 1,15,-1
 384 1280 l 2,16,17
 384 1368 384 1368 407 1450 c 128,-1,18
 430 1532 430 1532 471.5 1603 c 128,-1,19
 513 1674 513 1674 571.5 1732.5 c 128,-1,20
 630 1791 630 1791 701 1832.5 c 128,-1,21
 772 1874 772 1874 854 1897 c 128,-1,22
 936 1920 936 1920 1024 1920 c 256,23,24
 1112 1920 1112 1920 1194 1897 c 128,-1,25
 1276 1874 1276 1874 1347 1832.5 c 128,-1,26
 1418 1791 1418 1791 1476.5 1732.5 c 128,-1,27
 1535 1674 1535 1674 1576.5 1603 c 128,-1,28
 1618 1532 1618 1532 1641 1450 c 128,-1,29
 1664 1368 1664 1368 1664 1280 c 2,30,-1
 1664 512 l 1,31,-1
 1792 512 l 1,0,-1
1536 512 m 1,32,-1
 1536 1280 l 2,33,34
 1536 1386 1536 1386 1495.5 1479 c 128,-1,35
 1455 1572 1455 1572 1385.5 1641.5 c 128,-1,36
 1316 1711 1316 1711 1223 1751.5 c 128,-1,37
 1130 1792 1130 1792 1024 1792 c 256,38,39
 918 1792 918 1792 825 1751.5 c 128,-1,40
 732 1711 732 1711 662.5 1641.5 c 128,-1,41
 593 1572 593 1572 552.5 1479 c 128,-1,42
 512 1386 512 1386 512 1280 c 2,43,-1
 512 512 l 1,44,-1
 1536 512 l 1,32,-1
1024 256 m 256,45,46
 1051 256 1051 256 1074 266 c 128,-1,47
 1097 276 1097 276 1114.5 293.5 c 128,-1,48
 1132 311 1132 311 1142 334 c 128,-1,49
 1152 357 1152 357 1152 384 c 1,50,-1
 896 384 l 1,51,52
 896 357 896 357 906 334 c 128,-1,53
 916 311 916 311 933.5 293.5 c 128,-1,54
 951 276 951 276 974 266 c 128,-1,55
 997 256 997 256 1024 256 c 256,45,46
EndSplineSet
EndChar

StartChar: uniF09C
Encoding: 61596 61596 158
Width: 2048
Flags: W
LayerCount: 2
Fore
SplineSet
1747 209 m 5,0,-1
 1573 382 l 5,1,-1
 1280 382 l 5,2,3
 1280 329 1280 329 1259.5 282.5 c 132,-1,4
 1239 236 1239 236 1204.5 201.5 c 132,-1,5
 1170 167 1170 167 1123 146.5 c 132,-1,6
 1076 126 1076 126 1024 126 c 4,7,8
 971 126 971 126 924.5 146.5 c 132,-1,9
 878 167 878 167 843.5 201.5 c 132,-1,10
 809 236 809 236 788.5 282.5 c 132,-1,11
 768 329 768 329 768 382 c 5,12,-1
 256 382 l 5,13,-1
 256 510 l 5,14,-1
 384 510 l 5,15,-1
 384 1278 l 6,16,17
 384 1341 384 1341 396.5 1402.5 c 132,-1,18
 409 1464 409 1464 432 1523 c 5,19,-1
 211 1745 l 5,20,-1
 301 1835 l 5,21,-1
 496 1640 l 5,22,23
 541 1705 541 1705 599 1756.5 c 132,-1,24
 657 1808 657 1808 725.5 1844 c 132,-1,25
 794 1880 794 1880 869.5 1899 c 132,-1,26
 945 1918 945 1918 1024 1918 c 4,27,28
 1152 1918 1152 1918 1269.5 1869.5 c 132,-1,29
 1387 1821 1387 1821 1477 1731 c 260,30,31
 1567 1641 1567 1641 1615.5 1523.5 c 132,-1,32
 1664 1406 1664 1406 1664 1278 c 6,33,-1
 1664 473 l 5,34,-1
 1837 299 l 5,35,-1
 1747 209 l 5,0,-1
1024 1790 m 4,36,37
 958 1790 958 1790 894.5 1773.5 c 132,-1,38
 831 1757 831 1757 775 1725.5 c 132,-1,39
 719 1694 719 1694 671.5 1649 c 132,-1,40
 624 1604 624 1604 589 1548 c 5,41,-1
 1536 601 l 5,42,-1
 1536 1278 l 6,43,44
 1536 1384 1536 1384 1495.5 1477 c 132,-1,45
 1455 1570 1455 1570 1385.5 1639.5 c 132,-1,46
 1316 1709 1316 1709 1223 1749.5 c 132,-1,47
 1130 1790 1130 1790 1024 1790 c 4,36,37
1024 254 m 260,48,49
 1051 254 1051 254 1074 264 c 132,-1,50
 1097 274 1097 274 1114.5 291.5 c 132,-1,51
 1132 309 1132 309 1142 332 c 132,-1,52
 1152 355 1152 355 1152 382 c 5,53,-1
 896 382 l 5,54,55
 896 355 896 355 906 332 c 132,-1,56
 916 309 916 309 933.5 291.5 c 132,-1,57
 951 274 951 274 974 264 c 132,-1,58
 997 254 997 254 1024 254 c 260,48,49
1445 510 m 5,59,-1
 533 1423 l 5,60,61
 512 1352 512 1352 512 1278 c 6,62,-1
 512 510 l 5,63,-1
 1445 510 l 5,59,-1
EndSplineSet
EndChar

StartChar: uniF09D
Encoding: 61597 61597 159
Width: 2048
Flags: W
LayerCount: 2
Fore
SplineSet
2048 1536 m 1,0,-1
 2048 640 l 1,1,-1
 1984 640 l 2,2,3
 1906 640 1906 640 1841 673.5 c 128,-1,4
 1776 707 1776 707 1729 768 c 1,5,-1
 1235 768 l 1,6,7
 1207 709 1207 709 1165 661.5 c 128,-1,8
 1123 614 1123 614 1070.5 581 c 128,-1,9
 1018 548 1018 548 957.5 530 c 128,-1,10
 897 512 897 512 832 512 c 2,11,-1
 768 512 l 1,12,-1
 768 1024 l 1,13,-1
 128 1024 l 1,14,-1
 0 1088 l 1,15,-1
 128 1152 l 1,16,-1
 768 1152 l 1,17,-1
 768 1664 l 1,18,-1
 832 1664 l 2,19,20
 897 1664 897 1664 957.5 1646 c 128,-1,21
 1018 1628 1018 1628 1070.5 1595 c 128,-1,22
 1123 1562 1123 1562 1165 1514.5 c 128,-1,23
 1207 1467 1207 1467 1235 1408 c 1,24,-1
 1729 1408 l 1,25,26
 1776 1469 1776 1469 1841 1502.5 c 128,-1,27
 1906 1536 1906 1536 1984 1536 c 2,28,-1
 2048 1536 l 1,0,-1
1920 1397 m 1,29,30
 1896 1389 1896 1389 1879 1377 c 128,-1,31
 1862 1365 1862 1365 1848.5 1350.5 c 128,-1,32
 1835 1336 1835 1336 1823.5 1318 c 128,-1,33
 1812 1300 1812 1300 1800 1280 c 1,34,-1
 1147 1280 l 1,35,-1
 1132 1323 l 2,36,37
 1104 1402 1104 1402 1041 1457 c 128,-1,38
 978 1512 978 1512 896 1529 c 1,39,-1
 896 647 l 1,40,41
 978 664 978 664 1041 719 c 128,-1,42
 1104 774 1104 774 1132 853 c 2,43,-1
 1147 896 l 1,44,-1
 1800 896 l 1,45,46
 1812 876 1812 876 1823.5 858 c 128,-1,47
 1835 840 1835 840 1848.5 825.5 c 128,-1,48
 1862 811 1862 811 1879 799 c 128,-1,49
 1896 787 1896 787 1920 779 c 1,50,-1
 1920 1397 l 1,29,30
EndSplineSet
EndChar

StartChar: uniF09E
Encoding: 61598 61598 160
Width: 2048
Flags: W
LayerCount: 2
Fore
SplineSet
1764 1344 m 1,0,1
 1799 1404 1799 1404 1857 1438 c 128,-1,2
 1915 1472 1915 1472 1984 1472 c 1,3,-1
 1984 704 l 1,4,5
 1915 704 1915 704 1857 738 c 128,-1,6
 1799 772 1799 772 1764 832 c 1,7,-1
 1193 832 l 1,8,9
 1173 775 1173 775 1137 727.5 c 128,-1,10
 1101 680 1101 680 1053.5 646.5 c 128,-1,11
 1006 613 1006 613 949.5 594.5 c 128,-1,12
 893 576 893 576 832 576 c 1,13,-1
 832 1600 l 1,14,15
 893 1600 893 1600 949.5 1581.5 c 128,-1,16
 1006 1563 1006 1563 1053.5 1529.5 c 128,-1,17
 1101 1496 1101 1496 1137 1448.5 c 128,-1,18
 1173 1401 1173 1401 1193 1344 c 1,19,-1
 1764 1344 l 1,20,-1
 1764 1344 l 1,0,1
EndSplineSet
EndChar

StartChar: uniF09F
Encoding: 61599 61599 161
Width: 2048
Flags: W
LayerCount: 2
Fore
SplineSet
1990 1300 m 1,0,1
 1957 1267 1957 1267 1925.5 1239.5 c 128,-1,2
 1894 1212 1894 1212 1860.5 1193 c 128,-1,3
 1827 1174 1827 1174 1787.5 1163.5 c 128,-1,4
 1748 1153 1748 1153 1698 1153 c 0,5,6
 1664 1153 1664 1153 1633 1159 c 1,7,-1
 1254 780 l 1,8,9
 1267 742 1267 742 1273 702 c 128,-1,10
 1279 662 1279 662 1279 622 c 0,11,12
 1279 557 1279 557 1266 504 c 128,-1,13
 1253 451 1253 451 1228.5 404 c 128,-1,14
 1204 357 1204 357 1169 314.5 c 128,-1,15
 1134 272 1134 272 1090 228 c 1,16,-1
 704 614 l 1,17,-1
 136 45 l 1,18,-1
 0 0 l 1,19,-1
 45 136 l 1,20,-1
 614 704 l 1,21,-1
 228 1090 l 1,22,-1
 273 1135 l 2,23,24
 343 1205 343 1205 433.5 1242 c 128,-1,25
 524 1279 524 1279 623 1279 c 0,26,27
 705 1279 705 1279 780 1254 c 1,28,-1
 1159 1633 l 1,29,30
 1153 1664 1153 1664 1153 1698 c 0,31,32
 1153 1747 1153 1747 1163.5 1786.5 c 128,-1,33
 1174 1826 1174 1826 1193 1860 c 128,-1,34
 1212 1894 1212 1894 1239.5 1925.5 c 128,-1,35
 1267 1957 1267 1957 1300 1990 c 1,36,-1
 1990 1300 l 1,0,1
1698 1281 m 0,37,38
 1753 1281 1753 1281 1802 1307 c 1,39,-1
 1307 1802 l 1,40,41
 1281 1753 1281 1753 1281 1698 c 0,42,43
 1281 1670 1281 1670 1287.5 1645.5 c 128,-1,44
 1294 1621 1294 1621 1302 1595 c 1,45,-1
 810 1104 l 1,46,47
 785 1114 785 1114 763 1123 c 128,-1,48
 741 1132 741 1132 719 1138 c 128,-1,49
 697 1144 697 1144 673.5 1147.5 c 128,-1,50
 650 1151 650 1151 623 1151 c 0,51,52
 566 1151 566 1151 512.5 1134.5 c 128,-1,53
 459 1118 459 1118 413 1086 c 1,54,-1
 1086 413 l 1,55,56
 1118 459 1118 459 1135 512.5 c 128,-1,57
 1152 566 1152 566 1152 622 c 0,58,59
 1152 649 1152 649 1148.5 672.5 c 128,-1,60
 1145 696 1145 696 1138.5 718.5 c 128,-1,61
 1132 741 1132 741 1123 763 c 128,-1,62
 1114 785 1114 785 1104 810 c 1,63,-1
 1595 1302 l 1,64,65
 1621 1294 1621 1294 1645.5 1287.5 c 128,-1,66
 1670 1281 1670 1281 1698 1281 c 0,37,38
EndSplineSet
EndChar

StartChar: uniF0A0
Encoding: 61600 61600 162
Width: 2048
Flags: W
LayerCount: 2
Fore
SplineSet
1900 1300 m 1,0,1
 1859 1260 1859 1260 1806.5 1238.5 c 128,-1,2
 1754 1217 1754 1217 1697 1217 c 0,3,4
 1653 1217 1653 1217 1613 1229 c 1,5,-1
 1180 796 l 1,6,7
 1197 755 1197 755 1206.5 711.5 c 128,-1,8
 1216 668 1216 668 1216 623 c 0,9,10
 1216 537 1216 537 1183 458 c 128,-1,11
 1150 379 1150 379 1090 318 c 1,12,-1
 318 1090 l 1,13,14
 379 1150 379 1150 458 1183 c 128,-1,15
 537 1216 537 1216 623 1216 c 0,16,17
 668 1216 668 1216 711.5 1206.5 c 128,-1,18
 755 1197 755 1197 796 1180 c 1,19,-1
 1229 1613 l 1,20,21
 1217 1653 1217 1653 1217 1697 c 0,22,23
 1217 1754 1217 1754 1238.5 1806.5 c 128,-1,24
 1260 1859 1260 1859 1300 1900 c 1,25,-1
 1900 1300 l 1,0,1
EndSplineSet
EndChar

StartChar: uniF0A1
Encoding: 61601 61601 163
Width: 2048
Flags: W
LayerCount: 2
Fore
SplineSet
1472 896 m 256,0,1
 1565 896 1565 896 1646.5 861 c 128,-1,2
 1728 826 1728 826 1789 765 c 128,-1,3
 1850 704 1850 704 1885 622.5 c 128,-1,4
 1920 541 1920 541 1920 448 c 256,5,6
 1920 355 1920 355 1885 273.5 c 128,-1,7
 1850 192 1850 192 1789 131 c 128,-1,8
 1728 70 1728 70 1646.5 35 c 128,-1,9
 1565 0 1565 0 1472 0 c 256,10,11
 1379 0 1379 0 1297.5 35 c 128,-1,12
 1216 70 1216 70 1155 131 c 128,-1,13
 1094 192 1094 192 1059 273.5 c 128,-1,14
 1024 355 1024 355 1024 448 c 256,15,16
 1024 541 1024 541 1059 622.5 c 128,-1,17
 1094 704 1094 704 1155 765 c 128,-1,18
 1216 826 1216 826 1297.5 861 c 128,-1,19
 1379 896 1379 896 1472 896 c 256,0,1
1152 448 m 0,20,21
 1152 382 1152 382 1177 323.5 c 128,-1,22
 1202 265 1202 265 1245.5 221.5 c 128,-1,23
 1289 178 1289 178 1347.5 153 c 128,-1,24
 1406 128 1406 128 1472 128 c 0,25,26
 1519 128 1519 128 1564 141.5 c 128,-1,27
 1609 155 1609 155 1648 181 c 1,28,-1
 1205 624 l 1,29,30
 1179 585 1179 585 1165.5 540 c 128,-1,31
 1152 495 1152 495 1152 448 c 0,20,21
1739 272 m 1,32,33
 1765 311 1765 311 1778.5 356 c 128,-1,34
 1792 401 1792 401 1792 448 c 0,35,36
 1792 514 1792 514 1766.5 572 c 128,-1,37
 1741 630 1741 630 1697.5 673.5 c 128,-1,38
 1654 717 1654 717 1596 742.5 c 128,-1,39
 1538 768 1538 768 1472 768 c 0,40,41
 1425 768 1425 768 1380 754.5 c 128,-1,42
 1335 741 1335 741 1296 715 c 1,43,-1
 1739 272 l 1,32,33
1990 1300 m 1,44,45
 1957 1267 1957 1267 1925.5 1239.5 c 128,-1,46
 1894 1212 1894 1212 1860.5 1193 c 128,-1,47
 1827 1174 1827 1174 1787.5 1163.5 c 128,-1,48
 1748 1153 1748 1153 1698 1153 c 0,49,50
 1664 1153 1664 1153 1633 1159 c 1,51,-1
 1499 1024 l 1,52,-1
 1317 1024 l 1,53,-1
 1595 1302 l 1,54,55
 1621 1294 1621 1294 1646 1287.5 c 128,-1,56
 1671 1281 1671 1281 1698 1281 c 0,57,58
 1753 1281 1753 1281 1802 1307 c 1,59,-1
 1307 1802 l 1,60,61
 1281 1753 1281 1753 1281 1698 c 0,62,63
 1281 1671 1281 1671 1287.5 1646 c 128,-1,64
 1294 1621 1294 1621 1302 1595 c 1,65,-1
 810 1104 l 1,66,67
 786 1114 786 1114 764 1123 c 128,-1,68
 742 1132 742 1132 720 1138 c 128,-1,69
 698 1144 698 1144 674.5 1147.5 c 128,-1,70
 651 1151 651 1151 624 1151 c 0,71,72
 567 1151 567 1151 513 1134.5 c 128,-1,73
 459 1118 459 1118 413 1086 c 1,74,-1
 896 603 l 1,75,-1
 896 421 l 1,76,-1
 704 614 l 1,77,-1
 136 45 l 1,78,-1
 0 0 l 1,79,-1
 45 136 l 1,80,-1
 614 704 l 1,81,-1
 228 1090 l 1,82,-1
 273 1135 l 2,83,84
 343 1205 343 1205 435 1242 c 128,-1,85
 527 1279 527 1279 626 1279 c 0,86,87
 665 1279 665 1279 703.5 1272.5 c 128,-1,88
 742 1266 742 1266 780 1254 c 1,89,-1
 1159 1633 l 1,90,91
 1153 1664 1153 1664 1153 1698 c 0,92,93
 1153 1747 1153 1747 1163.5 1786.5 c 128,-1,94
 1174 1826 1174 1826 1193 1860 c 128,-1,95
 1212 1894 1212 1894 1239.5 1925.5 c 128,-1,96
 1267 1957 1267 1957 1300 1990 c 1,97,-1
 1990 1300 l 1,44,45
EndSplineSet
EndChar

StartChar: uniF0A2
Encoding: 61602 61602 164
Width: 2048
Flags: W
LayerCount: 2
Fore
SplineSet
1792 1152 m 1,0,-1
 1792 0 l 1,1,-1
 256 0 l 1,2,-1
 256 1152 l 1,3,-1
 512 1152 l 1,4,-1
 512 1526 l 2,5,6
 512 1634 512 1634 551 1729 c 128,-1,7
 590 1824 590 1824 659 1895 c 128,-1,8
 728 1966 728 1966 821.5 2007 c 128,-1,9
 915 2048 915 2048 1024 2048 c 256,10,11
 1133 2048 1133 2048 1226.5 2007 c 128,-1,12
 1320 1966 1320 1966 1389 1895 c 128,-1,13
 1458 1824 1458 1824 1497 1729 c 128,-1,14
 1536 1634 1536 1634 1536 1526 c 2,15,-1
 1536 1152 l 1,16,-1
 1792 1152 l 1,0,-1
640 1152 m 1,17,-1
 1408 1152 l 1,18,-1
 1408 1526 l 2,19,20
 1408 1607 1408 1607 1379 1678.5 c 128,-1,21
 1350 1750 1350 1750 1298.5 1804 c 128,-1,22
 1247 1858 1247 1858 1176.5 1889 c 128,-1,23
 1106 1920 1106 1920 1024 1920 c 256,24,25
 942 1920 942 1920 871.5 1889 c 128,-1,26
 801 1858 801 1858 749.5 1804 c 128,-1,27
 698 1750 698 1750 669 1678.5 c 128,-1,28
 640 1607 640 1607 640 1526 c 2,29,-1
 640 1152 l 1,17,-1
1664 1024 m 1,30,-1
 384 1024 l 1,31,-1
 384 128 l 1,32,-1
 1664 128 l 1,33,-1
 1664 1024 l 1,30,-1
EndSplineSet
EndChar

StartChar: uniF0A3
Encoding: 61603 61603 165
Width: 2048
Flags: W
LayerCount: 2
Fore
SplineSet
1792 1152 m 1,0,-1
 1792 0 l 1,1,-1
 256 0 l 1,2,-1
 256 1152 l 1,3,-1
 1408 1152 l 1,4,-1
 1408 1536 l 2,5,6
 1408 1618 1408 1618 1378.5 1688 c 128,-1,7
 1349 1758 1349 1758 1297.5 1809.5 c 128,-1,8
 1246 1861 1246 1861 1176 1890.5 c 128,-1,9
 1106 1920 1106 1920 1024 1920 c 256,10,11
 942 1920 942 1920 872 1890.5 c 128,-1,12
 802 1861 802 1861 750.5 1809.5 c 128,-1,13
 699 1758 699 1758 669.5 1688 c 128,-1,14
 640 1618 640 1618 640 1536 c 1,15,-1
 512 1536 l 1,16,17
 512 1645 512 1645 551 1738.5 c 128,-1,18
 590 1832 590 1832 659 1901 c 128,-1,19
 728 1970 728 1970 821.5 2009 c 128,-1,20
 915 2048 915 2048 1024 2048 c 256,21,22
 1133 2048 1133 2048 1226.5 2009 c 128,-1,23
 1320 1970 1320 1970 1389 1901 c 128,-1,24
 1458 1832 1458 1832 1497 1738.5 c 128,-1,25
 1536 1645 1536 1645 1536 1536 c 2,26,-1
 1536 1152 l 1,27,-1
 1792 1152 l 1,0,-1
1664 1024 m 1,28,-1
 384 1024 l 1,29,-1
 384 128 l 1,30,-1
 1664 128 l 1,31,-1
 1664 1024 l 1,28,-1
EndSplineSet
EndChar

StartChar: uniF0A4
Encoding: 61604 61604 166
Width: 2048
Flags: W
LayerCount: 2
Fore
SplineSet
2048 475 m 1,0,-1
 2048 0 l 1,1,-1
 1536 0 l 1,2,-1
 1536 256 l 1,3,-1
 1280 256 l 1,4,-1
 1280 512 l 1,5,-1
 1024 512 l 1,6,-1
 1024 719 l 1,7,8
 950 680 950 680 869 660 c 128,-1,9
 788 640 788 640 704 640 c 0,10,11
 607 640 607 640 517 665 c 128,-1,12
 427 690 427 690 349 736 c 128,-1,13
 271 782 271 782 206.5 846.5 c 128,-1,14
 142 911 142 911 96 989 c 128,-1,15
 50 1067 50 1067 25 1157 c 128,-1,16
 0 1247 0 1247 0 1344 c 256,17,18
 0 1441 0 1441 25 1531 c 128,-1,19
 50 1621 50 1621 96 1699 c 128,-1,20
 142 1777 142 1777 206.5 1841.5 c 128,-1,21
 271 1906 271 1906 349 1952 c 128,-1,22
 427 1998 427 1998 517 2023 c 128,-1,23
 607 2048 607 2048 704 2048 c 256,24,25
 801 2048 801 2048 891 2023 c 128,-1,26
 981 1998 981 1998 1059 1952 c 128,-1,27
 1137 1906 1137 1906 1201.5 1841.5 c 128,-1,28
 1266 1777 1266 1777 1312 1699 c 128,-1,29
 1358 1621 1358 1621 1383 1531 c 128,-1,30
 1408 1441 1408 1441 1408 1344 c 0,31,32
 1408 1293 1408 1293 1400 1243 c 128,-1,33
 1392 1193 1392 1193 1377 1145 c 1,34,-1
 2048 475 l 1,0,-1
1920 421 m 1,35,-1
 1230 1111 l 1,36,37
 1252 1168 1252 1168 1266 1225.5 c 128,-1,38
 1280 1283 1280 1283 1280 1344 c 0,39,40
 1280 1463 1280 1463 1234.5 1568 c 128,-1,41
 1189 1673 1189 1673 1111 1751 c 128,-1,42
 1033 1829 1033 1829 928 1874.5 c 128,-1,43
 823 1920 823 1920 704 1920 c 256,44,45
 585 1920 585 1920 480 1874.5 c 128,-1,46
 375 1829 375 1829 297 1751 c 128,-1,47
 219 1673 219 1673 173.5 1568 c 128,-1,48
 128 1463 128 1463 128 1344 c 256,49,50
 128 1225 128 1225 173.5 1120 c 128,-1,51
 219 1015 219 1015 297 937 c 128,-1,52
 375 859 375 859 480 813.5 c 128,-1,53
 585 768 585 768 704 768 c 0,54,55
 801 768 801 768 894.5 801 c 128,-1,56
 988 834 988 834 1063 896 c 1,57,-1
 1152 896 l 1,58,-1
 1152 640 l 1,59,-1
 1408 640 l 1,60,-1
 1408 384 l 1,61,-1
 1664 384 l 1,62,-1
 1664 128 l 1,63,-1
 1920 128 l 1,64,-1
 1920 421 l 1,35,-1
512 1664 m 256,65,66
 539 1664 539 1664 562 1654 c 128,-1,67
 585 1644 585 1644 602.5 1626.5 c 128,-1,68
 620 1609 620 1609 630 1586 c 128,-1,69
 640 1563 640 1563 640 1536 c 256,70,71
 640 1509 640 1509 630 1486 c 128,-1,72
 620 1463 620 1463 602.5 1445.5 c 128,-1,73
 585 1428 585 1428 562 1418 c 128,-1,74
 539 1408 539 1408 512 1408 c 256,75,76
 485 1408 485 1408 462 1418 c 128,-1,77
 439 1428 439 1428 421.5 1445.5 c 128,-1,78
 404 1463 404 1463 394 1486 c 128,-1,79
 384 1509 384 1509 384 1536 c 256,80,81
 384 1563 384 1563 394 1586 c 128,-1,82
 404 1609 404 1609 421.5 1626.5 c 128,-1,83
 439 1644 439 1644 462 1654 c 128,-1,84
 485 1664 485 1664 512 1664 c 256,65,66
EndSplineSet
EndChar

